  0
SECTION
  2
HEADER
  9
$ACADVER
  1
AC1015
  9
$ACADMAINTVER
 70
               6
  9
$DWGCODEPAGE
  3
ANSI_932
  9
$INSBASE
 10
0.0
 20
0.0
 30
0.0
  9
$EXTMIN
 10
-700.0
 20
-675.0
 30
0.0
  9
$EXTMAX
 10
700.0
 20
675.0
 30
250.0
  9
$LIMMIN
 10
0.0
 20
0.0
  9
$LIMMAX
 10
0.0
 20
0.0
  9
$ORTHOMODE
 70
               0
  9
$REGENMODE
 70
               1
  9
$FILLMODE
 70
               1
  9
$QTEXTMODE
 70
               0
  9
$MIRRTEXT
 70
               1
  9
$LTSCALE
 40
30.479999999999997
  9
$ATTMODE
 70
               1
  9
$TEXTSIZE
 40
0.2
  9
$TRACEWID
 40
1.0
  9
$TEXTSTYLE
  7
Standard
  9
$CLAYER
  8
0
  9
$CELTYPE
  6
Continuous
  9
$CECOLOR
 62
             256
  9
$CELTSCALE
 40
1.0
  9
$DISPSILH
 70
               0
  9
$DIMSCALE
 40
1.0
  9
$DIMASZ
 40
0.18
  9
$DIMEXO
 40
0.0625
  9
$DIMDLI
 40
0.38
  9
$DIMRND
 40
0.0
  9
$DIMDLE
 40
0.0
  9
$DIMEXE
 40
0.18
  9
$DIMTP
 40
0.0
  9
$DIMTM
 40
0.0
  9
$DIMTXT
 40
0.18
  9
$DIMCEN
 40
0.09
  9
$DIMTSZ
 40
0.0
  9
$DIMTOL
 70
               0
  9
$DIMLIM
 70
               0
  9
$DIMTIH
 70
               1
  9
$DIMTOH
 70
               1
  9
$DIMSE1
 70
               0
  9
$DIMSE2
 70
               0
  9
$DIMTAD
 70
               0
  9
$DIMZIN
 70
               0
  9
$DIMBLK
  1

  9
$DIMASO
 70
               1
  9
$DIMSHO
 70
               1
  9
$DIMPOST
  1

  9
$DIMAPOST
  1

  9
$DIMALT
 70
               0
  9
$DIMALTD
 70
               2
  9
$DIMALTF
 40
25.399999999999999
  9
$DIMLFAC
 40
1.0
  9
$DIMTOFL
 70
               0
  9
$DIMTVP
 40
0.0
  9
$DIMTIX
 70
               0
  9
$DIMSOXD
 70
               0
  9
$DIMSAH
 70
               0
  9
$DIMBLK1
  1

  9
$DIMBLK2
  1

  9
$DIMSTYLE
  2
Standard
  9
$DIMCLRD
 70
               0
  9
$DIMCLRE
 70
               0
  9
$DIMCLRT
 70
               0
  9
$DIMTFAC
 40
1.0
  9
$DIMGAP
 40
0.09
  9
$DIMJUST
 70
               0
  9
$DIMSD1
 70
               0
  9
$DIMSD2
 70
               0
  9
$DIMTOLJ
 70
               1
  9
$DIMTZIN
 70
               0
  9
$DIMALTZ
 70
               0
  9
$DIMALTTZ
 70
               0
  9
$DIMUPT
 70
               0
  9
$DIMDEC
 70
               4
  9
$DIMTDEC
 70
               4
  9
$DIMALTU
 70
               2
  9
$DIMALTTD
 70
               2
  9
$DIMTXSTY
  7
Standard
  9
$DIMAUNIT
 70
               0
  9
$DIMADEC
 70
               0
  9
$DIMALTRND
 40
0.0
  9
$DIMAZIN
 70
               0
  9
$DIMDSEP
 70
               0
  9
$DIMATFIT
 70
               3
  9
$DIMFRAC
 70
               0
  9
$DIMLDRBLK
  1

  9
$DIMLUNIT
 70
               2
  9
$DIMLWD
 70
               0
  9
$DIMLWE
 70
               0
  9
$DIMTMOVE
 70
               0
  9
$LUNITS
 70
               2
  9
$LUPREC
 70
               4
  9
$SKETCHINC
 40
0.1
  9
$FILLETRAD
 40
0.0
  9
$AUNITS
 70
               0
  9
$AUPREC
 70
               0
  9
$MENU
  1
acad
  9
$ELEVATION
 40
0.0
  9
$PELEVATION
 40
0.0
  9
$THICKNESS
 40
0.0
  9
$LIMCHECK
 70
               0
  9
$CHAMFERA
 40
0.0
  9
$CHAMFERB
 40
0.0
  9
$CHAMFERC
 40
0.0
  9
$CHAMFERD
 40
0.0
  9
$SKPOLY
 70
               0
  9
$TDCREATE
 40
2452970.427766204
  9
$TDUCREATE
 40
0.000000000
  9
$TDUPDATE
 40
2452970.427766204
  9
$TDUUPDATE
 40
0.000000000
  9
$TDINDWG
 40
0.0000000000
  9
$TDUSRTIMER
 40
0.0000000000
  9
$USRTIMER
 70
               1
  9
$ANGBASE
 50
0.0
  9
$ANGDIR
 70
               0
  9
$PDMODE
 70
               1
  9
$PDSIZE
 40
-2.0
  9
$PLINEWID
 40
0.0
  9
$SPLFRAME
 70
               0
  9
$SPLINETYPE
 70
               6
  9
$SPLINESEGS
 70
               8
  9
$HANDSEED
  5
341
  9
$SURFTAB1
 70
               6
  9
$SURFTAB2
 70
               6
  9
$SURFTYPE
 70
               6
  9
$SURFU
 70
               6
  9
$SURFV
 70
               6
  9
$UCSBASE
  2

  9
$UCSNAME
  2

  9
$UCSORG
 10
0.0
 20
0.0
 30
0.0
  9
$UCSXDIR
 10
1.0
 20
0.0
 30
0.0
  9
$UCSYDIR
 10
0.0
 20
1.0
 30
0.0
  9
$UCSORTHOREF
  2

  9
$UCSORTHOVIEW
 70
               0
  9
$UCSORGTOP
 10
0.0
 20
0.0
 30
0.0
  9
$UCSORGBOTTOM
 10
0.0
 20
0.0
 30
0.0
  9
$UCSORGLEFT
 10
0.0
 20
0.0
 30
0.0
  9
$UCSORGRIGHT
 10
0.0
 20
0.0
 30
0.0
  9
$UCSORGFRONT
 10
0.0
 20
0.0
 30
0.0
  9
$UCSORGBACK
 10
0.0
 20
0.0
 30
0.0
  9
$PUCSBASE
  2

  9
$PUCSNAME
  2

  9
$PUCSORG
 10
0.0
 20
0.0
 30
0.0
  9
$PUCSXDIR
 10
1.0
 20
0.0
 30
0.0
  9
$PUCSYDIR
 10
0.0
 20
1.0
 30
0.0
  9
$PUCSORTHOREF
  2

  9
$PUCSORTHOVIEW
 70
               0
  9
$PUCSORGTOP
 10
0.0
 20
0.0
 30
0.0
  9
$PUCSORGBOTTOM
 10
0.0
 20
0.0
 30
0.0
  9
$PUCSORGLEFT
 10
0.0
 20
0.0
 30
0.0
  9
$PUCSORGRIGHT
 10
0.0
 20
0.0
 30
0.0
  9
$PUCSORGFRONT
 10
0.0
 20
0.0
 30
0.0
  9
$PUCSORGBACK
 10
0.0
 20
0.0
 30
0.0
  9
$USERI1
 70
               0
  9
$USERI2
 70
               0
  9
$USERI3
 70
               0
  9
$USERI4
 70
               0
  9
$USERI5
 70
               0
  9
$USERR1
 40
0.0
  9
$USERR2
 40
0.0
  9
$USERR3
 40
0.0
  9
$USERR4
 40
0.0
  9
$USERR5
 40
0.0
  9
$WORLDVIEW
 70
               1
  9
$SHADEDGE
 70
               3
  9
$SHADEDIF
 70
              70
  9
$TILEMODE
 70
               1
  9
$MAXACTVP
 70
              16
  9
$PINSBASE
 10
0.0
 20
0.0
 30
0.0
  9
$PLIMCHECK
 70
               0
  9
$PEXTMIN
 10
1.0000000000000000E+20
 20
1.0000000000000000E+20
 30
1.0000000000000000E+20
  9
$PEXTMAX
 10
-1.0000000000000000E+20
 20
-1.0000000000000000E+20
 30
-1.0000000000000000E+20
  9
$PLIMMIN
 10
0.0
 20
0.0
  9
$PLIMMAX
 10
12.0
 20
9.0
  9
$UNITMODE
 70
               0
  9
$VISRETAIN
 70
               0
  9
$PLINEGEN
 70
               1
  9
$PSLTSCALE
 70
               0
  9
$TREEDEPTH
 70
            3020
  9
$CMLSTYLE
  2
Standard
  9
$CMLJUST
 70
               0
  9
$CMLSCALE
 40
1.0
  9
$PROXYGRAPHICS
 70
               0
  9
$MEASUREMENT
 70
               1
  9
$CELWEIGHT
370
               0
  9
$ENDCAPS
280
               0
  9
$JOINSTYLE
280
               0
  9
$LWDISPLAY
290
               1
  9
$INSUNITS
 70
               4
  9
$HYPERLINKBASE
  1

  9
$XEDIT
290
               1
  9
$CEPSNTYPE
380
               0
  9
$PSTYLEMODE
290
               1
  9
$FINGERPRINTGUID
  2

  9
$VERSIONGUID
  2

  9
$EXTNAMES
290
               1
  9
$PSVPSCALE
 40
0.0
  0
ENDSEC
  0
SECTION
  2
CLASSES
  0
CLASS
  1
LWPOLYLINE
  2
AcDbPolyline
  3
AutoCAD 2000
 90
    32768
280
               0
281
               1
  0
CLASS
  1
IMAGE
  2
AcDbRasterImage
  3
ISM
 90
    32895
280
               0
281
               1
  0
CLASS
  1
OLE2FRAME
  2
AcDbOle2Frame
  3
AutoCAD 2000
 90
    32768
280
               0
281
               1
  0
CLASS
  1
HATCH
  2
AcDbHatch
  3
AutoCAD 2000
 90
    32768
280
               0
281
               1
  0
CLASS
  1
DICTIONARYVAR
  2
AcDbDictionaryVar
  3
AutoCAD 2000
 90
    32768
280
               0
281
               0
  0
CLASS
  1
RASTERVARIABLES
  2
AcDbRasterVariables
  3
ISM
 90
    32768
280
               0
281
               0
  0
CLASS
  1
IMAGEDEF
  2
AcDbRasterImageDef
  3
ISM
 90
    32768
280
               0
281
               0
  0
CLASS
  1
IMAGEDEF_REACTOR
  2
AcDbRasterImageDefReactor
  3
ISM
 90
    32769
280
               0
281
               0
  0
CLASS
  1
IDBUFFER
  2
AcDbIdBuffer
  3
AutoCAD 2000
 90
    32768
280
               0
281
               0
  0
CLASS
  1
SPATIAL_FILTER
  2
AcDbSpatialFilter
  3
AutoCAD 2000
 90
    32768
280
               0
281
               0
  0
CLASS
  1
XRECORD
  2
AcDbXrecord
  3
AutoCAD 2000
 90
    32768
280
               0
281
               0
  0
CLASS
  1
SORTENTSTABLE
  2
AcDbSortentsTable
  3
AutoCAD 2000
 90
    32768
280
               0
281
               0
  0
CLASS
  1
LAYER_INDEX
  2
AcDbLayerIndex
  3
AutoCAD 2000
 90
    32768
280
               0
281
               0
  0
CLASS
  1
SPATIAL_INDEX
  2
AcDbSpatialIndex
  3
AutoCAD 2000
 90
    32768
280
               0
281
               0
  0
CLASS
  1
OBJECT_PTR
  2
CAseDLPNTableRecord
  3
"ASE-LPNTableRecord"
 90
    32769
280
               0
281
               0
  0
CLASS
  1
LAYOUT
  2
AcDbLayout
  3
AutoCAD 2000
 90
        0
280
               0
281
               0
  0
CLASS
  1
PLOTSETTINGS
  2
AcDbPlotSettings
  3
AutoCAD 2000
 90
    32768
280
               0
281
               0
  0
CLASS
  1
ACDBDICTIONARYWDFLT
  2
AcDbDictionaryWithDefault
  3
AutoCAD 2000
 90
        0
280
               0
281
               0
  0
CLASS
  1
ACDBPLACEHOLDER
  2
AcDbPlaceHolder
  3
AutoCAD 2000
 90
        0
280
               0
281
               0
  0
ENDSEC
  0
SECTION
  2
TABLES
  0
TABLE
  2
VPORT
  5
7
100
AcDbSymbolTable
 70
               1
  0
VPORT
  5
15
100
AcDbSymbolTableRecord
100
AcDbViewportTableRecord
  2
*ACTIVE
 70
               0
 10
0.0
 20
0.0
 11
1.0
 21
1.0
 12
0.0
 22
0.0
 13
0.0
 23
0.0
 14
1.0
 24
1.0
 15
0.0
 25
0.0
 16
0.0
 26
0.0
 36
1.0
 17
0.0
 27
0.0
 37
0.0
 40
1350.0
 41
0.688564
 42
50.0
 43
0.0
 44
0.0
 50
0.0
 51
0.0
 71
               0
 72
             100
 73
               1
 74
               1
 75
               0
 76
               0
 77
               0
 78
               0
281
               0
 65
               0
110
0.0
120
0.0
130
0.0
111
1.0
121
0.0
131
0.0
112
0.0
122
1.0
132
0.0
345
0
346
0
 79
               0
146
0.0
  0
ENDTAB
  0
TABLE
  2
LTYPE
  5
4
100
AcDbSymbolTable
 70
              13
  0
LTYPE
  5
11
100
AcDbSymbolTableRecord
100
AcDbLinetypeTableRecord
  2
ByBlock
 70
              64
  3

 72
              65
 73
               0
 40
0.0
  0
LTYPE
  5
12
100
AcDbSymbolTableRecord
100
AcDbLinetypeTableRecord
  2
ByLayer
 70
              64
  3

 72
              65
 73
               0
 40
0.0
  0
LTYPE
  5
13
100
AcDbSymbolTableRecord
100
AcDbLinetypeTableRecord
  2
Continuous
 70
              64
  3
Solid line
 72
              65
 73
               0
 40
0.0
  0
LTYPE
  5
23
100
AcDbSymbolTableRecord
100
AcDbLinetypeTableRecord
  2
STYLE_01
 70
               0
  3

 72
              65
 73
               2
 40
0.41664
 49
0.20828
 74
               0
 49
-0.20836
 74
               0
  0
LTYPE
  5
24
100
AcDbSymbolTableRecord
100
AcDbLinetypeTableRecord
  2
STYLE_02
 70
               0
  3

 72
              65
 73
               2
 40
0.6944250000000001
 49
0.48607
 74
               0
 49
-0.2083550000000001
 74
               0
  0
LTYPE
  5
25
100
AcDbSymbolTableRecord
100
AcDbLinetypeTableRecord
  2
STYLE_03
 70
               0
  3

 72
              65
 73
               2
 40
1.25
 49
1.0416400000000001
 74
               0
 49
-0.2083599999999999
 74
               0
  0
LTYPE
  5
26
100
AcDbSymbolTableRecord
100
AcDbLinetypeTableRecord
  2
STYLE_04
 70
               0
  3

 72
              65
 73
               2
 40
1.5277099999999999
 49
1.3194249999999998
 74
               0
 49
-0.208285
 74
               0
  0
LTYPE
  5
27
100
AcDbSymbolTableRecord
100
AcDbLinetypeTableRecord
  2
STYLE_05
 70
               0
  3

 72
              65
 73
               2
 40
0.20828
 49
0.069425
 74
               0
 49
-0.138855
 74
               0
  0
LTYPE
  5
28
100
AcDbSymbolTableRecord
100
AcDbLinetypeTableRecord
  2
STYLE_06
 70
               0
  3

 72
              65
 73
               4
 40
1.0416400000000001
 49
0.625
 74
               0
 49
-0.20828
 74
               0
 49
0.06943
 74
               0
 49
-0.13893
 74
               0
  0
LTYPE
  5
29
100
AcDbSymbolTableRecord
100
AcDbLinetypeTableRecord
  2
STYLE_07
 70
               0
  3

 72
              65
 73
               6
 40
1.875
 49
0.625
 74
               0
 49
-0.20828
 74
               0
 49
0.6250000000000001
 74
               0
 49
-0.2083599999999999
 74
               0
 49
0.06943
 74
               0
 49
-0.1389299999999999
 74
               0
  0
LTYPE
  5
2A
100
AcDbSymbolTableRecord
100
AcDbLinetypeTableRecord
  2
STYLE_08
 70
               0
  3

 72
              65
 73
               6
 40
1.25
 49
0.625
 74
               0
 49
-0.20828
 74
               0
 49
0.06943
 74
               0
 49
-0.13893
 74
               0
 49
0.0694299999999999
 74
               0
 49
-0.13893
 74
               0
  0
LTYPE
  5
2B
100
AcDbSymbolTableRecord
100
AcDbLinetypeTableRecord
  2
STYLE_09
 70
               0
  3

 72
              65
 73
               4
 40
5.0
 49
3.75
 74
               0
 49
-0.2777849999999998
 74
               0
 49
0.6944300000000003
 74
               0
 49
-0.2777849999999998
 74
               0
  0
LTYPE
  5
2C
100
AcDbSymbolTableRecord
100
AcDbLinetypeTableRecord
  2
STYLE_10
 70
               0
  3

 72
              65
 73
               6
 40
5.9375
 49
3.75
 74
               0
 49
-0.2777849999999998
 74
               0
 49
0.6944300000000003
 74
               0
 49
-0.2777849999999998
 74
               0
 49
0.625
 74
               0
 49
-0.3125
 74
               0
  0
ENDTAB
  0
TABLE
  2
LAYER
  5
2
100
AcDbSymbolTable
 70
               3
  0
LAYER
  5
14
100
AcDbSymbolTableRecord
100
AcDbLayerTableRecord
  2
0
 70
               0
 62
               7
  6
Continuous
290
               1
370
              -3
390
1D
  0
LAYER
  5
2D
100
AcDbSymbolTableRecord
100
AcDbLayerTableRecord
  2
àÍî 
 70
               0
 62
               7
  6
Continuous
290
               1
370
               5
390
1F
  0
LAYER
  5
2E
100
AcDbSymbolTableRecord
100
AcDbLayerTableRecord
  2
ê°ñ@
 70
               0
 62
               7
  6
Continuous
290
               1
370
               5
390
1F
  0
ENDTAB
  0
TABLE
  2
STYLE
  5
3
100
AcDbSymbolTable
 70
               1
  0
STYLE
  5
17
100
AcDbSymbolTableRecord
100
AcDbTextStyleTableRecord
  2
Standard
 70
               0
 40
0.0
 41
1.0
 50
0.0
 71
               0
 42
0.0
  3
txt
  4
BIGFONT.SHX
  0
ENDTAB
  0
TABLE
  2
VIEW
  5
5
100
AcDbSymbolTable
 70
               0
  0
ENDTAB
  0
TABLE
  2
UCS
  5
6
100
AcDbSymbolTable
 70
               0
  0
ENDTAB
  0
TABLE
  2
APPID
  5
8
100
AcDbSymbolTable
 70
               1
  0
APPID
  5
16
100
AcDbSymbolTableRecord
100
AcDbRegAppTableRecord
  2
ACAD
 70
               0
  0
ENDTAB
  0
TABLE
  2
DIMSTYLE
  5
9
100
AcDbSymbolTable
 70
               1
100
AcDbDimStyleTable
 71
               0
  0
DIMSTYLE
105
18
100
AcDbSymbolTableRecord
100
AcDbDimStyleTableRecord
  2
Standard
 70
               0
  3

  4

 40
1.0
 41
0.18
 42
0.0625
 43
0.38
 44
0.18
 45
0.0
 46
0.0
 47
0.0
 48
0.0
 71
               0
 72
               0
 73
               1
 74
               1
 75
               0
 76
               0
 77
               0
 78
               0
 79
               0
140
0.18
141
0.09
142
0.0
143
25.399999999999999
144
1.0
145
0.0
146
1.0
147
0.09
148
0.0
170
               0
171
               2
172
               0
173
               0
174
               0
175
               0
176
               0
177
               0
178
               0
179
               0
271
               4
272
               4
273
               2
274
               2
275
               0
276
               0
277
               2
278
              46
279
               0
280
               0
281
               0
282
               0
283
               1
284
               0
285
               0
286
               0
288
               0
340
17
341
0
342
0
343
0
344
0
371
              -2
372
              -2
  0
ENDTAB
  0
TABLE
  2
BLOCK_RECORD
  5
1
100
AcDbSymbolTable
 70
               0
  0
BLOCK_RECORD
  5
A
100
AcDbSymbolTableRecord
100
AcDbBlockTableRecord
  2
*MODEL_SPACE
340
20
  0
BLOCK_RECORD
  5
B
100
AcDbSymbolTableRecord
100
AcDbBlockTableRecord
  2
*PAPER_SPACE
340
21
  0
ENDTAB
  0
ENDSEC
  0
SECTION
  2
BLOCKS
  0
BLOCK
  5
D
100
AcDbEntity
  8
0
100
AcDbBlockBegin
  2
*MODEL_SPACE
 70
               0
 10
0.0
 20
0.0
 30
0.0
  3
*MODEL_SPACE
  1

  0
ENDBLK
  5
E
100
AcDbEntity
  8
0
100
AcDbBlockEnd
  0
BLOCK
  5
F
100
AcDbEntity
 67
               1
  8
0
100
AcDbBlockBegin
  2
*PAPER_SPACE
 70
               0
 10
0.0
 20
0.0
 30
0.0
  3
*PAPER_SPACE
  1

  0
ENDBLK
  5
10
100
AcDbEntity
 67
               1
  8
0
100
AcDbBlockEnd
  0
ENDSEC
  0
SECTION
  2
ENTITIES
  0
3DFACE
  5
2F
100
AcDbEntity
  8
àÍî 
370
               5
  6
Continuous
 62
               7
100
AcDbFace
 10
275.0
 20
-575.0
 30
25.0
 11
375.0
 21
-575.0
 31
25.0
 12
375.0
 22
-675.0
 32
25.0
 13
275.0
 23
-675.0
 33
25.0
  0
3DFACE
  5
30
100
AcDbEntity
  8
àÍî 
370
               5
  6
Continuous
 62
               7
100
AcDbFace
 10
275.0
 20
-575.0
 30
0.0
 11
375.0
 21
-575.0
 31
0.0
 12
375.0
 22
-675.0
 32
0.0
 13
275.0
 23
-675.0
 33
0.0
  0
3DFACE
  5
31
100
AcDbEntity
  8
àÍî 
370
               5
  6
Continuous
 62
               7
100
AcDbFace
 10
275.0
 20
-675.0
 30
0.0
 11
275.0
 21
-675.0
 31
25.0
 12
275.0
 22
-575.0
 32
25.0
 13
275.0
 23
-575.0
 33
0.0
  0
3DFACE
  5
32
100
AcDbEntity
  8
àÍî 
370
               5
  6
Continuous
 62
               7
100
AcDbFace
 10
375.0
 20
-675.0
 30
0.0
 11
375.0
 21
-675.0
 31
25.0
 12
275.0
 22
-675.0
 32
25.0
 13
275.0
 23
-675.0
 33
0.0
  0
3DFACE
  5
33
100
AcDbEntity
  8
àÍî 
370
               5
  6
Continuous
 62
               7
100
AcDbFace
 10
375.0
 20
-575.0
 30
0.0
 11
375.0
 21
-575.0
 31
25.0
 12
375.0
 22
-675.0
 32
25.0
 13
375.0
 23
-675.0
 33
0.0
  0
3DFACE
  5
34
100
AcDbEntity
  8
àÍî 
370
               5
  6
Continuous
 62
               7
100
AcDbFace
 10
275.0
 20
-575.0
 30
0.0
 11
275.0
 21
-575.0
 31
25.0
 12
375.0
 22
-575.0
 32
25.0
 13
375.0
 23
-575.0
 33
0.0
  0
3DFACE
  5
35
100
AcDbEntity
  8
àÍî 
370
               5
  6
Continuous
 62
               7
100
AcDbFace
 10
-375.0
 20
-575.0
 30
25.0
 11
-275.0
 21
-575.0
 31
25.0
 12
-275.0
 22
-675.0
 32
25.0
 13
-375.0
 23
-675.0
 33
25.0
  0
3DFACE
  5
36
100
AcDbEntity
  8
àÍî 
370
               5
  6
Continuous
 62
               7
100
AcDbFace
 10
-375.0
 20
-575.0
 30
0.0
 11
-275.0
 21
-575.0
 31
0.0
 12
-275.0
 22
-675.0
 32
0.0
 13
-375.0
 23
-675.0
 33
0.0
  0
3DFACE
  5
37
100
AcDbEntity
  8
àÍî 
370
               5
  6
Continuous
 62
               7
100
AcDbFace
 10
-375.0
 20
-675.0
 30
0.0
 11
-375.0
 21
-675.0
 31
25.0
 12
-375.0
 22
-575.0
 32
25.0
 13
-375.0
 23
-575.0
 33
0.0
  0
3DFACE
  5
38
100
AcDbEntity
  8
àÍî 
370
               5
  6
Continuous
 62
               7
100
AcDbFace
 10
-275.0
 20
-675.0
 30
0.0
 11
-275.0
 21
-675.0
 31
25.0
 12
-375.0
 22
-675.0
 32
25.0
 13
-375.0
 23
-675.0
 33
0.0
  0
3DFACE
  5
39
100
AcDbEntity
  8
àÍî 
370
               5
  6
Continuous
 62
               7
100
AcDbFace
 10
-275.0
 20
-575.0
 30
0.0
 11
-275.0
 21
-575.0
 31
25.0
 12
-275.0
 22
-675.0
 32
25.0
 13
-275.0
 23
-675.0
 33
0.0
  0
3DFACE
  5
3A
100
AcDbEntity
  8
àÍî 
370
               5
  6
Continuous
 62
               7
100
AcDbFace
 10
-375.0
 20
-575.0
 30
0.0
 11
-375.0
 21
-575.0
 31
25.0
 12
-275.0
 22
-575.0
 32
25.0
 13
-275.0
 23
-575.0
 33
0.0
  0
3DFACE
  5
3B
100
AcDbEntity
  8
àÍî 
370
               5
  6
Continuous
 62
               7
100
AcDbFace
 10
275.0
 20
675.0
 30
25.0
 11
375.0
 21
675.0
 31
25.0
 12
375.0
 22
575.0
 32
25.0
 13
275.0
 23
575.0
 33
25.0
  0
3DFACE
  5
3C
100
AcDbEntity
  8
àÍî 
370
               5
  6
Continuous
 62
               7
100
AcDbFace
 10
275.0
 20
675.0
 30
0.0
 11
375.0
 21
675.0
 31
0.0
 12
375.0
 22
575.0
 32
0.0
 13
275.0
 23
575.0
 33
0.0
  0
3DFACE
  5
3D
100
AcDbEntity
  8
àÍî 
370
               5
  6
Continuous
 62
               7
100
AcDbFace
 10
275.0
 20
575.0
 30
0.0
 11
275.0
 21
575.0
 31
25.0
 12
275.0
 22
675.0
 32
25.0
 13
275.0
 23
675.0
 33
0.0
  0
3DFACE
  5
3E
100
AcDbEntity
  8
àÍî 
370
               5
  6
Continuous
 62
               7
100
AcDbFace
 10
375.0
 20
575.0
 30
0.0
 11
375.0
 21
575.0
 31
25.0
 12
275.0
 22
575.0
 32
25.0
 13
275.0
 23
575.0
 33
0.0
  0
3DFACE
  5
3F
100
AcDbEntity
  8
àÍî 
370
               5
  6
Continuous
 62
               7
100
AcDbFace
 10
375.0
 20
675.0
 30
0.0
 11
375.0
 21
675.0
 31
25.0
 12
375.0
 22
575.0
 32
25.0
 13
375.0
 23
575.0
 33
0.0
  0
3DFACE
  5
40
100
AcDbEntity
  8
àÍî 
370
               5
  6
Continuous
 62
               7
100
AcDbFace
 10
275.0
 20
675.0
 30
0.0
 11
275.0
 21
675.0
 31
25.0
 12
375.0
 22
675.0
 32
25.0
 13
375.0
 23
675.0
 33
0.0
  0
3DFACE
  5
41
100
AcDbEntity
  8
àÍî 
370
               5
  6
Continuous
 62
               7
100
AcDbFace
 10
-375.0
 20
675.0
 30
25.0
 11
-275.0
 21
675.0
 31
25.0
 12
-275.0
 22
575.0
 32
25.0
 13
-375.0
 23
575.0
 33
25.0
  0
3DFACE
  5
42
100
AcDbEntity
  8
àÍî 
370
               5
  6
Continuous
 62
               7
100
AcDbFace
 10
-375.0
 20
675.0
 30
0.0
 11
-275.0
 21
675.0
 31
0.0
 12
-275.0
 22
575.0
 32
0.0
 13
-375.0
 23
575.0
 33
0.0
  0
3DFACE
  5
43
100
AcDbEntity
  8
àÍî 
370
               5
  6
Continuous
 62
               7
100
AcDbFace
 10
-375.0
 20
575.0
 30
0.0
 11
-375.0
 21
575.0
 31
25.0
 12
-375.0
 22
675.0
 32
25.0
 13
-375.0
 23
675.0
 33
0.0
  0
3DFACE
  5
44
100
AcDbEntity
  8
àÍî 
370
               5
  6
Continuous
 62
               7
100
AcDbFace
 10
-275.0
 20
575.0
 30
0.0
 11
-275.0
 21
575.0
 31
25.0
 12
-375.0
 22
575.0
 32
25.0
 13
-375.0
 23
575.0
 33
0.0
  0
3DFACE
  5
45
100
AcDbEntity
  8
àÍî 
370
               5
  6
Continuous
 62
               7
100
AcDbFace
 10
-275.0
 20
675.0
 30
0.0
 11
-275.0
 21
675.0
 31
25.0
 12
-275.0
 22
575.0
 32
25.0
 13
-275.0
 23
575.0
 33
0.0
  0
3DFACE
  5
46
100
AcDbEntity
  8
àÍî 
370
               5
  6
Continuous
 62
               7
100
AcDbFace
 10
-375.0
 20
675.0
 30
0.0
 11
-375.0
 21
675.0
 31
25.0
 12
-275.0
 22
675.0
 32
25.0
 13
-275.0
 23
675.0
 33
0.0
  0
3DFACE
  5
47
100
AcDbEntity
  8
àÍî 
370
               5
  6
Continuous
 62
               7
100
AcDbFace
 10
600.0
 20
-200.0
 30
25.0
 11
700.0
 21
-200.0
 31
25.0
 12
700.0
 22
-300.0
 32
25.0
 13
600.0
 23
-300.0
 33
25.0
  0
3DFACE
  5
48
100
AcDbEntity
  8
àÍî 
370
               5
  6
Continuous
 62
               7
100
AcDbFace
 10
600.0
 20
-200.0
 30
0.0
 11
700.0
 21
-200.0
 31
0.0
 12
700.0
 22
-300.0
 32
0.0
 13
600.0
 23
-300.0
 33
0.0
  0
3DFACE
  5
49
100
AcDbEntity
  8
àÍî 
370
               5
  6
Continuous
 62
               7
100
AcDbFace
 10
600.0
 20
-300.0
 30
0.0
 11
600.0
 21
-300.0
 31
25.0
 12
600.0
 22
-200.0
 32
25.0
 13
600.0
 23
-200.0
 33
0.0
  0
3DFACE
  5
4A
100
AcDbEntity
  8
àÍî 
370
               5
  6
Continuous
 62
               7
100
AcDbFace
 10
700.0
 20
-300.0
 30
0.0
 11
700.0
 21
-300.0
 31
25.0
 12
600.0
 22
-300.0
 32
25.0
 13
600.0
 23
-300.0
 33
0.0
  0
3DFACE
  5
4B
100
AcDbEntity
  8
àÍî 
370
               5
  6
Continuous
 62
               7
100
AcDbFace
 10
700.0
 20
-200.0
 30
0.0
 11
700.0
 21
-200.0
 31
25.0
 12
700.0
 22
-300.0
 32
25.0
 13
700.0
 23
-300.0
 33
0.0
  0
3DFACE
  5
4C
100
AcDbEntity
  8
àÍî 
370
               5
  6
Continuous
 62
               7
100
AcDbFace
 10
600.0
 20
-200.0
 30
0.0
 11
600.0
 21
-200.0
 31
25.0
 12
700.0
 22
-200.0
 32
25.0
 13
700.0
 23
-200.0
 33
0.0
  0
3DFACE
  5
4D
100
AcDbEntity
  8
àÍî 
370
               5
  6
Continuous
 62
               7
100
AcDbFace
 10
600.0
 20
300.0
 30
25.0
 11
700.0
 21
300.0
 31
25.0
 12
700.0
 22
200.0
 32
25.0
 13
600.0
 23
200.0
 33
25.0
  0
3DFACE
  5
4E
100
AcDbEntity
  8
àÍî 
370
               5
  6
Continuous
 62
               7
100
AcDbFace
 10
600.0
 20
300.0
 30
0.0
 11
700.0
 21
300.0
 31
0.0
 12
700.0
 22
200.0
 32
0.0
 13
600.0
 23
200.0
 33
0.0
  0
3DFACE
  5
4F
100
AcDbEntity
  8
àÍî 
370
               5
  6
Continuous
 62
               7
100
AcDbFace
 10
600.0
 20
200.0
 30
0.0
 11
600.0
 21
200.0
 31
25.0
 12
600.0
 22
300.0
 32
25.0
 13
600.0
 23
300.0
 33
0.0
  0
3DFACE
  5
50
100
AcDbEntity
  8
àÍî 
370
               5
  6
Continuous
 62
               7
100
AcDbFace
 10
700.0
 20
200.0
 30
0.0
 11
700.0
 21
200.0
 31
25.0
 12
600.0
 22
200.0
 32
25.0
 13
600.0
 23
200.0
 33
0.0
  0
3DFACE
  5
51
100
AcDbEntity
  8
àÍî 
370
               5
  6
Continuous
 62
               7
100
AcDbFace
 10
700.0
 20
300.0
 30
0.0
 11
700.0
 21
300.0
 31
25.0
 12
700.0
 22
200.0
 32
25.0
 13
700.0
 23
200.0
 33
0.0
  0
3DFACE
  5
52
100
AcDbEntity
  8
àÍî 
370
               5
  6
Continuous
 62
               7
100
AcDbFace
 10
600.0
 20
300.0
 30
0.0
 11
600.0
 21
300.0
 31
25.0
 12
700.0
 22
300.0
 32
25.0
 13
700.0
 23
300.0
 33
0.0
  0
3DFACE
  5
53
100
AcDbEntity
  8
àÍî 
370
               5
  6
Continuous
 62
               7
100
AcDbFace
 10
600.0
 20
50.0
 30
25.0
 11
700.0
 21
50.0
 31
25.0
 12
700.0
 22
-50.0
 32
25.0
 13
600.0
 23
-50.0
 33
25.0
  0
3DFACE
  5
54
100
AcDbEntity
  8
àÍî 
370
               5
  6
Continuous
 62
               7
100
AcDbFace
 10
600.0
 20
50.0
 30
0.0
 11
700.0
 21
50.0
 31
0.0
 12
700.0
 22
-50.0
 32
0.0
 13
600.0
 23
-50.0
 33
0.0
  0
3DFACE
  5
55
100
AcDbEntity
  8
àÍî 
370
               5
  6
Continuous
 62
               7
100
AcDbFace
 10
600.0
 20
-50.0
 30
0.0
 11
600.0
 21
-50.0
 31
25.0
 12
600.0
 22
50.0
 32
25.0
 13
600.0
 23
50.0
 33
0.0
  0
3DFACE
  5
56
100
AcDbEntity
  8
àÍî 
370
               5
  6
Continuous
 62
               7
100
AcDbFace
 10
700.0
 20
-50.0
 30
0.0
 11
700.0
 21
-50.0
 31
25.0
 12
600.0
 22
-50.0
 32
25.0
 13
600.0
 23
-50.0
 33
0.0
  0
3DFACE
  5
57
100
AcDbEntity
  8
àÍî 
370
               5
  6
Continuous
 62
               7
100
AcDbFace
 10
700.0
 20
50.0
 30
0.0
 11
700.0
 21
50.0
 31
25.0
 12
700.0
 22
-50.0
 32
25.0
 13
700.0
 23
-50.0
 33
0.0
  0
3DFACE
  5
58
100
AcDbEntity
  8
àÍî 
370
               5
  6
Continuous
 62
               7
100
AcDbFace
 10
600.0
 20
50.0
 30
0.0
 11
600.0
 21
50.0
 31
25.0
 12
700.0
 22
50.0
 32
25.0
 13
700.0
 23
50.0
 33
0.0
  0
3DFACE
  5
59
100
AcDbEntity
  8
àÍî 
370
               5
  6
Continuous
 62
               7
100
AcDbFace
 10
600.0
 20
-75.0
 30
25.0
 11
700.0
 21
-75.0
 31
25.0
 12
700.0
 22
-175.0
 32
25.0
 13
600.0
 23
-175.0
 33
25.0
  0
3DFACE
  5
5A
100
AcDbEntity
  8
àÍî 
370
               5
  6
Continuous
 62
               7
100
AcDbFace
 10
600.0
 20
-75.0
 30
0.0
 11
700.0
 21
-75.0
 31
0.0
 12
700.0
 22
-175.0
 32
0.0
 13
600.0
 23
-175.0
 33
0.0
  0
3DFACE
  5
5B
100
AcDbEntity
  8
àÍî 
370
               5
  6
Continuous
 62
               7
100
AcDbFace
 10
600.0
 20
-175.0
 30
0.0
 11
600.0
 21
-175.0
 31
25.0
 12
600.0
 22
-75.0
 32
25.0
 13
600.0
 23
-75.0
 33
0.0
  0
3DFACE
  5
5C
100
AcDbEntity
  8
àÍî 
370
               5
  6
Continuous
 62
               7
100
AcDbFace
 10
700.0
 20
-175.0
 30
0.0
 11
700.0
 21
-175.0
 31
25.0
 12
600.0
 22
-175.0
 32
25.0
 13
600.0
 23
-175.0
 33
0.0
  0
3DFACE
  5
5D
100
AcDbEntity
  8
àÍî 
370
               5
  6
Continuous
 62
               7
100
AcDbFace
 10
700.0
 20
-75.0
 30
0.0
 11
700.0
 21
-75.0
 31
25.0
 12
700.0
 22
-175.0
 32
25.0
 13
700.0
 23
-175.0
 33
0.0
  0
3DFACE
  5
5E
100
AcDbEntity
  8
àÍî 
370
               5
  6
Continuous
 62
               7
100
AcDbFace
 10
600.0
 20
-75.0
 30
0.0
 11
600.0
 21
-75.0
 31
25.0
 12
700.0
 22
-75.0
 32
25.0
 13
700.0
 23
-75.0
 33
0.0
  0
3DFACE
  5
5F
100
AcDbEntity
  8
àÍî 
370
               5
  6
Continuous
 62
               7
100
AcDbFace
 10
600.0
 20
175.0
 30
25.0
 11
700.0
 21
175.0
 31
25.0
 12
700.0
 22
75.0
 32
25.0
 13
600.0
 23
75.0
 33
25.0
  0
3DFACE
  5
60
100
AcDbEntity
  8
àÍî 
370
               5
  6
Continuous
 62
               7
100
AcDbFace
 10
600.0
 20
175.0
 30
0.0
 11
700.0
 21
175.0
 31
0.0
 12
700.0
 22
75.0
 32
0.0
 13
600.0
 23
75.0
 33
0.0
  0
3DFACE
  5
61
100
AcDbEntity
  8
àÍî 
370
               5
  6
Continuous
 62
               7
100
AcDbFace
 10
600.0
 20
75.0
 30
0.0
 11
600.0
 21
75.0
 31
25.0
 12
600.0
 22
175.0
 32
25.0
 13
600.0
 23
175.0
 33
0.0
  0
3DFACE
  5
62
100
AcDbEntity
  8
àÍî 
370
               5
  6
Continuous
 62
               7
100
AcDbFace
 10
700.0
 20
75.0
 30
0.0
 11
700.0
 21
75.0
 31
25.0
 12
600.0
 22
75.0
 32
25.0
 13
600.0
 23
75.0
 33
0.0
  0
3DFACE
  5
63
100
AcDbEntity
  8
àÍî 
370
               5
  6
Continuous
 62
               7
100
AcDbFace
 10
700.0
 20
175.0
 30
0.0
 11
700.0
 21
175.0
 31
25.0
 12
700.0
 22
75.0
 32
25.0
 13
700.0
 23
75.0
 33
0.0
  0
3DFACE
  5
64
100
AcDbEntity
  8
àÍî 
370
               5
  6
Continuous
 62
               7
100
AcDbFace
 10
600.0
 20
175.0
 30
0.0
 11
600.0
 21
175.0
 31
25.0
 12
700.0
 22
175.0
 32
25.0
 13
700.0
 23
175.0
 33
0.0
  0
3DFACE
  5
65
100
AcDbEntity
  8
àÍî 
370
               5
  6
Continuous
 62
               7
100
AcDbFace
 10
450.0
 20
-450.0
 30
25.0
 11
550.0
 21
-450.0
 31
25.0
 12
550.0
 22
-550.0
 32
25.0
 13
450.0
 23
-550.0
 33
25.0
  0
3DFACE
  5
66
100
AcDbEntity
  8
àÍî 
370
               5
  6
Continuous
 62
               7
100
AcDbFace
 10
450.0
 20
-450.0
 30
0.0
 11
550.0
 21
-450.0
 31
0.0
 12
550.0
 22
-550.0
 32
0.0
 13
450.0
 23
-550.0
 33
0.0
  0
3DFACE
  5
67
100
AcDbEntity
  8
àÍî 
370
               5
  6
Continuous
 62
               7
100
AcDbFace
 10
450.0
 20
-550.0
 30
0.0
 11
450.0
 21
-550.0
 31
25.0
 12
450.0
 22
-450.0
 32
25.0
 13
450.0
 23
-450.0
 33
0.0
  0
3DFACE
  5
68
100
AcDbEntity
  8
àÍî 
370
               5
  6
Continuous
 62
               7
100
AcDbFace
 10
550.0
 20
-550.0
 30
0.0
 11
550.0
 21
-550.0
 31
25.0
 12
450.0
 22
-550.0
 32
25.0
 13
450.0
 23
-550.0
 33
0.0
  0
3DFACE
  5
69
100
AcDbEntity
  8
àÍî 
370
               5
  6
Continuous
 62
               7
100
AcDbFace
 10
550.0
 20
-450.0
 30
0.0
 11
550.0
 21
-450.0
 31
25.0
 12
550.0
 22
-550.0
 32
25.0
 13
550.0
 23
-550.0
 33
0.0
  0
3DFACE
  5
6A
100
AcDbEntity
  8
àÍî 
370
               5
  6
Continuous
 62
               7
100
AcDbFace
 10
450.0
 20
-450.0
 30
0.0
 11
450.0
 21
-450.0
 31
25.0
 12
550.0
 22
-450.0
 32
25.0
 13
550.0
 23
-450.0
 33
0.0
  0
3DFACE
  5
6B
100
AcDbEntity
  8
àÍî 
370
               5
  6
Continuous
 62
               7
100
AcDbFace
 10
450.0
 20
550.0
 30
25.0
 11
550.0
 21
550.0
 31
25.0
 12
550.0
 22
450.0
 32
25.0
 13
450.0
 23
450.0
 33
25.0
  0
3DFACE
  5
6C
100
AcDbEntity
  8
àÍî 
370
               5
  6
Continuous
 62
               7
100
AcDbFace
 10
450.0
 20
550.0
 30
0.0
 11
550.0
 21
550.0
 31
0.0
 12
550.0
 22
450.0
 32
0.0
 13
450.0
 23
450.0
 33
0.0
  0
3DFACE
  5
6D
100
AcDbEntity
  8
àÍî 
370
               5
  6
Continuous
 62
               7
100
AcDbFace
 10
450.0
 20
450.0
 30
0.0
 11
450.0
 21
450.0
 31
25.0
 12
450.0
 22
550.0
 32
25.0
 13
450.0
 23
550.0
 33
0.0
  0
3DFACE
  5
6E
100
AcDbEntity
  8
àÍî 
370
               5
  6
Continuous
 62
               7
100
AcDbFace
 10
550.0
 20
450.0
 30
0.0
 11
550.0
 21
450.0
 31
25.0
 12
450.0
 22
450.0
 32
25.0
 13
450.0
 23
450.0
 33
0.0
  0
3DFACE
  5
6F
100
AcDbEntity
  8
àÍî 
370
               5
  6
Continuous
 62
               7
100
AcDbFace
 10
550.0
 20
550.0
 30
0.0
 11
550.0
 21
550.0
 31
25.0
 12
550.0
 22
450.0
 32
25.0
 13
550.0
 23
450.0
 33
0.0
  0
3DFACE
  5
70
100
AcDbEntity
  8
àÍî 
370
               5
  6
Continuous
 62
               7
100
AcDbFace
 10
450.0
 20
550.0
 30
0.0
 11
450.0
 21
550.0
 31
25.0
 12
550.0
 22
550.0
 32
25.0
 13
550.0
 23
550.0
 33
0.0
  0
3DFACE
  5
71
100
AcDbEntity
  8
àÍî 
370
               5
  6
Continuous
 62
               7
100
AcDbFace
 10
450.0
 20
-325.0
 30
25.0
 11
550.0
 21
-325.0
 31
25.0
 12
550.0
 22
-425.0
 32
25.0
 13
450.0
 23
-425.0
 33
25.0
  0
3DFACE
  5
72
100
AcDbEntity
  8
àÍî 
370
               5
  6
Continuous
 62
               7
100
AcDbFace
 10
450.0
 20
-325.0
 30
0.0
 11
550.0
 21
-325.0
 31
0.0
 12
550.0
 22
-425.0
 32
0.0
 13
450.0
 23
-425.0
 33
0.0
  0
3DFACE
  5
73
100
AcDbEntity
  8
àÍî 
370
               5
  6
Continuous
 62
               7
100
AcDbFace
 10
450.0
 20
-425.0
 30
0.0
 11
450.0
 21
-425.0
 31
25.0
 12
450.0
 22
-325.0
 32
25.0
 13
450.0
 23
-325.0
 33
0.0
  0
3DFACE
  5
74
100
AcDbEntity
  8
àÍî 
370
               5
  6
Continuous
 62
               7
100
AcDbFace
 10
550.0
 20
-425.0
 30
0.0
 11
550.0
 21
-425.0
 31
25.0
 12
450.0
 22
-425.0
 32
25.0
 13
450.0
 23
-425.0
 33
0.0
  0
3DFACE
  5
75
100
AcDbEntity
  8
àÍî 
370
               5
  6
Continuous
 62
               7
100
AcDbFace
 10
550.0
 20
-325.0
 30
0.0
 11
550.0
 21
-325.0
 31
25.0
 12
550.0
 22
-425.0
 32
25.0
 13
550.0
 23
-425.0
 33
0.0
  0
3DFACE
  5
76
100
AcDbEntity
  8
àÍî 
370
               5
  6
Continuous
 62
               7
100
AcDbFace
 10
450.0
 20
-325.0
 30
0.0
 11
450.0
 21
-325.0
 31
25.0
 12
550.0
 22
-325.0
 32
25.0
 13
550.0
 23
-325.0
 33
0.0
  0
3DFACE
  5
77
100
AcDbEntity
  8
àÍî 
370
               5
  6
Continuous
 62
               7
100
AcDbFace
 10
450.0
 20
-200.0
 30
25.0
 11
550.0
 21
-200.0
 31
25.0
 12
550.0
 22
-300.0
 32
25.0
 13
450.0
 23
-300.0
 33
25.0
  0
3DFACE
  5
78
100
AcDbEntity
  8
àÍî 
370
               5
  6
Continuous
 62
               7
100
AcDbFace
 10
450.0
 20
-200.0
 30
0.0
 11
550.0
 21
-200.0
 31
0.0
 12
550.0
 22
-300.0
 32
0.0
 13
450.0
 23
-300.0
 33
0.0
  0
3DFACE
  5
79
100
AcDbEntity
  8
àÍî 
370
               5
  6
Continuous
 62
               7
100
AcDbFace
 10
450.0
 20
-300.0
 30
0.0
 11
450.0
 21
-300.0
 31
25.0
 12
450.0
 22
-200.0
 32
25.0
 13
450.0
 23
-200.0
 33
0.0
  0
3DFACE
  5
7A
100
AcDbEntity
  8
àÍî 
370
               5
  6
Continuous
 62
               7
100
AcDbFace
 10
550.0
 20
-300.0
 30
0.0
 11
550.0
 21
-300.0
 31
25.0
 12
450.0
 22
-300.0
 32
25.0
 13
450.0
 23
-300.0
 33
0.0
  0
3DFACE
  5
7B
100
AcDbEntity
  8
àÍî 
370
               5
  6
Continuous
 62
               7
100
AcDbFace
 10
550.0
 20
-200.0
 30
0.0
 11
550.0
 21
-200.0
 31
25.0
 12
550.0
 22
-300.0
 32
25.0
 13
550.0
 23
-300.0
 33
0.0
  0
3DFACE
  5
7C
100
AcDbEntity
  8
àÍî 
370
               5
  6
Continuous
 62
               7
100
AcDbFace
 10
450.0
 20
-200.0
 30
0.0
 11
450.0
 21
-200.0
 31
25.0
 12
550.0
 22
-200.0
 32
25.0
 13
550.0
 23
-200.0
 33
0.0
  0
3DFACE
  5
7D
100
AcDbEntity
  8
àÍî 
370
               5
  6
Continuous
 62
               7
100
AcDbFace
 10
450.0
 20
425.0
 30
25.0
 11
550.0
 21
425.0
 31
25.0
 12
550.0
 22
325.0
 32
25.0
 13
450.0
 23
325.0
 33
25.0
  0
3DFACE
  5
7E
100
AcDbEntity
  8
àÍî 
370
               5
  6
Continuous
 62
               7
100
AcDbFace
 10
450.0
 20
425.0
 30
0.0
 11
550.0
 21
425.0
 31
0.0
 12
550.0
 22
325.0
 32
0.0
 13
450.0
 23
325.0
 33
0.0
  0
3DFACE
  5
7F
100
AcDbEntity
  8
àÍî 
370
               5
  6
Continuous
 62
               7
100
AcDbFace
 10
450.0
 20
325.0
 30
0.0
 11
450.0
 21
325.0
 31
25.0
 12
450.0
 22
425.0
 32
25.0
 13
450.0
 23
425.0
 33
0.0
  0
3DFACE
  5
80
100
AcDbEntity
  8
àÍî 
370
               5
  6
Continuous
 62
               7
100
AcDbFace
 10
550.0
 20
325.0
 30
0.0
 11
550.0
 21
325.0
 31
25.0
 12
450.0
 22
325.0
 32
25.0
 13
450.0
 23
325.0
 33
0.0
  0
3DFACE
  5
81
100
AcDbEntity
  8
àÍî 
370
               5
  6
Continuous
 62
               7
100
AcDbFace
 10
550.0
 20
425.0
 30
0.0
 11
550.0
 21
425.0
 31
25.0
 12
550.0
 22
325.0
 32
25.0
 13
550.0
 23
325.0
 33
0.0
  0
3DFACE
  5
82
100
AcDbEntity
  8
àÍî 
370
               5
  6
Continuous
 62
               7
100
AcDbFace
 10
450.0
 20
425.0
 30
0.0
 11
450.0
 21
425.0
 31
25.0
 12
550.0
 22
425.0
 32
25.0
 13
550.0
 23
425.0
 33
0.0
  0
3DFACE
  5
83
100
AcDbEntity
  8
àÍî 
370
               5
  6
Continuous
 62
               7
100
AcDbFace
 10
450.0
 20
300.0
 30
25.0
 11
550.0
 21
300.0
 31
25.0
 12
550.0
 22
200.0
 32
25.0
 13
450.0
 23
200.0
 33
25.0
  0
3DFACE
  5
84
100
AcDbEntity
  8
àÍî 
370
               5
  6
Continuous
 62
               7
100
AcDbFace
 10
450.0
 20
300.0
 30
0.0
 11
550.0
 21
300.0
 31
0.0
 12
550.0
 22
200.0
 32
0.0
 13
450.0
 23
200.0
 33
0.0
  0
3DFACE
  5
85
100
AcDbEntity
  8
àÍî 
370
               5
  6
Continuous
 62
               7
100
AcDbFace
 10
450.0
 20
200.0
 30
0.0
 11
450.0
 21
200.0
 31
25.0
 12
450.0
 22
300.0
 32
25.0
 13
450.0
 23
300.0
 33
0.0
  0
3DFACE
  5
86
100
AcDbEntity
  8
àÍî 
370
               5
  6
Continuous
 62
               7
100
AcDbFace
 10
550.0
 20
200.0
 30
0.0
 11
550.0
 21
200.0
 31
25.0
 12
450.0
 22
200.0
 32
25.0
 13
450.0
 23
200.0
 33
0.0
  0
3DFACE
  5
87
100
AcDbEntity
  8
àÍî 
370
               5
  6
Continuous
 62
               7
100
AcDbFace
 10
550.0
 20
300.0
 30
0.0
 11
550.0
 21
300.0
 31
25.0
 12
550.0
 22
200.0
 32
25.0
 13
550.0
 23
200.0
 33
0.0
  0
3DFACE
  5
88
100
AcDbEntity
  8
àÍî 
370
               5
  6
Continuous
 62
               7
100
AcDbFace
 10
450.0
 20
300.0
 30
0.0
 11
450.0
 21
300.0
 31
25.0
 12
550.0
 22
300.0
 32
25.0
 13
550.0
 23
300.0
 33
0.0
  0
3DFACE
  5
89
100
AcDbEntity
  8
àÍî 
370
               5
  6
Continuous
 62
               7
100
AcDbFace
 10
450.0
 20
50.0
 30
25.0
 11
550.0
 21
50.0
 31
25.0
 12
550.0
 22
-50.0
 32
25.0
 13
450.0
 23
-50.0
 33
25.0
  0
3DFACE
  5
8A
100
AcDbEntity
  8
àÍî 
370
               5
  6
Continuous
 62
               7
100
AcDbFace
 10
450.0
 20
50.0
 30
0.0
 11
550.0
 21
50.0
 31
0.0
 12
550.0
 22
-50.0
 32
0.0
 13
450.0
 23
-50.0
 33
0.0
  0
3DFACE
  5
8B
100
AcDbEntity
  8
àÍî 
370
               5
  6
Continuous
 62
               7
100
AcDbFace
 10
450.0
 20
-50.0
 30
0.0
 11
450.0
 21
-50.0
 31
25.0
 12
450.0
 22
50.0
 32
25.0
 13
450.0
 23
50.0
 33
0.0
  0
3DFACE
  5
8C
100
AcDbEntity
  8
àÍî 
370
               5
  6
Continuous
 62
               7
100
AcDbFace
 10
550.0
 20
-50.0
 30
0.0
 11
550.0
 21
-50.0
 31
25.0
 12
450.0
 22
-50.0
 32
25.0
 13
450.0
 23
-50.0
 33
0.0
  0
3DFACE
  5
8D
100
AcDbEntity
  8
àÍî 
370
               5
  6
Continuous
 62
               7
100
AcDbFace
 10
550.0
 20
50.0
 30
0.0
 11
550.0
 21
50.0
 31
25.0
 12
550.0
 22
-50.0
 32
25.0
 13
550.0
 23
-50.0
 33
0.0
  0
3DFACE
  5
8E
100
AcDbEntity
  8
àÍî 
370
               5
  6
Continuous
 62
               7
100
AcDbFace
 10
450.0
 20
50.0
 30
0.0
 11
450.0
 21
50.0
 31
25.0
 12
550.0
 22
50.0
 32
25.0
 13
550.0
 23
50.0
 33
0.0
  0
3DFACE
  5
8F
100
AcDbEntity
  8
àÍî 
370
               5
  6
Continuous
 62
               7
100
AcDbFace
 10
450.0
 20
-75.0
 30
25.0
 11
550.0
 21
-75.0
 31
25.0
 12
550.0
 22
-175.0
 32
25.0
 13
450.0
 23
-175.0
 33
25.0
  0
3DFACE
  5
90
100
AcDbEntity
  8
àÍî 
370
               5
  6
Continuous
 62
               7
100
AcDbFace
 10
450.0
 20
-75.0
 30
0.0
 11
550.0
 21
-75.0
 31
0.0
 12
550.0
 22
-175.0
 32
0.0
 13
450.0
 23
-175.0
 33
0.0
  0
3DFACE
  5
91
100
AcDbEntity
  8
àÍî 
370
               5
  6
Continuous
 62
               7
100
AcDbFace
 10
450.0
 20
-175.0
 30
0.0
 11
450.0
 21
-175.0
 31
25.0
 12
450.0
 22
-75.0
 32
25.0
 13
450.0
 23
-75.0
 33
0.0
  0
3DFACE
  5
92
100
AcDbEntity
  8
àÍî 
370
               5
  6
Continuous
 62
               7
100
AcDbFace
 10
550.0
 20
-175.0
 30
0.0
 11
550.0
 21
-175.0
 31
25.0
 12
450.0
 22
-175.0
 32
25.0
 13
450.0
 23
-175.0
 33
0.0
  0
3DFACE
  5
93
100
AcDbEntity
  8
àÍî 
370
               5
  6
Continuous
 62
               7
100
AcDbFace
 10
550.0
 20
-75.0
 30
0.0
 11
550.0
 21
-75.0
 31
25.0
 12
550.0
 22
-175.0
 32
25.0
 13
550.0
 23
-175.0
 33
0.0
  0
3DFACE
  5
94
100
AcDbEntity
  8
àÍî 
370
               5
  6
Continuous
 62
               7
100
AcDbFace
 10
450.0
 20
-75.0
 30
0.0
 11
450.0
 21
-75.0
 31
25.0
 12
550.0
 22
-75.0
 32
25.0
 13
550.0
 23
-75.0
 33
0.0
  0
3DFACE
  5
95
100
AcDbEntity
  8
àÍî 
370
               5
  6
Continuous
 62
               7
100
AcDbFace
 10
450.0
 20
175.0
 30
25.0
 11
550.0
 21
175.0
 31
25.0
 12
550.0
 22
75.0
 32
25.0
 13
450.0
 23
75.0
 33
25.0
  0
3DFACE
  5
96
100
AcDbEntity
  8
àÍî 
370
               5
  6
Continuous
 62
               7
100
AcDbFace
 10
450.0
 20
175.0
 30
0.0
 11
550.0
 21
175.0
 31
0.0
 12
550.0
 22
75.0
 32
0.0
 13
450.0
 23
75.0
 33
0.0
  0
3DFACE
  5
97
100
AcDbEntity
  8
àÍî 
370
               5
  6
Continuous
 62
               7
100
AcDbFace
 10
450.0
 20
75.0
 30
0.0
 11
450.0
 21
75.0
 31
25.0
 12
450.0
 22
175.0
 32
25.0
 13
450.0
 23
175.0
 33
0.0
  0
3DFACE
  5
98
100
AcDbEntity
  8
àÍî 
370
               5
  6
Continuous
 62
               7
100
AcDbFace
 10
550.0
 20
75.0
 30
0.0
 11
550.0
 21
75.0
 31
25.0
 12
450.0
 22
75.0
 32
25.0
 13
450.0
 23
75.0
 33
0.0
  0
3DFACE
  5
99
100
AcDbEntity
  8
àÍî 
370
               5
  6
Continuous
 62
               7
100
AcDbFace
 10
550.0
 20
175.0
 30
0.0
 11
550.0
 21
175.0
 31
25.0
 12
550.0
 22
75.0
 32
25.0
 13
550.0
 23
75.0
 33
0.0
  0
3DFACE
  5
9A
100
AcDbEntity
  8
àÍî 
370
               5
  6
Continuous
 62
               7
100
AcDbFace
 10
450.0
 20
175.0
 30
0.0
 11
450.0
 21
175.0
 31
25.0
 12
550.0
 22
175.0
 32
25.0
 13
550.0
 23
175.0
 33
0.0
  0
3DFACE
  5
9B
100
AcDbEntity
  8
àÍî 
370
               5
  6
Continuous
 62
               7
100
AcDbFace
 10
450.0
 20
-450.0
 30
25.0
 11
550.0
 21
-450.0
 31
25.0
 12
550.0
 22
-550.0
 32
25.0
 13
450.0
 23
-550.0
 33
25.0
  0
3DFACE
  5
9C
100
AcDbEntity
  8
àÍî 
370
               5
  6
Continuous
 62
               7
100
AcDbFace
 10
450.0
 20
-450.0
 30
0.0
 11
550.0
 21
-450.0
 31
0.0
 12
550.0
 22
-550.0
 32
0.0
 13
450.0
 23
-550.0
 33
0.0
  0
3DFACE
  5
9D
100
AcDbEntity
  8
àÍî 
370
               5
  6
Continuous
 62
               7
100
AcDbFace
 10
450.0
 20
-550.0
 30
0.0
 11
450.0
 21
-550.0
 31
25.0
 12
450.0
 22
-450.0
 32
25.0
 13
450.0
 23
-450.0
 33
0.0
  0
3DFACE
  5
9E
100
AcDbEntity
  8
àÍî 
370
               5
  6
Continuous
 62
               7
100
AcDbFace
 10
550.0
 20
-550.0
 30
0.0
 11
550.0
 21
-550.0
 31
25.0
 12
450.0
 22
-550.0
 32
25.0
 13
450.0
 23
-550.0
 33
0.0
  0
3DFACE
  5
9F
100
AcDbEntity
  8
àÍî 
370
               5
  6
Continuous
 62
               7
100
AcDbFace
 10
550.0
 20
-450.0
 30
0.0
 11
550.0
 21
-450.0
 31
25.0
 12
550.0
 22
-550.0
 32
25.0
 13
550.0
 23
-550.0
 33
0.0
  0
3DFACE
  5
A0
100
AcDbEntity
  8
àÍî 
370
               5
  6
Continuous
 62
               7
100
AcDbFace
 10
450.0
 20
-450.0
 30
0.0
 11
450.0
 21
-450.0
 31
25.0
 12
550.0
 22
-450.0
 32
25.0
 13
550.0
 23
-450.0
 33
0.0
  0
3DFACE
  5
A1
100
AcDbEntity
  8
àÍî 
370
               5
  6
Continuous
 62
               7
100
AcDbFace
 10
450.0
 20
-325.0
 30
25.0
 11
550.0
 21
-325.0
 31
25.0
 12
550.0
 22
-425.0
 32
25.0
 13
450.0
 23
-425.0
 33
25.0
  0
3DFACE
  5
A2
100
AcDbEntity
  8
àÍî 
370
               5
  6
Continuous
 62
               7
100
AcDbFace
 10
450.0
 20
-325.0
 30
0.0
 11
550.0
 21
-325.0
 31
0.0
 12
550.0
 22
-425.0
 32
0.0
 13
450.0
 23
-425.0
 33
0.0
  0
3DFACE
  5
A3
100
AcDbEntity
  8
àÍî 
370
               5
  6
Continuous
 62
               7
100
AcDbFace
 10
450.0
 20
-425.0
 30
0.0
 11
450.0
 21
-425.0
 31
25.0
 12
450.0
 22
-325.0
 32
25.0
 13
450.0
 23
-325.0
 33
0.0
  0
3DFACE
  5
A4
100
AcDbEntity
  8
àÍî 
370
               5
  6
Continuous
 62
               7
100
AcDbFace
 10
550.0
 20
-425.0
 30
0.0
 11
550.0
 21
-425.0
 31
25.0
 12
450.0
 22
-425.0
 32
25.0
 13
450.0
 23
-425.0
 33
0.0
  0
3DFACE
  5
A5
100
AcDbEntity
  8
àÍî 
370
               5
  6
Continuous
 62
               7
100
AcDbFace
 10
550.0
 20
-325.0
 30
0.0
 11
550.0
 21
-325.0
 31
25.0
 12
550.0
 22
-425.0
 32
25.0
 13
550.0
 23
-425.0
 33
0.0
  0
3DFACE
  5
A6
100
AcDbEntity
  8
àÍî 
370
               5
  6
Continuous
 62
               7
100
AcDbFace
 10
450.0
 20
-325.0
 30
0.0
 11
450.0
 21
-325.0
 31
25.0
 12
550.0
 22
-325.0
 32
25.0
 13
550.0
 23
-325.0
 33
0.0
  0
3DFACE
  5
A7
100
AcDbEntity
  8
àÍî 
370
               5
  6
Continuous
 62
               7
100
AcDbFace
 10
450.0
 20
550.0
 30
25.0
 11
550.0
 21
550.0
 31
25.0
 12
550.0
 22
450.0
 32
25.0
 13
450.0
 23
450.0
 33
25.0
  0
3DFACE
  5
A8
100
AcDbEntity
  8
àÍî 
370
               5
  6
Continuous
 62
               7
100
AcDbFace
 10
450.0
 20
550.0
 30
0.0
 11
550.0
 21
550.0
 31
0.0
 12
550.0
 22
450.0
 32
0.0
 13
450.0
 23
450.0
 33
0.0
  0
3DFACE
  5
A9
100
AcDbEntity
  8
àÍî 
370
               5
  6
Continuous
 62
               7
100
AcDbFace
 10
450.0
 20
450.0
 30
0.0
 11
450.0
 21
450.0
 31
25.0
 12
450.0
 22
550.0
 32
25.0
 13
450.0
 23
550.0
 33
0.0
  0
3DFACE
  5
AA
100
AcDbEntity
  8
àÍî 
370
               5
  6
Continuous
 62
               7
100
AcDbFace
 10
550.0
 20
450.0
 30
0.0
 11
550.0
 21
450.0
 31
25.0
 12
450.0
 22
450.0
 32
25.0
 13
450.0
 23
450.0
 33
0.0
  0
3DFACE
  5
AB
100
AcDbEntity
  8
àÍî 
370
               5
  6
Continuous
 62
               7
100
AcDbFace
 10
550.0
 20
550.0
 30
0.0
 11
550.0
 21
550.0
 31
25.0
 12
550.0
 22
450.0
 32
25.0
 13
550.0
 23
450.0
 33
0.0
  0
3DFACE
  5
AC
100
AcDbEntity
  8
àÍî 
370
               5
  6
Continuous
 62
               7
100
AcDbFace
 10
450.0
 20
550.0
 30
0.0
 11
450.0
 21
550.0
 31
25.0
 12
550.0
 22
550.0
 32
25.0
 13
550.0
 23
550.0
 33
0.0
  0
3DFACE
  5
AD
100
AcDbEntity
  8
àÍî 
370
               5
  6
Continuous
 62
               7
100
AcDbFace
 10
450.0
 20
-325.0
 30
25.0
 11
550.0
 21
-325.0
 31
25.0
 12
550.0
 22
-425.0
 32
25.0
 13
450.0
 23
-425.0
 33
25.0
  0
3DFACE
  5
AE
100
AcDbEntity
  8
àÍî 
370
               5
  6
Continuous
 62
               7
100
AcDbFace
 10
450.0
 20
-325.0
 30
0.0
 11
550.0
 21
-325.0
 31
0.0
 12
550.0
 22
-425.0
 32
0.0
 13
450.0
 23
-425.0
 33
0.0
  0
3DFACE
  5
AF
100
AcDbEntity
  8
àÍî 
370
               5
  6
Continuous
 62
               7
100
AcDbFace
 10
450.0
 20
-425.0
 30
0.0
 11
450.0
 21
-425.0
 31
25.0
 12
450.0
 22
-325.0
 32
25.0
 13
450.0
 23
-325.0
 33
0.0
  0
3DFACE
  5
B0
100
AcDbEntity
  8
àÍî 
370
               5
  6
Continuous
 62
               7
100
AcDbFace
 10
550.0
 20
-425.0
 30
0.0
 11
550.0
 21
-425.0
 31
25.0
 12
450.0
 22
-425.0
 32
25.0
 13
450.0
 23
-425.0
 33
0.0
  0
3DFACE
  5
B1
100
AcDbEntity
  8
àÍî 
370
               5
  6
Continuous
 62
               7
100
AcDbFace
 10
550.0
 20
-325.0
 30
0.0
 11
550.0
 21
-325.0
 31
25.0
 12
550.0
 22
-425.0
 32
25.0
 13
550.0
 23
-425.0
 33
0.0
  0
3DFACE
  5
B2
100
AcDbEntity
  8
àÍî 
370
               5
  6
Continuous
 62
               7
100
AcDbFace
 10
450.0
 20
-325.0
 30
0.0
 11
450.0
 21
-325.0
 31
25.0
 12
550.0
 22
-325.0
 32
25.0
 13
550.0
 23
-325.0
 33
0.0
  0
3DFACE
  5
B3
100
AcDbEntity
  8
àÍî 
370
               5
  6
Continuous
 62
               7
100
AcDbFace
 10
450.0
 20
-200.0
 30
25.0
 11
550.0
 21
-200.0
 31
25.0
 12
550.0
 22
-300.0
 32
25.0
 13
450.0
 23
-300.0
 33
25.0
  0
3DFACE
  5
B4
100
AcDbEntity
  8
àÍî 
370
               5
  6
Continuous
 62
               7
100
AcDbFace
 10
450.0
 20
-200.0
 30
0.0
 11
550.0
 21
-200.0
 31
0.0
 12
550.0
 22
-300.0
 32
0.0
 13
450.0
 23
-300.0
 33
0.0
  0
3DFACE
  5
B5
100
AcDbEntity
  8
àÍî 
370
               5
  6
Continuous
 62
               7
100
AcDbFace
 10
450.0
 20
-300.0
 30
0.0
 11
450.0
 21
-300.0
 31
25.0
 12
450.0
 22
-200.0
 32
25.0
 13
450.0
 23
-200.0
 33
0.0
  0
3DFACE
  5
B6
100
AcDbEntity
  8
àÍî 
370
               5
  6
Continuous
 62
               7
100
AcDbFace
 10
550.0
 20
-300.0
 30
0.0
 11
550.0
 21
-300.0
 31
25.0
 12
450.0
 22
-300.0
 32
25.0
 13
450.0
 23
-300.0
 33
0.0
  0
3DFACE
  5
B7
100
AcDbEntity
  8
àÍî 
370
               5
  6
Continuous
 62
               7
100
AcDbFace
 10
550.0
 20
-200.0
 30
0.0
 11
550.0
 21
-200.0
 31
25.0
 12
550.0
 22
-300.0
 32
25.0
 13
550.0
 23
-300.0
 33
0.0
  0
3DFACE
  5
B8
100
AcDbEntity
  8
àÍî 
370
               5
  6
Continuous
 62
               7
100
AcDbFace
 10
450.0
 20
-200.0
 30
0.0
 11
450.0
 21
-200.0
 31
25.0
 12
550.0
 22
-200.0
 32
25.0
 13
550.0
 23
-200.0
 33
0.0
  0
3DFACE
  5
B9
100
AcDbEntity
  8
àÍî 
370
               5
  6
Continuous
 62
               7
100
AcDbFace
 10
450.0
 20
425.0
 30
25.0
 11
550.0
 21
425.0
 31
25.0
 12
550.0
 22
325.0
 32
25.0
 13
450.0
 23
325.0
 33
25.0
  0
3DFACE
  5
BA
100
AcDbEntity
  8
àÍî 
370
               5
  6
Continuous
 62
               7
100
AcDbFace
 10
450.0
 20
425.0
 30
0.0
 11
550.0
 21
425.0
 31
0.0
 12
550.0
 22
325.0
 32
0.0
 13
450.0
 23
325.0
 33
0.0
  0
3DFACE
  5
BB
100
AcDbEntity
  8
àÍî 
370
               5
  6
Continuous
 62
               7
100
AcDbFace
 10
450.0
 20
325.0
 30
0.0
 11
450.0
 21
325.0
 31
25.0
 12
450.0
 22
425.0
 32
25.0
 13
450.0
 23
425.0
 33
0.0
  0
3DFACE
  5
BC
100
AcDbEntity
  8
àÍî 
370
               5
  6
Continuous
 62
               7
100
AcDbFace
 10
550.0
 20
325.0
 30
0.0
 11
550.0
 21
325.0
 31
25.0
 12
450.0
 22
325.0
 32
25.0
 13
450.0
 23
325.0
 33
0.0
  0
3DFACE
  5
BD
100
AcDbEntity
  8
àÍî 
370
               5
  6
Continuous
 62
               7
100
AcDbFace
 10
550.0
 20
425.0
 30
0.0
 11
550.0
 21
425.0
 31
25.0
 12
550.0
 22
325.0
 32
25.0
 13
550.0
 23
325.0
 33
0.0
  0
3DFACE
  5
BE
100
AcDbEntity
  8
àÍî 
370
               5
  6
Continuous
 62
               7
100
AcDbFace
 10
450.0
 20
425.0
 30
0.0
 11
450.0
 21
425.0
 31
25.0
 12
550.0
 22
425.0
 32
25.0
 13
550.0
 23
425.0
 33
0.0
  0
3DFACE
  5
BF
100
AcDbEntity
  8
àÍî 
370
               5
  6
Continuous
 62
               7
100
AcDbFace
 10
450.0
 20
300.0
 30
25.0
 11
550.0
 21
300.0
 31
25.0
 12
550.0
 22
200.0
 32
25.0
 13
450.0
 23
200.0
 33
25.0
  0
3DFACE
  5
C0
100
AcDbEntity
  8
àÍî 
370
               5
  6
Continuous
 62
               7
100
AcDbFace
 10
450.0
 20
300.0
 30
0.0
 11
550.0
 21
300.0
 31
0.0
 12
550.0
 22
200.0
 32
0.0
 13
450.0
 23
200.0
 33
0.0
  0
3DFACE
  5
C1
100
AcDbEntity
  8
àÍî 
370
               5
  6
Continuous
 62
               7
100
AcDbFace
 10
450.0
 20
200.0
 30
0.0
 11
450.0
 21
200.0
 31
25.0
 12
450.0
 22
300.0
 32
25.0
 13
450.0
 23
300.0
 33
0.0
  0
3DFACE
  5
C2
100
AcDbEntity
  8
àÍî 
370
               5
  6
Continuous
 62
               7
100
AcDbFace
 10
550.0
 20
200.0
 30
0.0
 11
550.0
 21
200.0
 31
25.0
 12
450.0
 22
200.0
 32
25.0
 13
450.0
 23
200.0
 33
0.0
  0
3DFACE
  5
C3
100
AcDbEntity
  8
àÍî 
370
               5
  6
Continuous
 62
               7
100
AcDbFace
 10
550.0
 20
300.0
 30
0.0
 11
550.0
 21
300.0
 31
25.0
 12
550.0
 22
200.0
 32
25.0
 13
550.0
 23
200.0
 33
0.0
  0
3DFACE
  5
C4
100
AcDbEntity
  8
àÍî 
370
               5
  6
Continuous
 62
               7
100
AcDbFace
 10
450.0
 20
300.0
 30
0.0
 11
450.0
 21
300.0
 31
25.0
 12
550.0
 22
300.0
 32
25.0
 13
550.0
 23
300.0
 33
0.0
  0
3DFACE
  5
C5
100
AcDbEntity
  8
àÍî 
370
               5
  6
Continuous
 62
               7
100
AcDbFace
 10
450.0
 20
50.0
 30
25.0
 11
550.0
 21
50.0
 31
25.0
 12
550.0
 22
-50.0
 32
25.0
 13
450.0
 23
-50.0
 33
25.0
  0
3DFACE
  5
C6
100
AcDbEntity
  8
àÍî 
370
               5
  6
Continuous
 62
               7
100
AcDbFace
 10
450.0
 20
50.0
 30
0.0
 11
550.0
 21
50.0
 31
0.0
 12
550.0
 22
-50.0
 32
0.0
 13
450.0
 23
-50.0
 33
0.0
  0
3DFACE
  5
C7
100
AcDbEntity
  8
àÍî 
370
               5
  6
Continuous
 62
               7
100
AcDbFace
 10
450.0
 20
-50.0
 30
0.0
 11
450.0
 21
-50.0
 31
25.0
 12
450.0
 22
50.0
 32
25.0
 13
450.0
 23
50.0
 33
0.0
  0
3DFACE
  5
C8
100
AcDbEntity
  8
àÍî 
370
               5
  6
Continuous
 62
               7
100
AcDbFace
 10
550.0
 20
-50.0
 30
0.0
 11
550.0
 21
-50.0
 31
25.0
 12
450.0
 22
-50.0
 32
25.0
 13
450.0
 23
-50.0
 33
0.0
  0
3DFACE
  5
C9
100
AcDbEntity
  8
àÍî 
370
               5
  6
Continuous
 62
               7
100
AcDbFace
 10
550.0
 20
50.0
 30
0.0
 11
550.0
 21
50.0
 31
25.0
 12
550.0
 22
-50.0
 32
25.0
 13
550.0
 23
-50.0
 33
0.0
  0
3DFACE
  5
CA
100
AcDbEntity
  8
àÍî 
370
               5
  6
Continuous
 62
               7
100
AcDbFace
 10
450.0
 20
50.0
 30
0.0
 11
450.0
 21
50.0
 31
25.0
 12
550.0
 22
50.0
 32
25.0
 13
550.0
 23
50.0
 33
0.0
  0
3DFACE
  5
CB
100
AcDbEntity
  8
àÍî 
370
               5
  6
Continuous
 62
               7
100
AcDbFace
 10
450.0
 20
-75.0
 30
25.0
 11
550.0
 21
-75.0
 31
25.0
 12
550.0
 22
-175.0
 32
25.0
 13
450.0
 23
-175.0
 33
25.0
  0
3DFACE
  5
CC
100
AcDbEntity
  8
àÍî 
370
               5
  6
Continuous
 62
               7
100
AcDbFace
 10
450.0
 20
-75.0
 30
0.0
 11
550.0
 21
-75.0
 31
0.0
 12
550.0
 22
-175.0
 32
0.0
 13
450.0
 23
-175.0
 33
0.0
  0
3DFACE
  5
CD
100
AcDbEntity
  8
àÍî 
370
               5
  6
Continuous
 62
               7
100
AcDbFace
 10
450.0
 20
-175.0
 30
0.0
 11
450.0
 21
-175.0
 31
25.0
 12
450.0
 22
-75.0
 32
25.0
 13
450.0
 23
-75.0
 33
0.0
  0
3DFACE
  5
CE
100
AcDbEntity
  8
àÍî 
370
               5
  6
Continuous
 62
               7
100
AcDbFace
 10
550.0
 20
-175.0
 30
0.0
 11
550.0
 21
-175.0
 31
25.0
 12
450.0
 22
-175.0
 32
25.0
 13
450.0
 23
-175.0
 33
0.0
  0
3DFACE
  5
CF
100
AcDbEntity
  8
àÍî 
370
               5
  6
Continuous
 62
               7
100
AcDbFace
 10
550.0
 20
-75.0
 30
0.0
 11
550.0
 21
-75.0
 31
25.0
 12
550.0
 22
-175.0
 32
25.0
 13
550.0
 23
-175.0
 33
0.0
  0
3DFACE
  5
D0
100
AcDbEntity
  8
àÍî 
370
               5
  6
Continuous
 62
               7
100
AcDbFace
 10
450.0
 20
-75.0
 30
0.0
 11
450.0
 21
-75.0
 31
25.0
 12
550.0
 22
-75.0
 32
25.0
 13
550.0
 23
-75.0
 33
0.0
  0
3DFACE
  5
D1
100
AcDbEntity
  8
àÍî 
370
               5
  6
Continuous
 62
               7
100
AcDbFace
 10
450.0
 20
175.0
 30
25.0
 11
550.0
 21
175.0
 31
25.0
 12
550.0
 22
75.0
 32
25.0
 13
450.0
 23
75.0
 33
25.0
  0
3DFACE
  5
D2
100
AcDbEntity
  8
àÍî 
370
               5
  6
Continuous
 62
               7
100
AcDbFace
 10
450.0
 20
175.0
 30
0.0
 11
550.0
 21
175.0
 31
0.0
 12
550.0
 22
75.0
 32
0.0
 13
450.0
 23
75.0
 33
0.0
  0
3DFACE
  5
D3
100
AcDbEntity
  8
àÍî 
370
               5
  6
Continuous
 62
               7
100
AcDbFace
 10
450.0
 20
75.0
 30
0.0
 11
450.0
 21
75.0
 31
25.0
 12
450.0
 22
175.0
 32
25.0
 13
450.0
 23
175.0
 33
0.0
  0
3DFACE
  5
D4
100
AcDbEntity
  8
àÍî 
370
               5
  6
Continuous
 62
               7
100
AcDbFace
 10
550.0
 20
75.0
 30
0.0
 11
550.0
 21
75.0
 31
25.0
 12
450.0
 22
75.0
 32
25.0
 13
450.0
 23
75.0
 33
0.0
  0
3DFACE
  5
D5
100
AcDbEntity
  8
àÍî 
370
               5
  6
Continuous
 62
               7
100
AcDbFace
 10
550.0
 20
175.0
 30
0.0
 11
550.0
 21
175.0
 31
25.0
 12
550.0
 22
75.0
 32
25.0
 13
550.0
 23
75.0
 33
0.0
  0
3DFACE
  5
D6
100
AcDbEntity
  8
àÍî 
370
               5
  6
Continuous
 62
               7
100
AcDbFace
 10
450.0
 20
175.0
 30
0.0
 11
450.0
 21
175.0
 31
25.0
 12
550.0
 22
175.0
 32
25.0
 13
550.0
 23
175.0
 33
0.0
  0
3DFACE
  5
D7
100
AcDbEntity
  8
àÍî 
370
               5
  6
Continuous
 62
               7
100
AcDbFace
 10
275.0
 20
-450.0
 30
25.0
 11
375.0
 21
-450.0
 31
25.0
 12
375.0
 22
-550.0
 32
25.0
 13
275.0
 23
-550.0
 33
25.0
  0
3DFACE
  5
D8
100
AcDbEntity
  8
àÍî 
370
               5
  6
Continuous
 62
               7
100
AcDbFace
 10
275.0
 20
-450.0
 30
0.0
 11
375.0
 21
-450.0
 31
0.0
 12
375.0
 22
-550.0
 32
0.0
 13
275.0
 23
-550.0
 33
0.0
  0
3DFACE
  5
D9
100
AcDbEntity
  8
àÍî 
370
               5
  6
Continuous
 62
               7
100
AcDbFace
 10
275.0
 20
-550.0
 30
0.0
 11
275.0
 21
-550.0
 31
25.0
 12
275.0
 22
-450.0
 32
25.0
 13
275.0
 23
-450.0
 33
0.0
  0
3DFACE
  5
DA
100
AcDbEntity
  8
àÍî 
370
               5
  6
Continuous
 62
               7
100
AcDbFace
 10
375.0
 20
-550.0
 30
0.0
 11
375.0
 21
-550.0
 31
25.0
 12
275.0
 22
-550.0
 32
25.0
 13
275.0
 23
-550.0
 33
0.0
  0
3DFACE
  5
DB
100
AcDbEntity
  8
àÍî 
370
               5
  6
Continuous
 62
               7
100
AcDbFace
 10
375.0
 20
-450.0
 30
0.0
 11
375.0
 21
-450.0
 31
25.0
 12
375.0
 22
-550.0
 32
25.0
 13
375.0
 23
-550.0
 33
0.0
  0
3DFACE
  5
DC
100
AcDbEntity
  8
àÍî 
370
               5
  6
Continuous
 62
               7
100
AcDbFace
 10
275.0
 20
-450.0
 30
0.0
 11
275.0
 21
-450.0
 31
25.0
 12
375.0
 22
-450.0
 32
25.0
 13
375.0
 23
-450.0
 33
0.0
  0
3DFACE
  5
DD
100
AcDbEntity
  8
àÍî 
370
               5
  6
Continuous
 62
               7
100
AcDbFace
 10
275.0
 20
-325.0
 30
25.0
 11
375.0
 21
-325.0
 31
25.0
 12
375.0
 22
-425.0
 32
25.0
 13
275.0
 23
-425.0
 33
25.0
  0
3DFACE
  5
DE
100
AcDbEntity
  8
àÍî 
370
               5
  6
Continuous
 62
               7
100
AcDbFace
 10
275.0
 20
-325.0
 30
0.0
 11
375.0
 21
-325.0
 31
0.0
 12
375.0
 22
-425.0
 32
0.0
 13
275.0
 23
-425.0
 33
0.0
  0
3DFACE
  5
DF
100
AcDbEntity
  8
àÍî 
370
               5
  6
Continuous
 62
               7
100
AcDbFace
 10
275.0
 20
-425.0
 30
0.0
 11
275.0
 21
-425.0
 31
25.0
 12
275.0
 22
-325.0
 32
25.0
 13
275.0
 23
-325.0
 33
0.0
  0
3DFACE
  5
E0
100
AcDbEntity
  8
àÍî 
370
               5
  6
Continuous
 62
               7
100
AcDbFace
 10
375.0
 20
-425.0
 30
0.0
 11
375.0
 21
-425.0
 31
25.0
 12
275.0
 22
-425.0
 32
25.0
 13
275.0
 23
-425.0
 33
0.0
  0
3DFACE
  5
E1
100
AcDbEntity
  8
àÍî 
370
               5
  6
Continuous
 62
               7
100
AcDbFace
 10
375.0
 20
-325.0
 30
0.0
 11
375.0
 21
-325.0
 31
25.0
 12
375.0
 22
-425.0
 32
25.0
 13
375.0
 23
-425.0
 33
0.0
  0
3DFACE
  5
E2
100
AcDbEntity
  8
àÍî 
370
               5
  6
Continuous
 62
               7
100
AcDbFace
 10
275.0
 20
-325.0
 30
0.0
 11
275.0
 21
-325.0
 31
25.0
 12
375.0
 22
-325.0
 32
25.0
 13
375.0
 23
-325.0
 33
0.0
  0
3DFACE
  5
E3
100
AcDbEntity
  8
àÍî 
370
               5
  6
Continuous
 62
               7
100
AcDbFace
 10
275.0
 20
550.0
 30
25.0
 11
375.0
 21
550.0
 31
25.0
 12
375.0
 22
450.0
 32
25.0
 13
275.0
 23
450.0
 33
25.0
  0
3DFACE
  5
E4
100
AcDbEntity
  8
àÍî 
370
               5
  6
Continuous
 62
               7
100
AcDbFace
 10
275.0
 20
550.0
 30
0.0
 11
375.0
 21
550.0
 31
0.0
 12
375.0
 22
450.0
 32
0.0
 13
275.0
 23
450.0
 33
0.0
  0
3DFACE
  5
E5
100
AcDbEntity
  8
àÍî 
370
               5
  6
Continuous
 62
               7
100
AcDbFace
 10
275.0
 20
450.0
 30
0.0
 11
275.0
 21
450.0
 31
25.0
 12
275.0
 22
550.0
 32
25.0
 13
275.0
 23
550.0
 33
0.0
  0
3DFACE
  5
E6
100
AcDbEntity
  8
àÍî 
370
               5
  6
Continuous
 62
               7
100
AcDbFace
 10
375.0
 20
450.0
 30
0.0
 11
375.0
 21
450.0
 31
25.0
 12
275.0
 22
450.0
 32
25.0
 13
275.0
 23
450.0
 33
0.0
  0
3DFACE
  5
E7
100
AcDbEntity
  8
àÍî 
370
               5
  6
Continuous
 62
               7
100
AcDbFace
 10
375.0
 20
550.0
 30
0.0
 11
375.0
 21
550.0
 31
25.0
 12
375.0
 22
450.0
 32
25.0
 13
375.0
 23
450.0
 33
0.0
  0
3DFACE
  5
E8
100
AcDbEntity
  8
àÍî 
370
               5
  6
Continuous
 62
               7
100
AcDbFace
 10
275.0
 20
550.0
 30
0.0
 11
275.0
 21
550.0
 31
25.0
 12
375.0
 22
550.0
 32
25.0
 13
375.0
 23
550.0
 33
0.0
  0
3DFACE
  5
E9
100
AcDbEntity
  8
àÍî 
370
               5
  6
Continuous
 62
               7
100
AcDbFace
 10
275.0
 20
-325.0
 30
25.0
 11
375.0
 21
-325.0
 31
25.0
 12
375.0
 22
-425.0
 32
25.0
 13
275.0
 23
-425.0
 33
25.0
  0
3DFACE
  5
EA
100
AcDbEntity
  8
àÍî 
370
               5
  6
Continuous
 62
               7
100
AcDbFace
 10
275.0
 20
-325.0
 30
0.0
 11
375.0
 21
-325.0
 31
0.0
 12
375.0
 22
-425.0
 32
0.0
 13
275.0
 23
-425.0
 33
0.0
  0
3DFACE
  5
EB
100
AcDbEntity
  8
àÍî 
370
               5
  6
Continuous
 62
               7
100
AcDbFace
 10
275.0
 20
-425.0
 30
0.0
 11
275.0
 21
-425.0
 31
25.0
 12
275.0
 22
-325.0
 32
25.0
 13
275.0
 23
-325.0
 33
0.0
  0
3DFACE
  5
EC
100
AcDbEntity
  8
àÍî 
370
               5
  6
Continuous
 62
               7
100
AcDbFace
 10
375.0
 20
-425.0
 30
0.0
 11
375.0
 21
-425.0
 31
25.0
 12
275.0
 22
-425.0
 32
25.0
 13
275.0
 23
-425.0
 33
0.0
  0
3DFACE
  5
ED
100
AcDbEntity
  8
àÍî 
370
               5
  6
Continuous
 62
               7
100
AcDbFace
 10
375.0
 20
-325.0
 30
0.0
 11
375.0
 21
-325.0
 31
25.0
 12
375.0
 22
-425.0
 32
25.0
 13
375.0
 23
-425.0
 33
0.0
  0
3DFACE
  5
EE
100
AcDbEntity
  8
àÍî 
370
               5
  6
Continuous
 62
               7
100
AcDbFace
 10
275.0
 20
-325.0
 30
0.0
 11
275.0
 21
-325.0
 31
25.0
 12
375.0
 22
-325.0
 32
25.0
 13
375.0
 23
-325.0
 33
0.0
  0
3DFACE
  5
EF
100
AcDbEntity
  8
àÍî 
370
               5
  6
Continuous
 62
               7
100
AcDbFace
 10
275.0
 20
-200.0
 30
25.0
 11
375.0
 21
-200.0
 31
25.0
 12
375.0
 22
-300.0
 32
25.0
 13
275.0
 23
-300.0
 33
25.0
  0
3DFACE
  5
F0
100
AcDbEntity
  8
àÍî 
370
               5
  6
Continuous
 62
               7
100
AcDbFace
 10
275.0
 20
-200.0
 30
0.0
 11
375.0
 21
-200.0
 31
0.0
 12
375.0
 22
-300.0
 32
0.0
 13
275.0
 23
-300.0
 33
0.0
  0
3DFACE
  5
F1
100
AcDbEntity
  8
àÍî 
370
               5
  6
Continuous
 62
               7
100
AcDbFace
 10
275.0
 20
-300.0
 30
0.0
 11
275.0
 21
-300.0
 31
25.0
 12
275.0
 22
-200.0
 32
25.0
 13
275.0
 23
-200.0
 33
0.0
  0
3DFACE
  5
F2
100
AcDbEntity
  8
àÍî 
370
               5
  6
Continuous
 62
               7
100
AcDbFace
 10
375.0
 20
-300.0
 30
0.0
 11
375.0
 21
-300.0
 31
25.0
 12
275.0
 22
-300.0
 32
25.0
 13
275.0
 23
-300.0
 33
0.0
  0
3DFACE
  5
F3
100
AcDbEntity
  8
àÍî 
370
               5
  6
Continuous
 62
               7
100
AcDbFace
 10
375.0
 20
-200.0
 30
0.0
 11
375.0
 21
-200.0
 31
25.0
 12
375.0
 22
-300.0
 32
25.0
 13
375.0
 23
-300.0
 33
0.0
  0
3DFACE
  5
F4
100
AcDbEntity
  8
àÍî 
370
               5
  6
Continuous
 62
               7
100
AcDbFace
 10
275.0
 20
-200.0
 30
0.0
 11
275.0
 21
-200.0
 31
25.0
 12
375.0
 22
-200.0
 32
25.0
 13
375.0
 23
-200.0
 33
0.0
  0
3DFACE
  5
F5
100
AcDbEntity
  8
àÍî 
370
               5
  6
Continuous
 62
               7
100
AcDbFace
 10
275.0
 20
425.0
 30
25.0
 11
375.0
 21
425.0
 31
25.0
 12
375.0
 22
325.0
 32
25.0
 13
275.0
 23
325.0
 33
25.0
  0
3DFACE
  5
F6
100
AcDbEntity
  8
àÍî 
370
               5
  6
Continuous
 62
               7
100
AcDbFace
 10
275.0
 20
425.0
 30
0.0
 11
375.0
 21
425.0
 31
0.0
 12
375.0
 22
325.0
 32
0.0
 13
275.0
 23
325.0
 33
0.0
  0
3DFACE
  5
F7
100
AcDbEntity
  8
àÍî 
370
               5
  6
Continuous
 62
               7
100
AcDbFace
 10
275.0
 20
325.0
 30
0.0
 11
275.0
 21
325.0
 31
25.0
 12
275.0
 22
425.0
 32
25.0
 13
275.0
 23
425.0
 33
0.0
  0
3DFACE
  5
F8
100
AcDbEntity
  8
àÍî 
370
               5
  6
Continuous
 62
               7
100
AcDbFace
 10
375.0
 20
325.0
 30
0.0
 11
375.0
 21
325.0
 31
25.0
 12
275.0
 22
325.0
 32
25.0
 13
275.0
 23
325.0
 33
0.0
  0
3DFACE
  5
F9
100
AcDbEntity
  8
àÍî 
370
               5
  6
Continuous
 62
               7
100
AcDbFace
 10
375.0
 20
425.0
 30
0.0
 11
375.0
 21
425.0
 31
25.0
 12
375.0
 22
325.0
 32
25.0
 13
375.0
 23
325.0
 33
0.0
  0
3DFACE
  5
FA
100
AcDbEntity
  8
àÍî 
370
               5
  6
Continuous
 62
               7
100
AcDbFace
 10
275.0
 20
425.0
 30
0.0
 11
275.0
 21
425.0
 31
25.0
 12
375.0
 22
425.0
 32
25.0
 13
375.0
 23
425.0
 33
0.0
  0
3DFACE
  5
FB
100
AcDbEntity
  8
àÍî 
370
               5
  6
Continuous
 62
               7
100
AcDbFace
 10
275.0
 20
300.0
 30
25.0
 11
375.0
 21
300.0
 31
25.0
 12
375.0
 22
200.0
 32
25.0
 13
275.0
 23
200.0
 33
25.0
  0
3DFACE
  5
FC
100
AcDbEntity
  8
àÍî 
370
               5
  6
Continuous
 62
               7
100
AcDbFace
 10
275.0
 20
300.0
 30
0.0
 11
375.0
 21
300.0
 31
0.0
 12
375.0
 22
200.0
 32
0.0
 13
275.0
 23
200.0
 33
0.0
  0
3DFACE
  5
FD
100
AcDbEntity
  8
àÍî 
370
               5
  6
Continuous
 62
               7
100
AcDbFace
 10
275.0
 20
200.0
 30
0.0
 11
275.0
 21
200.0
 31
25.0
 12
275.0
 22
300.0
 32
25.0
 13
275.0
 23
300.0
 33
0.0
  0
3DFACE
  5
FE
100
AcDbEntity
  8
àÍî 
370
               5
  6
Continuous
 62
               7
100
AcDbFace
 10
375.0
 20
200.0
 30
0.0
 11
375.0
 21
200.0
 31
25.0
 12
275.0
 22
200.0
 32
25.0
 13
275.0
 23
200.0
 33
0.0
  0
3DFACE
  5
FF
100
AcDbEntity
  8
àÍî 
370
               5
  6
Continuous
 62
               7
100
AcDbFace
 10
375.0
 20
300.0
 30
0.0
 11
375.0
 21
300.0
 31
25.0
 12
375.0
 22
200.0
 32
25.0
 13
375.0
 23
200.0
 33
0.0
  0
3DFACE
  5
100
100
AcDbEntity
  8
àÍî 
370
               5
  6
Continuous
 62
               7
100
AcDbFace
 10
275.0
 20
300.0
 30
0.0
 11
275.0
 21
300.0
 31
25.0
 12
375.0
 22
300.0
 32
25.0
 13
375.0
 23
300.0
 33
0.0
  0
3DFACE
  5
101
100
AcDbEntity
  8
àÍî 
370
               5
  6
Continuous
 62
               7
100
AcDbFace
 10
275.0
 20
50.0
 30
25.0
 11
375.0
 21
50.0
 31
25.0
 12
375.0
 22
-50.0
 32
25.0
 13
275.0
 23
-50.0
 33
25.0
  0
3DFACE
  5
102
100
AcDbEntity
  8
àÍî 
370
               5
  6
Continuous
 62
               7
100
AcDbFace
 10
275.0
 20
50.0
 30
0.0
 11
375.0
 21
50.0
 31
0.0
 12
375.0
 22
-50.0
 32
0.0
 13
275.0
 23
-50.0
 33
0.0
  0
3DFACE
  5
103
100
AcDbEntity
  8
àÍî 
370
               5
  6
Continuous
 62
               7
100
AcDbFace
 10
275.0
 20
-50.0
 30
0.0
 11
275.0
 21
-50.0
 31
25.0
 12
275.0
 22
50.0
 32
25.0
 13
275.0
 23
50.0
 33
0.0
  0
3DFACE
  5
104
100
AcDbEntity
  8
àÍî 
370
               5
  6
Continuous
 62
               7
100
AcDbFace
 10
375.0
 20
-50.0
 30
0.0
 11
375.0
 21
-50.0
 31
25.0
 12
275.0
 22
-50.0
 32
25.0
 13
275.0
 23
-50.0
 33
0.0
  0
3DFACE
  5
105
100
AcDbEntity
  8
àÍî 
370
               5
  6
Continuous
 62
               7
100
AcDbFace
 10
375.0
 20
50.0
 30
0.0
 11
375.0
 21
50.0
 31
25.0
 12
375.0
 22
-50.0
 32
25.0
 13
375.0
 23
-50.0
 33
0.0
  0
3DFACE
  5
106
100
AcDbEntity
  8
àÍî 
370
               5
  6
Continuous
 62
               7
100
AcDbFace
 10
275.0
 20
50.0
 30
0.0
 11
275.0
 21
50.0
 31
25.0
 12
375.0
 22
50.0
 32
25.0
 13
375.0
 23
50.0
 33
0.0
  0
3DFACE
  5
107
100
AcDbEntity
  8
àÍî 
370
               5
  6
Continuous
 62
               7
100
AcDbFace
 10
275.0
 20
-75.0
 30
25.0
 11
375.0
 21
-75.0
 31
25.0
 12
375.0
 22
-175.0
 32
25.0
 13
275.0
 23
-175.0
 33
25.0
  0
3DFACE
  5
108
100
AcDbEntity
  8
àÍî 
370
               5
  6
Continuous
 62
               7
100
AcDbFace
 10
275.0
 20
-75.0
 30
0.0
 11
375.0
 21
-75.0
 31
0.0
 12
375.0
 22
-175.0
 32
0.0
 13
275.0
 23
-175.0
 33
0.0
  0
3DFACE
  5
109
100
AcDbEntity
  8
àÍî 
370
               5
  6
Continuous
 62
               7
100
AcDbFace
 10
275.0
 20
-175.0
 30
0.0
 11
275.0
 21
-175.0
 31
25.0
 12
275.0
 22
-75.0
 32
25.0
 13
275.0
 23
-75.0
 33
0.0
  0
3DFACE
  5
10A
100
AcDbEntity
  8
àÍî 
370
               5
  6
Continuous
 62
               7
100
AcDbFace
 10
375.0
 20
-175.0
 30
0.0
 11
375.0
 21
-175.0
 31
25.0
 12
275.0
 22
-175.0
 32
25.0
 13
275.0
 23
-175.0
 33
0.0
  0
3DFACE
  5
10B
100
AcDbEntity
  8
àÍî 
370
               5
  6
Continuous
 62
               7
100
AcDbFace
 10
375.0
 20
-75.0
 30
0.0
 11
375.0
 21
-75.0
 31
25.0
 12
375.0
 22
-175.0
 32
25.0
 13
375.0
 23
-175.0
 33
0.0
  0
3DFACE
  5
10C
100
AcDbEntity
  8
àÍî 
370
               5
  6
Continuous
 62
               7
100
AcDbFace
 10
275.0
 20
-75.0
 30
0.0
 11
275.0
 21
-75.0
 31
25.0
 12
375.0
 22
-75.0
 32
25.0
 13
375.0
 23
-75.0
 33
0.0
  0
3DFACE
  5
10D
100
AcDbEntity
  8
àÍî 
370
               5
  6
Continuous
 62
               7
100
AcDbFace
 10
275.0
 20
175.0
 30
25.0
 11
375.0
 21
175.0
 31
25.0
 12
375.0
 22
75.0
 32
25.0
 13
275.0
 23
75.0
 33
25.0
  0
3DFACE
  5
10E
100
AcDbEntity
  8
àÍî 
370
               5
  6
Continuous
 62
               7
100
AcDbFace
 10
275.0
 20
175.0
 30
0.0
 11
375.0
 21
175.0
 31
0.0
 12
375.0
 22
75.0
 32
0.0
 13
275.0
 23
75.0
 33
0.0
  0
3DFACE
  5
10F
100
AcDbEntity
  8
àÍî 
370
               5
  6
Continuous
 62
               7
100
AcDbFace
 10
275.0
 20
75.0
 30
0.0
 11
275.0
 21
75.0
 31
25.0
 12
275.0
 22
175.0
 32
25.0
 13
275.0
 23
175.0
 33
0.0
  0
3DFACE
  5
110
100
AcDbEntity
  8
àÍî 
370
               5
  6
Continuous
 62
               7
100
AcDbFace
 10
375.0
 20
75.0
 30
0.0
 11
375.0
 21
75.0
 31
25.0
 12
275.0
 22
75.0
 32
25.0
 13
275.0
 23
75.0
 33
0.0
  0
3DFACE
  5
111
100
AcDbEntity
  8
àÍî 
370
               5
  6
Continuous
 62
               7
100
AcDbFace
 10
375.0
 20
175.0
 30
0.0
 11
375.0
 21
175.0
 31
25.0
 12
375.0
 22
75.0
 32
25.0
 13
375.0
 23
75.0
 33
0.0
  0
3DFACE
  5
112
100
AcDbEntity
  8
àÍî 
370
               5
  6
Continuous
 62
               7
100
AcDbFace
 10
275.0
 20
175.0
 30
0.0
 11
275.0
 21
175.0
 31
25.0
 12
375.0
 22
175.0
 32
25.0
 13
375.0
 23
175.0
 33
0.0
  0
3DFACE
  5
113
100
AcDbEntity
  8
àÍî 
370
               5
  6
Continuous
 62
               7
100
AcDbFace
 10
-700.0
 20
-200.0
 30
25.0
 11
-600.0
 21
-200.0
 31
25.0
 12
-600.0
 22
-300.0
 32
25.0
 13
-700.0
 23
-300.0
 33
25.0
  0
3DFACE
  5
114
100
AcDbEntity
  8
àÍî 
370
               5
  6
Continuous
 62
               7
100
AcDbFace
 10
-700.0
 20
-200.0
 30
0.0
 11
-600.0
 21
-200.0
 31
0.0
 12
-600.0
 22
-300.0
 32
0.0
 13
-700.0
 23
-300.0
 33
0.0
  0
3DFACE
  5
115
100
AcDbEntity
  8
àÍî 
370
               5
  6
Continuous
 62
               7
100
AcDbFace
 10
-700.0
 20
-300.0
 30
0.0
 11
-700.0
 21
-300.0
 31
25.0
 12
-700.0
 22
-200.0
 32
25.0
 13
-700.0
 23
-200.0
 33
0.0
  0
3DFACE
  5
116
100
AcDbEntity
  8
àÍî 
370
               5
  6
Continuous
 62
               7
100
AcDbFace
 10
-600.0
 20
-300.0
 30
0.0
 11
-600.0
 21
-300.0
 31
25.0
 12
-700.0
 22
-300.0
 32
25.0
 13
-700.0
 23
-300.0
 33
0.0
  0
3DFACE
  5
117
100
AcDbEntity
  8
àÍî 
370
               5
  6
Continuous
 62
               7
100
AcDbFace
 10
-600.0
 20
-200.0
 30
0.0
 11
-600.0
 21
-200.0
 31
25.0
 12
-600.0
 22
-300.0
 32
25.0
 13
-600.0
 23
-300.0
 33
0.0
  0
3DFACE
  5
118
100
AcDbEntity
  8
àÍî 
370
               5
  6
Continuous
 62
               7
100
AcDbFace
 10
-700.0
 20
-200.0
 30
0.0
 11
-700.0
 21
-200.0
 31
25.0
 12
-600.0
 22
-200.0
 32
25.0
 13
-600.0
 23
-200.0
 33
0.0
  0
3DFACE
  5
119
100
AcDbEntity
  8
àÍî 
370
               5
  6
Continuous
 62
               7
100
AcDbFace
 10
-700.0
 20
300.0
 30
25.0
 11
-600.0
 21
300.0
 31
25.0
 12
-600.0
 22
200.0
 32
25.0
 13
-700.0
 23
200.0
 33
25.0
  0
3DFACE
  5
11A
100
AcDbEntity
  8
àÍî 
370
               5
  6
Continuous
 62
               7
100
AcDbFace
 10
-700.0
 20
300.0
 30
0.0
 11
-600.0
 21
300.0
 31
0.0
 12
-600.0
 22
200.0
 32
0.0
 13
-700.0
 23
200.0
 33
0.0
  0
3DFACE
  5
11B
100
AcDbEntity
  8
àÍî 
370
               5
  6
Continuous
 62
               7
100
AcDbFace
 10
-700.0
 20
200.0
 30
0.0
 11
-700.0
 21
200.0
 31
25.0
 12
-700.0
 22
300.0
 32
25.0
 13
-700.0
 23
300.0
 33
0.0
  0
3DFACE
  5
11C
100
AcDbEntity
  8
àÍî 
370
               5
  6
Continuous
 62
               7
100
AcDbFace
 10
-600.0
 20
200.0
 30
0.0
 11
-600.0
 21
200.0
 31
25.0
 12
-700.0
 22
200.0
 32
25.0
 13
-700.0
 23
200.0
 33
0.0
  0
3DFACE
  5
11D
100
AcDbEntity
  8
àÍî 
370
               5
  6
Continuous
 62
               7
100
AcDbFace
 10
-600.0
 20
300.0
 30
0.0
 11
-600.0
 21
300.0
 31
25.0
 12
-600.0
 22
200.0
 32
25.0
 13
-600.0
 23
200.0
 33
0.0
  0
3DFACE
  5
11E
100
AcDbEntity
  8
àÍî 
370
               5
  6
Continuous
 62
               7
100
AcDbFace
 10
-700.0
 20
300.0
 30
0.0
 11
-700.0
 21
300.0
 31
25.0
 12
-600.0
 22
300.0
 32
25.0
 13
-600.0
 23
300.0
 33
0.0
  0
3DFACE
  5
11F
100
AcDbEntity
  8
àÍî 
370
               5
  6
Continuous
 62
               7
100
AcDbFace
 10
-700.0
 20
50.0
 30
25.0
 11
-600.0
 21
50.0
 31
25.0
 12
-600.0
 22
-50.0
 32
25.0
 13
-700.0
 23
-50.0
 33
25.0
  0
3DFACE
  5
120
100
AcDbEntity
  8
àÍî 
370
               5
  6
Continuous
 62
               7
100
AcDbFace
 10
-700.0
 20
50.0
 30
0.0
 11
-600.0
 21
50.0
 31
0.0
 12
-600.0
 22
-50.0
 32
0.0
 13
-700.0
 23
-50.0
 33
0.0
  0
3DFACE
  5
121
100
AcDbEntity
  8
àÍî 
370
               5
  6
Continuous
 62
               7
100
AcDbFace
 10
-700.0
 20
-50.0
 30
0.0
 11
-700.0
 21
-50.0
 31
25.0
 12
-700.0
 22
50.0
 32
25.0
 13
-700.0
 23
50.0
 33
0.0
  0
3DFACE
  5
122
100
AcDbEntity
  8
àÍî 
370
               5
  6
Continuous
 62
               7
100
AcDbFace
 10
-600.0
 20
-50.0
 30
0.0
 11
-600.0
 21
-50.0
 31
25.0
 12
-700.0
 22
-50.0
 32
25.0
 13
-700.0
 23
-50.0
 33
0.0
  0
3DFACE
  5
123
100
AcDbEntity
  8
àÍî 
370
               5
  6
Continuous
 62
               7
100
AcDbFace
 10
-600.0
 20
50.0
 30
0.0
 11
-600.0
 21
50.0
 31
25.0
 12
-600.0
 22
-50.0
 32
25.0
 13
-600.0
 23
-50.0
 33
0.0
  0
3DFACE
  5
124
100
AcDbEntity
  8
àÍî 
370
               5
  6
Continuous
 62
               7
100
AcDbFace
 10
-700.0
 20
50.0
 30
0.0
 11
-700.0
 21
50.0
 31
25.0
 12
-600.0
 22
50.0
 32
25.0
 13
-600.0
 23
50.0
 33
0.0
  0
3DFACE
  5
125
100
AcDbEntity
  8
àÍî 
370
               5
  6
Continuous
 62
               7
100
AcDbFace
 10
-700.0
 20
-75.0
 30
25.0
 11
-600.0
 21
-75.0
 31
25.0
 12
-600.0
 22
-175.0
 32
25.0
 13
-700.0
 23
-175.0
 33
25.0
  0
3DFACE
  5
126
100
AcDbEntity
  8
àÍî 
370
               5
  6
Continuous
 62
               7
100
AcDbFace
 10
-700.0
 20
-75.0
 30
0.0
 11
-600.0
 21
-75.0
 31
0.0
 12
-600.0
 22
-175.0
 32
0.0
 13
-700.0
 23
-175.0
 33
0.0
  0
3DFACE
  5
127
100
AcDbEntity
  8
àÍî 
370
               5
  6
Continuous
 62
               7
100
AcDbFace
 10
-700.0
 20
-175.0
 30
0.0
 11
-700.0
 21
-175.0
 31
25.0
 12
-700.0
 22
-75.0
 32
25.0
 13
-700.0
 23
-75.0
 33
0.0
  0
3DFACE
  5
128
100
AcDbEntity
  8
àÍî 
370
               5
  6
Continuous
 62
               7
100
AcDbFace
 10
-600.0
 20
-175.0
 30
0.0
 11
-600.0
 21
-175.0
 31
25.0
 12
-700.0
 22
-175.0
 32
25.0
 13
-700.0
 23
-175.0
 33
0.0
  0
3DFACE
  5
129
100
AcDbEntity
  8
àÍî 
370
               5
  6
Continuous
 62
               7
100
AcDbFace
 10
-600.0
 20
-75.0
 30
0.0
 11
-600.0
 21
-75.0
 31
25.0
 12
-600.0
 22
-175.0
 32
25.0
 13
-600.0
 23
-175.0
 33
0.0
  0
3DFACE
  5
12A
100
AcDbEntity
  8
àÍî 
370
               5
  6
Continuous
 62
               7
100
AcDbFace
 10
-700.0
 20
-75.0
 30
0.0
 11
-700.0
 21
-75.0
 31
25.0
 12
-600.0
 22
-75.0
 32
25.0
 13
-600.0
 23
-75.0
 33
0.0
  0
3DFACE
  5
12B
100
AcDbEntity
  8
àÍî 
370
               5
  6
Continuous
 62
               7
100
AcDbFace
 10
-700.0
 20
175.0
 30
25.0
 11
-600.0
 21
175.0
 31
25.0
 12
-600.0
 22
75.0
 32
25.0
 13
-700.0
 23
75.0
 33
25.0
  0
3DFACE
  5
12C
100
AcDbEntity
  8
àÍî 
370
               5
  6
Continuous
 62
               7
100
AcDbFace
 10
-700.0
 20
175.0
 30
0.0
 11
-600.0
 21
175.0
 31
0.0
 12
-600.0
 22
75.0
 32
0.0
 13
-700.0
 23
75.0
 33
0.0
  0
3DFACE
  5
12D
100
AcDbEntity
  8
àÍî 
370
               5
  6
Continuous
 62
               7
100
AcDbFace
 10
-700.0
 20
75.0
 30
0.0
 11
-700.0
 21
75.0
 31
25.0
 12
-700.0
 22
175.0
 32
25.0
 13
-700.0
 23
175.0
 33
0.0
  0
3DFACE
  5
12E
100
AcDbEntity
  8
àÍî 
370
               5
  6
Continuous
 62
               7
100
AcDbFace
 10
-600.0
 20
75.0
 30
0.0
 11
-600.0
 21
75.0
 31
25.0
 12
-700.0
 22
75.0
 32
25.0
 13
-700.0
 23
75.0
 33
0.0
  0
3DFACE
  5
12F
100
AcDbEntity
  8
àÍî 
370
               5
  6
Continuous
 62
               7
100
AcDbFace
 10
-600.0
 20
175.0
 30
0.0
 11
-600.0
 21
175.0
 31
25.0
 12
-600.0
 22
75.0
 32
25.0
 13
-600.0
 23
75.0
 33
0.0
  0
3DFACE
  5
130
100
AcDbEntity
  8
àÍî 
370
               5
  6
Continuous
 62
               7
100
AcDbFace
 10
-700.0
 20
175.0
 30
0.0
 11
-700.0
 21
175.0
 31
25.0
 12
-600.0
 22
175.0
 32
25.0
 13
-600.0
 23
175.0
 33
0.0
  0
3DFACE
  5
131
100
AcDbEntity
  8
àÍî 
370
               5
  6
Continuous
 62
               7
100
AcDbFace
 10
-525.0
 20
-450.0
 30
25.0
 11
-425.0
 21
-450.0
 31
25.0
 12
-425.0
 22
-550.0
 32
25.0
 13
-525.0
 23
-550.0
 33
25.0
  0
3DFACE
  5
132
100
AcDbEntity
  8
àÍî 
370
               5
  6
Continuous
 62
               7
100
AcDbFace
 10
-525.0
 20
-450.0
 30
0.0
 11
-425.0
 21
-450.0
 31
0.0
 12
-425.0
 22
-550.0
 32
0.0
 13
-525.0
 23
-550.0
 33
0.0
  0
3DFACE
  5
133
100
AcDbEntity
  8
àÍî 
370
               5
  6
Continuous
 62
               7
100
AcDbFace
 10
-525.0
 20
-550.0
 30
0.0
 11
-525.0
 21
-550.0
 31
25.0
 12
-525.0
 22
-450.0
 32
25.0
 13
-525.0
 23
-450.0
 33
0.0
  0
3DFACE
  5
134
100
AcDbEntity
  8
àÍî 
370
               5
  6
Continuous
 62
               7
100
AcDbFace
 10
-425.0
 20
-550.0
 30
0.0
 11
-425.0
 21
-550.0
 31
25.0
 12
-525.0
 22
-550.0
 32
25.0
 13
-525.0
 23
-550.0
 33
0.0
  0
3DFACE
  5
135
100
AcDbEntity
  8
àÍî 
370
               5
  6
Continuous
 62
               7
100
AcDbFace
 10
-425.0
 20
-450.0
 30
0.0
 11
-425.0
 21
-450.0
 31
25.0
 12
-425.0
 22
-550.0
 32
25.0
 13
-425.0
 23
-550.0
 33
0.0
  0
3DFACE
  5
136
100
AcDbEntity
  8
àÍî 
370
               5
  6
Continuous
 62
               7
100
AcDbFace
 10
-525.0
 20
-450.0
 30
0.0
 11
-525.0
 21
-450.0
 31
25.0
 12
-425.0
 22
-450.0
 32
25.0
 13
-425.0
 23
-450.0
 33
0.0
  0
3DFACE
  5
137
100
AcDbEntity
  8
àÍî 
370
               5
  6
Continuous
 62
               7
100
AcDbFace
 10
-525.0
 20
-325.0
 30
25.0
 11
-425.0
 21
-325.0
 31
25.0
 12
-425.0
 22
-425.0
 32
25.0
 13
-525.0
 23
-425.0
 33
25.0
  0
3DFACE
  5
138
100
AcDbEntity
  8
àÍî 
370
               5
  6
Continuous
 62
               7
100
AcDbFace
 10
-525.0
 20
-325.0
 30
0.0
 11
-425.0
 21
-325.0
 31
0.0
 12
-425.0
 22
-425.0
 32
0.0
 13
-525.0
 23
-425.0
 33
0.0
  0
3DFACE
  5
139
100
AcDbEntity
  8
àÍî 
370
               5
  6
Continuous
 62
               7
100
AcDbFace
 10
-525.0
 20
-425.0
 30
0.0
 11
-525.0
 21
-425.0
 31
25.0
 12
-525.0
 22
-325.0
 32
25.0
 13
-525.0
 23
-325.0
 33
0.0
  0
3DFACE
  5
13A
100
AcDbEntity
  8
àÍî 
370
               5
  6
Continuous
 62
               7
100
AcDbFace
 10
-425.0
 20
-425.0
 30
0.0
 11
-425.0
 21
-425.0
 31
25.0
 12
-525.0
 22
-425.0
 32
25.0
 13
-525.0
 23
-425.0
 33
0.0
  0
3DFACE
  5
13B
100
AcDbEntity
  8
àÍî 
370
               5
  6
Continuous
 62
               7
100
AcDbFace
 10
-425.0
 20
-325.0
 30
0.0
 11
-425.0
 21
-325.0
 31
25.0
 12
-425.0
 22
-425.0
 32
25.0
 13
-425.0
 23
-425.0
 33
0.0
  0
3DFACE
  5
13C
100
AcDbEntity
  8
àÍî 
370
               5
  6
Continuous
 62
               7
100
AcDbFace
 10
-525.0
 20
-325.0
 30
0.0
 11
-525.0
 21
-325.0
 31
25.0
 12
-425.0
 22
-325.0
 32
25.0
 13
-425.0
 23
-325.0
 33
0.0
  0
3DFACE
  5
13D
100
AcDbEntity
  8
àÍî 
370
               5
  6
Continuous
 62
               7
100
AcDbFace
 10
-525.0
 20
550.0
 30
25.0
 11
-425.0
 21
550.0
 31
25.0
 12
-425.0
 22
450.0
 32
25.0
 13
-525.0
 23
450.0
 33
25.0
  0
3DFACE
  5
13E
100
AcDbEntity
  8
àÍî 
370
               5
  6
Continuous
 62
               7
100
AcDbFace
 10
-525.0
 20
550.0
 30
0.0
 11
-425.0
 21
550.0
 31
0.0
 12
-425.0
 22
450.0
 32
0.0
 13
-525.0
 23
450.0
 33
0.0
  0
3DFACE
  5
13F
100
AcDbEntity
  8
àÍî 
370
               5
  6
Continuous
 62
               7
100
AcDbFace
 10
-525.0
 20
450.0
 30
0.0
 11
-525.0
 21
450.0
 31
25.0
 12
-525.0
 22
550.0
 32
25.0
 13
-525.0
 23
550.0
 33
0.0
  0
3DFACE
  5
140
100
AcDbEntity
  8
àÍî 
370
               5
  6
Continuous
 62
               7
100
AcDbFace
 10
-425.0
 20
450.0
 30
0.0
 11
-425.0
 21
450.0
 31
25.0
 12
-525.0
 22
450.0
 32
25.0
 13
-525.0
 23
450.0
 33
0.0
  0
3DFACE
  5
141
100
AcDbEntity
  8
àÍî 
370
               5
  6
Continuous
 62
               7
100
AcDbFace
 10
-425.0
 20
550.0
 30
0.0
 11
-425.0
 21
550.0
 31
25.0
 12
-425.0
 22
450.0
 32
25.0
 13
-425.0
 23
450.0
 33
0.0
  0
3DFACE
  5
142
100
AcDbEntity
  8
àÍî 
370
               5
  6
Continuous
 62
               7
100
AcDbFace
 10
-525.0
 20
550.0
 30
0.0
 11
-525.0
 21
550.0
 31
25.0
 12
-425.0
 22
550.0
 32
25.0
 13
-425.0
 23
550.0
 33
0.0
  0
3DFACE
  5
143
100
AcDbEntity
  8
àÍî 
370
               5
  6
Continuous
 62
               7
100
AcDbFace
 10
-525.0
 20
425.0
 30
25.0
 11
-425.0
 21
425.0
 31
25.0
 12
-425.0
 22
325.0
 32
25.0
 13
-525.0
 23
325.0
 33
25.0
  0
3DFACE
  5
144
100
AcDbEntity
  8
àÍî 
370
               5
  6
Continuous
 62
               7
100
AcDbFace
 10
-525.0
 20
425.0
 30
0.0
 11
-425.0
 21
425.0
 31
0.0
 12
-425.0
 22
325.0
 32
0.0
 13
-525.0
 23
325.0
 33
0.0
  0
3DFACE
  5
145
100
AcDbEntity
  8
àÍî 
370
               5
  6
Continuous
 62
               7
100
AcDbFace
 10
-525.0
 20
325.0
 30
0.0
 11
-525.0
 21
325.0
 31
25.0
 12
-525.0
 22
425.0
 32
25.0
 13
-525.0
 23
425.0
 33
0.0
  0
3DFACE
  5
146
100
AcDbEntity
  8
àÍî 
370
               5
  6
Continuous
 62
               7
100
AcDbFace
 10
-425.0
 20
325.0
 30
0.0
 11
-425.0
 21
325.0
 31
25.0
 12
-525.0
 22
325.0
 32
25.0
 13
-525.0
 23
325.0
 33
0.0
  0
3DFACE
  5
147
100
AcDbEntity
  8
àÍî 
370
               5
  6
Continuous
 62
               7
100
AcDbFace
 10
-425.0
 20
425.0
 30
0.0
 11
-425.0
 21
425.0
 31
25.0
 12
-425.0
 22
325.0
 32
25.0
 13
-425.0
 23
325.0
 33
0.0
  0
3DFACE
  5
148
100
AcDbEntity
  8
àÍî 
370
               5
  6
Continuous
 62
               7
100
AcDbFace
 10
-525.0
 20
425.0
 30
0.0
 11
-525.0
 21
425.0
 31
25.0
 12
-425.0
 22
425.0
 32
25.0
 13
-425.0
 23
425.0
 33
0.0
  0
3DFACE
  5
149
100
AcDbEntity
  8
àÍî 
370
               5
  6
Continuous
 62
               7
100
AcDbFace
 10
-525.0
 20
-200.0
 30
25.0
 11
-425.0
 21
-200.0
 31
25.0
 12
-425.0
 22
-300.0
 32
25.0
 13
-525.0
 23
-300.0
 33
25.0
  0
3DFACE
  5
14A
100
AcDbEntity
  8
àÍî 
370
               5
  6
Continuous
 62
               7
100
AcDbFace
 10
-525.0
 20
-200.0
 30
0.0
 11
-425.0
 21
-200.0
 31
0.0
 12
-425.0
 22
-300.0
 32
0.0
 13
-525.0
 23
-300.0
 33
0.0
  0
3DFACE
  5
14B
100
AcDbEntity
  8
àÍî 
370
               5
  6
Continuous
 62
               7
100
AcDbFace
 10
-525.0
 20
-300.0
 30
0.0
 11
-525.0
 21
-300.0
 31
25.0
 12
-525.0
 22
-200.0
 32
25.0
 13
-525.0
 23
-200.0
 33
0.0
  0
3DFACE
  5
14C
100
AcDbEntity
  8
àÍî 
370
               5
  6
Continuous
 62
               7
100
AcDbFace
 10
-425.0
 20
-300.0
 30
0.0
 11
-425.0
 21
-300.0
 31
25.0
 12
-525.0
 22
-300.0
 32
25.0
 13
-525.0
 23
-300.0
 33
0.0
  0
3DFACE
  5
14D
100
AcDbEntity
  8
àÍî 
370
               5
  6
Continuous
 62
               7
100
AcDbFace
 10
-425.0
 20
-200.0
 30
0.0
 11
-425.0
 21
-200.0
 31
25.0
 12
-425.0
 22
-300.0
 32
25.0
 13
-425.0
 23
-300.0
 33
0.0
  0
3DFACE
  5
14E
100
AcDbEntity
  8
àÍî 
370
               5
  6
Continuous
 62
               7
100
AcDbFace
 10
-525.0
 20
-200.0
 30
0.0
 11
-525.0
 21
-200.0
 31
25.0
 12
-425.0
 22
-200.0
 32
25.0
 13
-425.0
 23
-200.0
 33
0.0
  0
3DFACE
  5
14F
100
AcDbEntity
  8
àÍî 
370
               5
  6
Continuous
 62
               7
100
AcDbFace
 10
-525.0
 20
300.0
 30
25.0
 11
-425.0
 21
300.0
 31
25.0
 12
-425.0
 22
200.0
 32
25.0
 13
-525.0
 23
200.0
 33
25.0
  0
3DFACE
  5
150
100
AcDbEntity
  8
àÍî 
370
               5
  6
Continuous
 62
               7
100
AcDbFace
 10
-525.0
 20
300.0
 30
0.0
 11
-425.0
 21
300.0
 31
0.0
 12
-425.0
 22
200.0
 32
0.0
 13
-525.0
 23
200.0
 33
0.0
  0
3DFACE
  5
151
100
AcDbEntity
  8
àÍî 
370
               5
  6
Continuous
 62
               7
100
AcDbFace
 10
-525.0
 20
200.0
 30
0.0
 11
-525.0
 21
200.0
 31
25.0
 12
-525.0
 22
300.0
 32
25.0
 13
-525.0
 23
300.0
 33
0.0
  0
3DFACE
  5
152
100
AcDbEntity
  8
àÍî 
370
               5
  6
Continuous
 62
               7
100
AcDbFace
 10
-425.0
 20
200.0
 30
0.0
 11
-425.0
 21
200.0
 31
25.0
 12
-525.0
 22
200.0
 32
25.0
 13
-525.0
 23
200.0
 33
0.0
  0
3DFACE
  5
153
100
AcDbEntity
  8
àÍî 
370
               5
  6
Continuous
 62
               7
100
AcDbFace
 10
-425.0
 20
300.0
 30
0.0
 11
-425.0
 21
300.0
 31
25.0
 12
-425.0
 22
200.0
 32
25.0
 13
-425.0
 23
200.0
 33
0.0
  0
3DFACE
  5
154
100
AcDbEntity
  8
àÍî 
370
               5
  6
Continuous
 62
               7
100
AcDbFace
 10
-525.0
 20
300.0
 30
0.0
 11
-525.0
 21
300.0
 31
25.0
 12
-425.0
 22
300.0
 32
25.0
 13
-425.0
 23
300.0
 33
0.0
  0
3DFACE
  5
155
100
AcDbEntity
  8
àÍî 
370
               5
  6
Continuous
 62
               7
100
AcDbFace
 10
-525.0
 20
50.0
 30
25.0
 11
-425.0
 21
50.0
 31
25.0
 12
-425.0
 22
-50.0
 32
25.0
 13
-525.0
 23
-50.0
 33
25.0
  0
3DFACE
  5
156
100
AcDbEntity
  8
àÍî 
370
               5
  6
Continuous
 62
               7
100
AcDbFace
 10
-525.0
 20
50.0
 30
0.0
 11
-425.0
 21
50.0
 31
0.0
 12
-425.0
 22
-50.0
 32
0.0
 13
-525.0
 23
-50.0
 33
0.0
  0
3DFACE
  5
157
100
AcDbEntity
  8
àÍî 
370
               5
  6
Continuous
 62
               7
100
AcDbFace
 10
-525.0
 20
-50.0
 30
0.0
 11
-525.0
 21
-50.0
 31
25.0
 12
-525.0
 22
50.0
 32
25.0
 13
-525.0
 23
50.0
 33
0.0
  0
3DFACE
  5
158
100
AcDbEntity
  8
àÍî 
370
               5
  6
Continuous
 62
               7
100
AcDbFace
 10
-425.0
 20
-50.0
 30
0.0
 11
-425.0
 21
-50.0
 31
25.0
 12
-525.0
 22
-50.0
 32
25.0
 13
-525.0
 23
-50.0
 33
0.0
  0
3DFACE
  5
159
100
AcDbEntity
  8
àÍî 
370
               5
  6
Continuous
 62
               7
100
AcDbFace
 10
-425.0
 20
50.0
 30
0.0
 11
-425.0
 21
50.0
 31
25.0
 12
-425.0
 22
-50.0
 32
25.0
 13
-425.0
 23
-50.0
 33
0.0
  0
3DFACE
  5
15A
100
AcDbEntity
  8
àÍî 
370
               5
  6
Continuous
 62
               7
100
AcDbFace
 10
-525.0
 20
50.0
 30
0.0
 11
-525.0
 21
50.0
 31
25.0
 12
-425.0
 22
50.0
 32
25.0
 13
-425.0
 23
50.0
 33
0.0
  0
3DFACE
  5
15B
100
AcDbEntity
  8
àÍî 
370
               5
  6
Continuous
 62
               7
100
AcDbFace
 10
-525.0
 20
-75.0
 30
25.0
 11
-425.0
 21
-75.0
 31
25.0
 12
-425.0
 22
-175.0
 32
25.0
 13
-525.0
 23
-175.0
 33
25.0
  0
3DFACE
  5
15C
100
AcDbEntity
  8
àÍî 
370
               5
  6
Continuous
 62
               7
100
AcDbFace
 10
-525.0
 20
-75.0
 30
0.0
 11
-425.0
 21
-75.0
 31
0.0
 12
-425.0
 22
-175.0
 32
0.0
 13
-525.0
 23
-175.0
 33
0.0
  0
3DFACE
  5
15D
100
AcDbEntity
  8
àÍî 
370
               5
  6
Continuous
 62
               7
100
AcDbFace
 10
-525.0
 20
-175.0
 30
0.0
 11
-525.0
 21
-175.0
 31
25.0
 12
-525.0
 22
-75.0
 32
25.0
 13
-525.0
 23
-75.0
 33
0.0
  0
3DFACE
  5
15E
100
AcDbEntity
  8
àÍî 
370
               5
  6
Continuous
 62
               7
100
AcDbFace
 10
-425.0
 20
-175.0
 30
0.0
 11
-425.0
 21
-175.0
 31
25.0
 12
-525.0
 22
-175.0
 32
25.0
 13
-525.0
 23
-175.0
 33
0.0
  0
3DFACE
  5
15F
100
AcDbEntity
  8
àÍî 
370
               5
  6
Continuous
 62
               7
100
AcDbFace
 10
-425.0
 20
-75.0
 30
0.0
 11
-425.0
 21
-75.0
 31
25.0
 12
-425.0
 22
-175.0
 32
25.0
 13
-425.0
 23
-175.0
 33
0.0
  0
3DFACE
  5
160
100
AcDbEntity
  8
àÍî 
370
               5
  6
Continuous
 62
               7
100
AcDbFace
 10
-525.0
 20
-75.0
 30
0.0
 11
-525.0
 21
-75.0
 31
25.0
 12
-425.0
 22
-75.0
 32
25.0
 13
-425.0
 23
-75.0
 33
0.0
  0
3DFACE
  5
161
100
AcDbEntity
  8
àÍî 
370
               5
  6
Continuous
 62
               7
100
AcDbFace
 10
-525.0
 20
175.0
 30
25.0
 11
-425.0
 21
175.0
 31
25.0
 12
-425.0
 22
75.0
 32
25.0
 13
-525.0
 23
75.0
 33
25.0
  0
3DFACE
  5
162
100
AcDbEntity
  8
àÍî 
370
               5
  6
Continuous
 62
               7
100
AcDbFace
 10
-525.0
 20
175.0
 30
0.0
 11
-425.0
 21
175.0
 31
0.0
 12
-425.0
 22
75.0
 32
0.0
 13
-525.0
 23
75.0
 33
0.0
  0
3DFACE
  5
163
100
AcDbEntity
  8
àÍî 
370
               5
  6
Continuous
 62
               7
100
AcDbFace
 10
-525.0
 20
75.0
 30
0.0
 11
-525.0
 21
75.0
 31
25.0
 12
-525.0
 22
175.0
 32
25.0
 13
-525.0
 23
175.0
 33
0.0
  0
3DFACE
  5
164
100
AcDbEntity
  8
àÍî 
370
               5
  6
Continuous
 62
               7
100
AcDbFace
 10
-425.0
 20
75.0
 30
0.0
 11
-425.0
 21
75.0
 31
25.0
 12
-525.0
 22
75.0
 32
25.0
 13
-525.0
 23
75.0
 33
0.0
  0
3DFACE
  5
165
100
AcDbEntity
  8
àÍî 
370
               5
  6
Continuous
 62
               7
100
AcDbFace
 10
-425.0
 20
175.0
 30
0.0
 11
-425.0
 21
175.0
 31
25.0
 12
-425.0
 22
75.0
 32
25.0
 13
-425.0
 23
75.0
 33
0.0
  0
3DFACE
  5
166
100
AcDbEntity
  8
àÍî 
370
               5
  6
Continuous
 62
               7
100
AcDbFace
 10
-525.0
 20
175.0
 30
0.0
 11
-525.0
 21
175.0
 31
25.0
 12
-425.0
 22
175.0
 32
25.0
 13
-425.0
 23
175.0
 33
0.0
  0
3DFACE
  5
167
100
AcDbEntity
  8
àÍî 
370
               5
  6
Continuous
 62
               7
100
AcDbFace
 10
-525.0
 20
-450.0
 30
25.0
 11
-425.0
 21
-450.0
 31
25.0
 12
-425.0
 22
-550.0
 32
25.0
 13
-525.0
 23
-550.0
 33
25.0
  0
3DFACE
  5
168
100
AcDbEntity
  8
àÍî 
370
               5
  6
Continuous
 62
               7
100
AcDbFace
 10
-525.0
 20
-450.0
 30
0.0
 11
-425.0
 21
-450.0
 31
0.0
 12
-425.0
 22
-550.0
 32
0.0
 13
-525.0
 23
-550.0
 33
0.0
  0
3DFACE
  5
169
100
AcDbEntity
  8
àÍî 
370
               5
  6
Continuous
 62
               7
100
AcDbFace
 10
-525.0
 20
-550.0
 30
0.0
 11
-525.0
 21
-550.0
 31
25.0
 12
-525.0
 22
-450.0
 32
25.0
 13
-525.0
 23
-450.0
 33
0.0
  0
3DFACE
  5
16A
100
AcDbEntity
  8
àÍî 
370
               5
  6
Continuous
 62
               7
100
AcDbFace
 10
-425.0
 20
-550.0
 30
0.0
 11
-425.0
 21
-550.0
 31
25.0
 12
-525.0
 22
-550.0
 32
25.0
 13
-525.0
 23
-550.0
 33
0.0
  0
3DFACE
  5
16B
100
AcDbEntity
  8
àÍî 
370
               5
  6
Continuous
 62
               7
100
AcDbFace
 10
-425.0
 20
-450.0
 30
0.0
 11
-425.0
 21
-450.0
 31
25.0
 12
-425.0
 22
-550.0
 32
25.0
 13
-425.0
 23
-550.0
 33
0.0
  0
3DFACE
  5
16C
100
AcDbEntity
  8
àÍî 
370
               5
  6
Continuous
 62
               7
100
AcDbFace
 10
-525.0
 20
-450.0
 30
0.0
 11
-525.0
 21
-450.0
 31
25.0
 12
-425.0
 22
-450.0
 32
25.0
 13
-425.0
 23
-450.0
 33
0.0
  0
3DFACE
  5
16D
100
AcDbEntity
  8
àÍî 
370
               5
  6
Continuous
 62
               7
100
AcDbFace
 10
-525.0
 20
-325.0
 30
25.0
 11
-425.0
 21
-325.0
 31
25.0
 12
-425.0
 22
-425.0
 32
25.0
 13
-525.0
 23
-425.0
 33
25.0
  0
3DFACE
  5
16E
100
AcDbEntity
  8
àÍî 
370
               5
  6
Continuous
 62
               7
100
AcDbFace
 10
-525.0
 20
-325.0
 30
0.0
 11
-425.0
 21
-325.0
 31
0.0
 12
-425.0
 22
-425.0
 32
0.0
 13
-525.0
 23
-425.0
 33
0.0
  0
3DFACE
  5
16F
100
AcDbEntity
  8
àÍî 
370
               5
  6
Continuous
 62
               7
100
AcDbFace
 10
-525.0
 20
-425.0
 30
0.0
 11
-525.0
 21
-425.0
 31
25.0
 12
-525.0
 22
-325.0
 32
25.0
 13
-525.0
 23
-325.0
 33
0.0
  0
3DFACE
  5
170
100
AcDbEntity
  8
àÍî 
370
               5
  6
Continuous
 62
               7
100
AcDbFace
 10
-425.0
 20
-425.0
 30
0.0
 11
-425.0
 21
-425.0
 31
25.0
 12
-525.0
 22
-425.0
 32
25.0
 13
-525.0
 23
-425.0
 33
0.0
  0
3DFACE
  5
171
100
AcDbEntity
  8
àÍî 
370
               5
  6
Continuous
 62
               7
100
AcDbFace
 10
-425.0
 20
-325.0
 30
0.0
 11
-425.0
 21
-325.0
 31
25.0
 12
-425.0
 22
-425.0
 32
25.0
 13
-425.0
 23
-425.0
 33
0.0
  0
3DFACE
  5
172
100
AcDbEntity
  8
àÍî 
370
               5
  6
Continuous
 62
               7
100
AcDbFace
 10
-525.0
 20
-325.0
 30
0.0
 11
-525.0
 21
-325.0
 31
25.0
 12
-425.0
 22
-325.0
 32
25.0
 13
-425.0
 23
-325.0
 33
0.0
  0
3DFACE
  5
173
100
AcDbEntity
  8
àÍî 
370
               5
  6
Continuous
 62
               7
100
AcDbFace
 10
-525.0
 20
550.0
 30
25.0
 11
-425.0
 21
550.0
 31
25.0
 12
-425.0
 22
450.0
 32
25.0
 13
-525.0
 23
450.0
 33
25.0
  0
3DFACE
  5
174
100
AcDbEntity
  8
àÍî 
370
               5
  6
Continuous
 62
               7
100
AcDbFace
 10
-525.0
 20
550.0
 30
0.0
 11
-425.0
 21
550.0
 31
0.0
 12
-425.0
 22
450.0
 32
0.0
 13
-525.0
 23
450.0
 33
0.0
  0
3DFACE
  5
175
100
AcDbEntity
  8
àÍî 
370
               5
  6
Continuous
 62
               7
100
AcDbFace
 10
-525.0
 20
450.0
 30
0.0
 11
-525.0
 21
450.0
 31
25.0
 12
-525.0
 22
550.0
 32
25.0
 13
-525.0
 23
550.0
 33
0.0
  0
3DFACE
  5
176
100
AcDbEntity
  8
àÍî 
370
               5
  6
Continuous
 62
               7
100
AcDbFace
 10
-425.0
 20
450.0
 30
0.0
 11
-425.0
 21
450.0
 31
25.0
 12
-525.0
 22
450.0
 32
25.0
 13
-525.0
 23
450.0
 33
0.0
  0
3DFACE
  5
177
100
AcDbEntity
  8
àÍî 
370
               5
  6
Continuous
 62
               7
100
AcDbFace
 10
-425.0
 20
550.0
 30
0.0
 11
-425.0
 21
550.0
 31
25.0
 12
-425.0
 22
450.0
 32
25.0
 13
-425.0
 23
450.0
 33
0.0
  0
3DFACE
  5
178
100
AcDbEntity
  8
àÍî 
370
               5
  6
Continuous
 62
               7
100
AcDbFace
 10
-525.0
 20
550.0
 30
0.0
 11
-525.0
 21
550.0
 31
25.0
 12
-425.0
 22
550.0
 32
25.0
 13
-425.0
 23
550.0
 33
0.0
  0
3DFACE
  5
179
100
AcDbEntity
  8
àÍî 
370
               5
  6
Continuous
 62
               7
100
AcDbFace
 10
-525.0
 20
425.0
 30
25.0
 11
-425.0
 21
425.0
 31
25.0
 12
-425.0
 22
325.0
 32
25.0
 13
-525.0
 23
325.0
 33
25.0
  0
3DFACE
  5
17A
100
AcDbEntity
  8
àÍî 
370
               5
  6
Continuous
 62
               7
100
AcDbFace
 10
-525.0
 20
425.0
 30
0.0
 11
-425.0
 21
425.0
 31
0.0
 12
-425.0
 22
325.0
 32
0.0
 13
-525.0
 23
325.0
 33
0.0
  0
3DFACE
  5
17B
100
AcDbEntity
  8
àÍî 
370
               5
  6
Continuous
 62
               7
100
AcDbFace
 10
-525.0
 20
325.0
 30
0.0
 11
-525.0
 21
325.0
 31
25.0
 12
-525.0
 22
425.0
 32
25.0
 13
-525.0
 23
425.0
 33
0.0
  0
3DFACE
  5
17C
100
AcDbEntity
  8
àÍî 
370
               5
  6
Continuous
 62
               7
100
AcDbFace
 10
-425.0
 20
325.0
 30
0.0
 11
-425.0
 21
325.0
 31
25.0
 12
-525.0
 22
325.0
 32
25.0
 13
-525.0
 23
325.0
 33
0.0
  0
3DFACE
  5
17D
100
AcDbEntity
  8
àÍî 
370
               5
  6
Continuous
 62
               7
100
AcDbFace
 10
-425.0
 20
425.0
 30
0.0
 11
-425.0
 21
425.0
 31
25.0
 12
-425.0
 22
325.0
 32
25.0
 13
-425.0
 23
325.0
 33
0.0
  0
3DFACE
  5
17E
100
AcDbEntity
  8
àÍî 
370
               5
  6
Continuous
 62
               7
100
AcDbFace
 10
-525.0
 20
425.0
 30
0.0
 11
-525.0
 21
425.0
 31
25.0
 12
-425.0
 22
425.0
 32
25.0
 13
-425.0
 23
425.0
 33
0.0
  0
3DFACE
  5
17F
100
AcDbEntity
  8
àÍî 
370
               5
  6
Continuous
 62
               7
100
AcDbFace
 10
-525.0
 20
-200.0
 30
25.0
 11
-425.0
 21
-200.0
 31
25.0
 12
-425.0
 22
-300.0
 32
25.0
 13
-525.0
 23
-300.0
 33
25.0
  0
3DFACE
  5
180
100
AcDbEntity
  8
àÍî 
370
               5
  6
Continuous
 62
               7
100
AcDbFace
 10
-525.0
 20
-200.0
 30
0.0
 11
-425.0
 21
-200.0
 31
0.0
 12
-425.0
 22
-300.0
 32
0.0
 13
-525.0
 23
-300.0
 33
0.0
  0
3DFACE
  5
181
100
AcDbEntity
  8
àÍî 
370
               5
  6
Continuous
 62
               7
100
AcDbFace
 10
-525.0
 20
-300.0
 30
0.0
 11
-525.0
 21
-300.0
 31
25.0
 12
-525.0
 22
-200.0
 32
25.0
 13
-525.0
 23
-200.0
 33
0.0
  0
3DFACE
  5
182
100
AcDbEntity
  8
àÍî 
370
               5
  6
Continuous
 62
               7
100
AcDbFace
 10
-425.0
 20
-300.0
 30
0.0
 11
-425.0
 21
-300.0
 31
25.0
 12
-525.0
 22
-300.0
 32
25.0
 13
-525.0
 23
-300.0
 33
0.0
  0
3DFACE
  5
183
100
AcDbEntity
  8
àÍî 
370
               5
  6
Continuous
 62
               7
100
AcDbFace
 10
-425.0
 20
-200.0
 30
0.0
 11
-425.0
 21
-200.0
 31
25.0
 12
-425.0
 22
-300.0
 32
25.0
 13
-425.0
 23
-300.0
 33
0.0
  0
3DFACE
  5
184
100
AcDbEntity
  8
àÍî 
370
               5
  6
Continuous
 62
               7
100
AcDbFace
 10
-525.0
 20
-200.0
 30
0.0
 11
-525.0
 21
-200.0
 31
25.0
 12
-425.0
 22
-200.0
 32
25.0
 13
-425.0
 23
-200.0
 33
0.0
  0
3DFACE
  5
185
100
AcDbEntity
  8
àÍî 
370
               5
  6
Continuous
 62
               7
100
AcDbFace
 10
-525.0
 20
300.0
 30
25.0
 11
-425.0
 21
300.0
 31
25.0
 12
-425.0
 22
200.0
 32
25.0
 13
-525.0
 23
200.0
 33
25.0
  0
3DFACE
  5
186
100
AcDbEntity
  8
àÍî 
370
               5
  6
Continuous
 62
               7
100
AcDbFace
 10
-525.0
 20
300.0
 30
0.0
 11
-425.0
 21
300.0
 31
0.0
 12
-425.0
 22
200.0
 32
0.0
 13
-525.0
 23
200.0
 33
0.0
  0
3DFACE
  5
187
100
AcDbEntity
  8
àÍî 
370
               5
  6
Continuous
 62
               7
100
AcDbFace
 10
-525.0
 20
200.0
 30
0.0
 11
-525.0
 21
200.0
 31
25.0
 12
-525.0
 22
300.0
 32
25.0
 13
-525.0
 23
300.0
 33
0.0
  0
3DFACE
  5
188
100
AcDbEntity
  8
àÍî 
370
               5
  6
Continuous
 62
               7
100
AcDbFace
 10
-425.0
 20
200.0
 30
0.0
 11
-425.0
 21
200.0
 31
25.0
 12
-525.0
 22
200.0
 32
25.0
 13
-525.0
 23
200.0
 33
0.0
  0
3DFACE
  5
189
100
AcDbEntity
  8
àÍî 
370
               5
  6
Continuous
 62
               7
100
AcDbFace
 10
-425.0
 20
300.0
 30
0.0
 11
-425.0
 21
300.0
 31
25.0
 12
-425.0
 22
200.0
 32
25.0
 13
-425.0
 23
200.0
 33
0.0
  0
3DFACE
  5
18A
100
AcDbEntity
  8
àÍî 
370
               5
  6
Continuous
 62
               7
100
AcDbFace
 10
-525.0
 20
300.0
 30
0.0
 11
-525.0
 21
300.0
 31
25.0
 12
-425.0
 22
300.0
 32
25.0
 13
-425.0
 23
300.0
 33
0.0
  0
3DFACE
  5
18B
100
AcDbEntity
  8
àÍî 
370
               5
  6
Continuous
 62
               7
100
AcDbFace
 10
-525.0
 20
50.0
 30
25.0
 11
-425.0
 21
50.0
 31
25.0
 12
-425.0
 22
-50.0
 32
25.0
 13
-525.0
 23
-50.0
 33
25.0
  0
3DFACE
  5
18C
100
AcDbEntity
  8
àÍî 
370
               5
  6
Continuous
 62
               7
100
AcDbFace
 10
-525.0
 20
50.0
 30
0.0
 11
-425.0
 21
50.0
 31
0.0
 12
-425.0
 22
-50.0
 32
0.0
 13
-525.0
 23
-50.0
 33
0.0
  0
3DFACE
  5
18D
100
AcDbEntity
  8
àÍî 
370
               5
  6
Continuous
 62
               7
100
AcDbFace
 10
-525.0
 20
-50.0
 30
0.0
 11
-525.0
 21
-50.0
 31
25.0
 12
-525.0
 22
50.0
 32
25.0
 13
-525.0
 23
50.0
 33
0.0
  0
3DFACE
  5
18E
100
AcDbEntity
  8
àÍî 
370
               5
  6
Continuous
 62
               7
100
AcDbFace
 10
-425.0
 20
-50.0
 30
0.0
 11
-425.0
 21
-50.0
 31
25.0
 12
-525.0
 22
-50.0
 32
25.0
 13
-525.0
 23
-50.0
 33
0.0
  0
3DFACE
  5
18F
100
AcDbEntity
  8
àÍî 
370
               5
  6
Continuous
 62
               7
100
AcDbFace
 10
-425.0
 20
50.0
 30
0.0
 11
-425.0
 21
50.0
 31
25.0
 12
-425.0
 22
-50.0
 32
25.0
 13
-425.0
 23
-50.0
 33
0.0
  0
3DFACE
  5
190
100
AcDbEntity
  8
àÍî 
370
               5
  6
Continuous
 62
               7
100
AcDbFace
 10
-525.0
 20
50.0
 30
0.0
 11
-525.0
 21
50.0
 31
25.0
 12
-425.0
 22
50.0
 32
25.0
 13
-425.0
 23
50.0
 33
0.0
  0
3DFACE
  5
191
100
AcDbEntity
  8
àÍî 
370
               5
  6
Continuous
 62
               7
100
AcDbFace
 10
-525.0
 20
-75.0
 30
25.0
 11
-425.0
 21
-75.0
 31
25.0
 12
-425.0
 22
-175.0
 32
25.0
 13
-525.0
 23
-175.0
 33
25.0
  0
3DFACE
  5
192
100
AcDbEntity
  8
àÍî 
370
               5
  6
Continuous
 62
               7
100
AcDbFace
 10
-525.0
 20
-75.0
 30
0.0
 11
-425.0
 21
-75.0
 31
0.0
 12
-425.0
 22
-175.0
 32
0.0
 13
-525.0
 23
-175.0
 33
0.0
  0
3DFACE
  5
193
100
AcDbEntity
  8
àÍî 
370
               5
  6
Continuous
 62
               7
100
AcDbFace
 10
-525.0
 20
-175.0
 30
0.0
 11
-525.0
 21
-175.0
 31
25.0
 12
-525.0
 22
-75.0
 32
25.0
 13
-525.0
 23
-75.0
 33
0.0
  0
3DFACE
  5
194
100
AcDbEntity
  8
àÍî 
370
               5
  6
Continuous
 62
               7
100
AcDbFace
 10
-425.0
 20
-175.0
 30
0.0
 11
-425.0
 21
-175.0
 31
25.0
 12
-525.0
 22
-175.0
 32
25.0
 13
-525.0
 23
-175.0
 33
0.0
  0
3DFACE
  5
195
100
AcDbEntity
  8
àÍî 
370
               5
  6
Continuous
 62
               7
100
AcDbFace
 10
-425.0
 20
-75.0
 30
0.0
 11
-425.0
 21
-75.0
 31
25.0
 12
-425.0
 22
-175.0
 32
25.0
 13
-425.0
 23
-175.0
 33
0.0
  0
3DFACE
  5
196
100
AcDbEntity
  8
àÍî 
370
               5
  6
Continuous
 62
               7
100
AcDbFace
 10
-525.0
 20
-75.0
 30
0.0
 11
-525.0
 21
-75.0
 31
25.0
 12
-425.0
 22
-75.0
 32
25.0
 13
-425.0
 23
-75.0
 33
0.0
  0
3DFACE
  5
197
100
AcDbEntity
  8
àÍî 
370
               5
  6
Continuous
 62
               7
100
AcDbFace
 10
-525.0
 20
175.0
 30
25.0
 11
-425.0
 21
175.0
 31
25.0
 12
-425.0
 22
75.0
 32
25.0
 13
-525.0
 23
75.0
 33
25.0
  0
3DFACE
  5
198
100
AcDbEntity
  8
àÍî 
370
               5
  6
Continuous
 62
               7
100
AcDbFace
 10
-525.0
 20
175.0
 30
0.0
 11
-425.0
 21
175.0
 31
0.0
 12
-425.0
 22
75.0
 32
0.0
 13
-525.0
 23
75.0
 33
0.0
  0
3DFACE
  5
199
100
AcDbEntity
  8
àÍî 
370
               5
  6
Continuous
 62
               7
100
AcDbFace
 10
-525.0
 20
75.0
 30
0.0
 11
-525.0
 21
75.0
 31
25.0
 12
-525.0
 22
175.0
 32
25.0
 13
-525.0
 23
175.0
 33
0.0
  0
3DFACE
  5
19A
100
AcDbEntity
  8
àÍî 
370
               5
  6
Continuous
 62
               7
100
AcDbFace
 10
-425.0
 20
75.0
 30
0.0
 11
-425.0
 21
75.0
 31
25.0
 12
-525.0
 22
75.0
 32
25.0
 13
-525.0
 23
75.0
 33
0.0
  0
3DFACE
  5
19B
100
AcDbEntity
  8
àÍî 
370
               5
  6
Continuous
 62
               7
100
AcDbFace
 10
-425.0
 20
175.0
 30
0.0
 11
-425.0
 21
175.0
 31
25.0
 12
-425.0
 22
75.0
 32
25.0
 13
-425.0
 23
75.0
 33
0.0
  0
3DFACE
  5
19C
100
AcDbEntity
  8
àÍî 
370
               5
  6
Continuous
 62
               7
100
AcDbFace
 10
-525.0
 20
175.0
 30
0.0
 11
-525.0
 21
175.0
 31
25.0
 12
-425.0
 22
175.0
 32
25.0
 13
-425.0
 23
175.0
 33
0.0
  0
3DFACE
  5
19D
100
AcDbEntity
  8
àÍî 
370
               5
  6
Continuous
 62
               7
100
AcDbFace
 10
-375.0
 20
-450.0
 30
25.0
 11
-275.0
 21
-450.0
 31
25.0
 12
-275.0
 22
-550.0
 32
25.0
 13
-375.0
 23
-550.0
 33
25.0
  0
3DFACE
  5
19E
100
AcDbEntity
  8
àÍî 
370
               5
  6
Continuous
 62
               7
100
AcDbFace
 10
-375.0
 20
-450.0
 30
0.0
 11
-275.0
 21
-450.0
 31
0.0
 12
-275.0
 22
-550.0
 32
0.0
 13
-375.0
 23
-550.0
 33
0.0
  0
3DFACE
  5
19F
100
AcDbEntity
  8
àÍî 
370
               5
  6
Continuous
 62
               7
100
AcDbFace
 10
-375.0
 20
-550.0
 30
0.0
 11
-375.0
 21
-550.0
 31
25.0
 12
-375.0
 22
-450.0
 32
25.0
 13
-375.0
 23
-450.0
 33
0.0
  0
3DFACE
  5
1A0
100
AcDbEntity
  8
àÍî 
370
               5
  6
Continuous
 62
               7
100
AcDbFace
 10
-275.0
 20
-550.0
 30
0.0
 11
-275.0
 21
-550.0
 31
25.0
 12
-375.0
 22
-550.0
 32
25.0
 13
-375.0
 23
-550.0
 33
0.0
  0
3DFACE
  5
1A1
100
AcDbEntity
  8
àÍî 
370
               5
  6
Continuous
 62
               7
100
AcDbFace
 10
-275.0
 20
-450.0
 30
0.0
 11
-275.0
 21
-450.0
 31
25.0
 12
-275.0
 22
-550.0
 32
25.0
 13
-275.0
 23
-550.0
 33
0.0
  0
3DFACE
  5
1A2
100
AcDbEntity
  8
àÍî 
370
               5
  6
Continuous
 62
               7
100
AcDbFace
 10
-375.0
 20
-450.0
 30
0.0
 11
-375.0
 21
-450.0
 31
25.0
 12
-275.0
 22
-450.0
 32
25.0
 13
-275.0
 23
-450.0
 33
0.0
  0
3DFACE
  5
1A3
100
AcDbEntity
  8
àÍî 
370
               5
  6
Continuous
 62
               7
100
AcDbFace
 10
-375.0
 20
-325.0
 30
25.0
 11
-275.0
 21
-325.0
 31
25.0
 12
-275.0
 22
-425.0
 32
25.0
 13
-375.0
 23
-425.0
 33
25.0
  0
3DFACE
  5
1A4
100
AcDbEntity
  8
àÍî 
370
               5
  6
Continuous
 62
               7
100
AcDbFace
 10
-375.0
 20
-325.0
 30
0.0
 11
-275.0
 21
-325.0
 31
0.0
 12
-275.0
 22
-425.0
 32
0.0
 13
-375.0
 23
-425.0
 33
0.0
  0
3DFACE
  5
1A5
100
AcDbEntity
  8
àÍî 
370
               5
  6
Continuous
 62
               7
100
AcDbFace
 10
-375.0
 20
-425.0
 30
0.0
 11
-375.0
 21
-425.0
 31
25.0
 12
-375.0
 22
-325.0
 32
25.0
 13
-375.0
 23
-325.0
 33
0.0
  0
3DFACE
  5
1A6
100
AcDbEntity
  8
àÍî 
370
               5
  6
Continuous
 62
               7
100
AcDbFace
 10
-275.0
 20
-425.0
 30
0.0
 11
-275.0
 21
-425.0
 31
25.0
 12
-375.0
 22
-425.0
 32
25.0
 13
-375.0
 23
-425.0
 33
0.0
  0
3DFACE
  5
1A7
100
AcDbEntity
  8
àÍî 
370
               5
  6
Continuous
 62
               7
100
AcDbFace
 10
-275.0
 20
-325.0
 30
0.0
 11
-275.0
 21
-325.0
 31
25.0
 12
-275.0
 22
-425.0
 32
25.0
 13
-275.0
 23
-425.0
 33
0.0
  0
3DFACE
  5
1A8
100
AcDbEntity
  8
àÍî 
370
               5
  6
Continuous
 62
               7
100
AcDbFace
 10
-375.0
 20
-325.0
 30
0.0
 11
-375.0
 21
-325.0
 31
25.0
 12
-275.0
 22
-325.0
 32
25.0
 13
-275.0
 23
-325.0
 33
0.0
  0
3DFACE
  5
1A9
100
AcDbEntity
  8
àÍî 
370
               5
  6
Continuous
 62
               7
100
AcDbFace
 10
-375.0
 20
550.0
 30
25.0
 11
-275.0
 21
550.0
 31
25.0
 12
-275.0
 22
450.0
 32
25.0
 13
-375.0
 23
450.0
 33
25.0
  0
3DFACE
  5
1AA
100
AcDbEntity
  8
àÍî 
370
               5
  6
Continuous
 62
               7
100
AcDbFace
 10
-375.0
 20
550.0
 30
0.0
 11
-275.0
 21
550.0
 31
0.0
 12
-275.0
 22
450.0
 32
0.0
 13
-375.0
 23
450.0
 33
0.0
  0
3DFACE
  5
1AB
100
AcDbEntity
  8
àÍî 
370
               5
  6
Continuous
 62
               7
100
AcDbFace
 10
-375.0
 20
450.0
 30
0.0
 11
-375.0
 21
450.0
 31
25.0
 12
-375.0
 22
550.0
 32
25.0
 13
-375.0
 23
550.0
 33
0.0
  0
3DFACE
  5
1AC
100
AcDbEntity
  8
àÍî 
370
               5
  6
Continuous
 62
               7
100
AcDbFace
 10
-275.0
 20
450.0
 30
0.0
 11
-275.0
 21
450.0
 31
25.0
 12
-375.0
 22
450.0
 32
25.0
 13
-375.0
 23
450.0
 33
0.0
  0
3DFACE
  5
1AD
100
AcDbEntity
  8
àÍî 
370
               5
  6
Continuous
 62
               7
100
AcDbFace
 10
-275.0
 20
550.0
 30
0.0
 11
-275.0
 21
550.0
 31
25.0
 12
-275.0
 22
450.0
 32
25.0
 13
-275.0
 23
450.0
 33
0.0
  0
3DFACE
  5
1AE
100
AcDbEntity
  8
àÍî 
370
               5
  6
Continuous
 62
               7
100
AcDbFace
 10
-375.0
 20
550.0
 30
0.0
 11
-375.0
 21
550.0
 31
25.0
 12
-275.0
 22
550.0
 32
25.0
 13
-275.0
 23
550.0
 33
0.0
  0
3DFACE
  5
1AF
100
AcDbEntity
  8
àÍî 
370
               5
  6
Continuous
 62
               7
100
AcDbFace
 10
-375.0
 20
425.0
 30
25.0
 11
-275.0
 21
425.0
 31
25.0
 12
-275.0
 22
325.0
 32
25.0
 13
-375.0
 23
325.0
 33
25.0
  0
3DFACE
  5
1B0
100
AcDbEntity
  8
àÍî 
370
               5
  6
Continuous
 62
               7
100
AcDbFace
 10
-375.0
 20
425.0
 30
0.0
 11
-275.0
 21
425.0
 31
0.0
 12
-275.0
 22
325.0
 32
0.0
 13
-375.0
 23
325.0
 33
0.0
  0
3DFACE
  5
1B1
100
AcDbEntity
  8
àÍî 
370
               5
  6
Continuous
 62
               7
100
AcDbFace
 10
-375.0
 20
325.0
 30
0.0
 11
-375.0
 21
325.0
 31
25.0
 12
-375.0
 22
425.0
 32
25.0
 13
-375.0
 23
425.0
 33
0.0
  0
3DFACE
  5
1B2
100
AcDbEntity
  8
àÍî 
370
               5
  6
Continuous
 62
               7
100
AcDbFace
 10
-275.0
 20
325.0
 30
0.0
 11
-275.0
 21
325.0
 31
25.0
 12
-375.0
 22
325.0
 32
25.0
 13
-375.0
 23
325.0
 33
0.0
  0
3DFACE
  5
1B3
100
AcDbEntity
  8
àÍî 
370
               5
  6
Continuous
 62
               7
100
AcDbFace
 10
-275.0
 20
425.0
 30
0.0
 11
-275.0
 21
425.0
 31
25.0
 12
-275.0
 22
325.0
 32
25.0
 13
-275.0
 23
325.0
 33
0.0
  0
3DFACE
  5
1B4
100
AcDbEntity
  8
àÍî 
370
               5
  6
Continuous
 62
               7
100
AcDbFace
 10
-375.0
 20
425.0
 30
0.0
 11
-375.0
 21
425.0
 31
25.0
 12
-275.0
 22
425.0
 32
25.0
 13
-275.0
 23
425.0
 33
0.0
  0
3DFACE
  5
1B5
100
AcDbEntity
  8
àÍî 
370
               5
  6
Continuous
 62
               7
100
AcDbFace
 10
-375.0
 20
-200.0
 30
25.0
 11
-275.0
 21
-200.0
 31
25.0
 12
-275.0
 22
-300.0
 32
25.0
 13
-375.0
 23
-300.0
 33
25.0
  0
3DFACE
  5
1B6
100
AcDbEntity
  8
àÍî 
370
               5
  6
Continuous
 62
               7
100
AcDbFace
 10
-375.0
 20
-200.0
 30
0.0
 11
-275.0
 21
-200.0
 31
0.0
 12
-275.0
 22
-300.0
 32
0.0
 13
-375.0
 23
-300.0
 33
0.0
  0
3DFACE
  5
1B7
100
AcDbEntity
  8
àÍî 
370
               5
  6
Continuous
 62
               7
100
AcDbFace
 10
-375.0
 20
-300.0
 30
0.0
 11
-375.0
 21
-300.0
 31
25.0
 12
-375.0
 22
-200.0
 32
25.0
 13
-375.0
 23
-200.0
 33
0.0
  0
3DFACE
  5
1B8
100
AcDbEntity
  8
àÍî 
370
               5
  6
Continuous
 62
               7
100
AcDbFace
 10
-275.0
 20
-300.0
 30
0.0
 11
-275.0
 21
-300.0
 31
25.0
 12
-375.0
 22
-300.0
 32
25.0
 13
-375.0
 23
-300.0
 33
0.0
  0
3DFACE
  5
1B9
100
AcDbEntity
  8
àÍî 
370
               5
  6
Continuous
 62
               7
100
AcDbFace
 10
-275.0
 20
-200.0
 30
0.0
 11
-275.0
 21
-200.0
 31
25.0
 12
-275.0
 22
-300.0
 32
25.0
 13
-275.0
 23
-300.0
 33
0.0
  0
3DFACE
  5
1BA
100
AcDbEntity
  8
àÍî 
370
               5
  6
Continuous
 62
               7
100
AcDbFace
 10
-375.0
 20
-200.0
 30
0.0
 11
-375.0
 21
-200.0
 31
25.0
 12
-275.0
 22
-200.0
 32
25.0
 13
-275.0
 23
-200.0
 33
0.0
  0
3DFACE
  5
1BB
100
AcDbEntity
  8
àÍî 
370
               5
  6
Continuous
 62
               7
100
AcDbFace
 10
-375.0
 20
300.0
 30
25.0
 11
-275.0
 21
300.0
 31
25.0
 12
-275.0
 22
200.0
 32
25.0
 13
-375.0
 23
200.0
 33
25.0
  0
3DFACE
  5
1BC
100
AcDbEntity
  8
àÍî 
370
               5
  6
Continuous
 62
               7
100
AcDbFace
 10
-375.0
 20
300.0
 30
0.0
 11
-275.0
 21
300.0
 31
0.0
 12
-275.0
 22
200.0
 32
0.0
 13
-375.0
 23
200.0
 33
0.0
  0
3DFACE
  5
1BD
100
AcDbEntity
  8
àÍî 
370
               5
  6
Continuous
 62
               7
100
AcDbFace
 10
-375.0
 20
200.0
 30
0.0
 11
-375.0
 21
200.0
 31
25.0
 12
-375.0
 22
300.0
 32
25.0
 13
-375.0
 23
300.0
 33
0.0
  0
3DFACE
  5
1BE
100
AcDbEntity
  8
àÍî 
370
               5
  6
Continuous
 62
               7
100
AcDbFace
 10
-275.0
 20
200.0
 30
0.0
 11
-275.0
 21
200.0
 31
25.0
 12
-375.0
 22
200.0
 32
25.0
 13
-375.0
 23
200.0
 33
0.0
  0
3DFACE
  5
1BF
100
AcDbEntity
  8
àÍî 
370
               5
  6
Continuous
 62
               7
100
AcDbFace
 10
-275.0
 20
300.0
 30
0.0
 11
-275.0
 21
300.0
 31
25.0
 12
-275.0
 22
200.0
 32
25.0
 13
-275.0
 23
200.0
 33
0.0
  0
3DFACE
  5
1C0
100
AcDbEntity
  8
àÍî 
370
               5
  6
Continuous
 62
               7
100
AcDbFace
 10
-375.0
 20
300.0
 30
0.0
 11
-375.0
 21
300.0
 31
25.0
 12
-275.0
 22
300.0
 32
25.0
 13
-275.0
 23
300.0
 33
0.0
  0
3DFACE
  5
1C1
100
AcDbEntity
  8
àÍî 
370
               5
  6
Continuous
 62
               7
100
AcDbFace
 10
-375.0
 20
50.0
 30
25.0
 11
-275.0
 21
50.0
 31
25.0
 12
-275.0
 22
-50.0
 32
25.0
 13
-375.0
 23
-50.0
 33
25.0
  0
3DFACE
  5
1C2
100
AcDbEntity
  8
àÍî 
370
               5
  6
Continuous
 62
               7
100
AcDbFace
 10
-375.0
 20
50.0
 30
0.0
 11
-275.0
 21
50.0
 31
0.0
 12
-275.0
 22
-50.0
 32
0.0
 13
-375.0
 23
-50.0
 33
0.0
  0
3DFACE
  5
1C3
100
AcDbEntity
  8
àÍî 
370
               5
  6
Continuous
 62
               7
100
AcDbFace
 10
-375.0
 20
-50.0
 30
0.0
 11
-375.0
 21
-50.0
 31
25.0
 12
-375.0
 22
50.0
 32
25.0
 13
-375.0
 23
50.0
 33
0.0
  0
3DFACE
  5
1C4
100
AcDbEntity
  8
àÍî 
370
               5
  6
Continuous
 62
               7
100
AcDbFace
 10
-275.0
 20
-50.0
 30
0.0
 11
-275.0
 21
-50.0
 31
25.0
 12
-375.0
 22
-50.0
 32
25.0
 13
-375.0
 23
-50.0
 33
0.0
  0
3DFACE
  5
1C5
100
AcDbEntity
  8
àÍî 
370
               5
  6
Continuous
 62
               7
100
AcDbFace
 10
-275.0
 20
50.0
 30
0.0
 11
-275.0
 21
50.0
 31
25.0
 12
-275.0
 22
-50.0
 32
25.0
 13
-275.0
 23
-50.0
 33
0.0
  0
3DFACE
  5
1C6
100
AcDbEntity
  8
àÍî 
370
               5
  6
Continuous
 62
               7
100
AcDbFace
 10
-375.0
 20
50.0
 30
0.0
 11
-375.0
 21
50.0
 31
25.0
 12
-275.0
 22
50.0
 32
25.0
 13
-275.0
 23
50.0
 33
0.0
  0
3DFACE
  5
1C7
100
AcDbEntity
  8
àÍî 
370
               5
  6
Continuous
 62
               7
100
AcDbFace
 10
-375.0
 20
-75.0
 30
25.0
 11
-275.0
 21
-75.0
 31
25.0
 12
-275.0
 22
-175.0
 32
25.0
 13
-375.0
 23
-175.0
 33
25.0
  0
3DFACE
  5
1C8
100
AcDbEntity
  8
àÍî 
370
               5
  6
Continuous
 62
               7
100
AcDbFace
 10
-375.0
 20
-75.0
 30
0.0
 11
-275.0
 21
-75.0
 31
0.0
 12
-275.0
 22
-175.0
 32
0.0
 13
-375.0
 23
-175.0
 33
0.0
  0
3DFACE
  5
1C9
100
AcDbEntity
  8
àÍî 
370
               5
  6
Continuous
 62
               7
100
AcDbFace
 10
-375.0
 20
-175.0
 30
0.0
 11
-375.0
 21
-175.0
 31
25.0
 12
-375.0
 22
-75.0
 32
25.0
 13
-375.0
 23
-75.0
 33
0.0
  0
3DFACE
  5
1CA
100
AcDbEntity
  8
àÍî 
370
               5
  6
Continuous
 62
               7
100
AcDbFace
 10
-275.0
 20
-175.0
 30
0.0
 11
-275.0
 21
-175.0
 31
25.0
 12
-375.0
 22
-175.0
 32
25.0
 13
-375.0
 23
-175.0
 33
0.0
  0
3DFACE
  5
1CB
100
AcDbEntity
  8
àÍî 
370
               5
  6
Continuous
 62
               7
100
AcDbFace
 10
-275.0
 20
-75.0
 30
0.0
 11
-275.0
 21
-75.0
 31
25.0
 12
-275.0
 22
-175.0
 32
25.0
 13
-275.0
 23
-175.0
 33
0.0
  0
3DFACE
  5
1CC
100
AcDbEntity
  8
àÍî 
370
               5
  6
Continuous
 62
               7
100
AcDbFace
 10
-375.0
 20
-75.0
 30
0.0
 11
-375.0
 21
-75.0
 31
25.0
 12
-275.0
 22
-75.0
 32
25.0
 13
-275.0
 23
-75.0
 33
0.0
  0
3DFACE
  5
1CD
100
AcDbEntity
  8
àÍî 
370
               5
  6
Continuous
 62
               7
100
AcDbFace
 10
-375.0
 20
175.0
 30
25.0
 11
-275.0
 21
175.0
 31
25.0
 12
-275.0
 22
75.0
 32
25.0
 13
-375.0
 23
75.0
 33
25.0
  0
3DFACE
  5
1CE
100
AcDbEntity
  8
àÍî 
370
               5
  6
Continuous
 62
               7
100
AcDbFace
 10
-375.0
 20
175.0
 30
0.0
 11
-275.0
 21
175.0
 31
0.0
 12
-275.0
 22
75.0
 32
0.0
 13
-375.0
 23
75.0
 33
0.0
  0
3DFACE
  5
1CF
100
AcDbEntity
  8
àÍî 
370
               5
  6
Continuous
 62
               7
100
AcDbFace
 10
-375.0
 20
75.0
 30
0.0
 11
-375.0
 21
75.0
 31
25.0
 12
-375.0
 22
175.0
 32
25.0
 13
-375.0
 23
175.0
 33
0.0
  0
3DFACE
  5
1D0
100
AcDbEntity
  8
àÍî 
370
               5
  6
Continuous
 62
               7
100
AcDbFace
 10
-275.0
 20
75.0
 30
0.0
 11
-275.0
 21
75.0
 31
25.0
 12
-375.0
 22
75.0
 32
25.0
 13
-375.0
 23
75.0
 33
0.0
  0
3DFACE
  5
1D1
100
AcDbEntity
  8
àÍî 
370
               5
  6
Continuous
 62
               7
100
AcDbFace
 10
-275.0
 20
175.0
 30
0.0
 11
-275.0
 21
175.0
 31
25.0
 12
-275.0
 22
75.0
 32
25.0
 13
-275.0
 23
75.0
 33
0.0
  0
3DFACE
  5
1D2
100
AcDbEntity
  8
àÍî 
370
               5
  6
Continuous
 62
               7
100
AcDbFace
 10
-375.0
 20
175.0
 30
0.0
 11
-375.0
 21
175.0
 31
25.0
 12
-275.0
 22
175.0
 32
25.0
 13
-275.0
 23
175.0
 33
0.0
  0
3DFACE
  5
1D3
100
AcDbEntity
  8
àÍî 
370
               5
  6
Continuous
 62
               7
100
AcDbFace
 10
-200.0
 20
-575.0
 30
25.0
 11
-100.0
 21
-575.0
 31
25.0
 12
-100.0
 22
-675.0
 32
25.0
 13
-200.0
 23
-675.0
 33
25.0
  0
3DFACE
  5
1D4
100
AcDbEntity
  8
àÍî 
370
               5
  6
Continuous
 62
               7
100
AcDbFace
 10
-200.0
 20
-575.0
 30
0.0
 11
-100.0
 21
-575.0
 31
0.0
 12
-100.0
 22
-675.0
 32
0.0
 13
-200.0
 23
-675.0
 33
0.0
  0
3DFACE
  5
1D5
100
AcDbEntity
  8
àÍî 
370
               5
  6
Continuous
 62
               7
100
AcDbFace
 10
-200.0
 20
-675.0
 30
0.0
 11
-200.0
 21
-675.0
 31
25.0
 12
-200.0
 22
-575.0
 32
25.0
 13
-200.0
 23
-575.0
 33
0.0
  0
3DFACE
  5
1D6
100
AcDbEntity
  8
àÍî 
370
               5
  6
Continuous
 62
               7
100
AcDbFace
 10
-100.0
 20
-675.0
 30
0.0
 11
-100.0
 21
-675.0
 31
25.0
 12
-200.0
 22
-675.0
 32
25.0
 13
-200.0
 23
-675.0
 33
0.0
  0
3DFACE
  5
1D7
100
AcDbEntity
  8
àÍî 
370
               5
  6
Continuous
 62
               7
100
AcDbFace
 10
-100.0
 20
-575.0
 30
0.0
 11
-100.0
 21
-575.0
 31
25.0
 12
-100.0
 22
-675.0
 32
25.0
 13
-100.0
 23
-675.0
 33
0.0
  0
3DFACE
  5
1D8
100
AcDbEntity
  8
àÍî 
370
               5
  6
Continuous
 62
               7
100
AcDbFace
 10
-200.0
 20
-575.0
 30
0.0
 11
-200.0
 21
-575.0
 31
25.0
 12
-100.0
 22
-575.0
 32
25.0
 13
-100.0
 23
-575.0
 33
0.0
  0
3DFACE
  5
1D9
100
AcDbEntity
  8
àÍî 
370
               5
  6
Continuous
 62
               7
100
AcDbFace
 10
125.0
 20
-575.0
 30
25.0
 11
225.0
 21
-575.0
 31
25.0
 12
225.0
 22
-675.0
 32
25.0
 13
125.0
 23
-675.0
 33
25.0
  0
3DFACE
  5
1DA
100
AcDbEntity
  8
àÍî 
370
               5
  6
Continuous
 62
               7
100
AcDbFace
 10
125.0
 20
-575.0
 30
0.0
 11
225.0
 21
-575.0
 31
0.0
 12
225.0
 22
-675.0
 32
0.0
 13
125.0
 23
-675.0
 33
0.0
  0
3DFACE
  5
1DB
100
AcDbEntity
  8
àÍî 
370
               5
  6
Continuous
 62
               7
100
AcDbFace
 10
125.0
 20
-675.0
 30
0.0
 11
125.0
 21
-675.0
 31
25.0
 12
125.0
 22
-575.0
 32
25.0
 13
125.0
 23
-575.0
 33
0.0
  0
3DFACE
  5
1DC
100
AcDbEntity
  8
àÍî 
370
               5
  6
Continuous
 62
               7
100
AcDbFace
 10
225.0
 20
-675.0
 30
0.0
 11
225.0
 21
-675.0
 31
25.0
 12
125.0
 22
-675.0
 32
25.0
 13
125.0
 23
-675.0
 33
0.0
  0
3DFACE
  5
1DD
100
AcDbEntity
  8
àÍî 
370
               5
  6
Continuous
 62
               7
100
AcDbFace
 10
225.0
 20
-575.0
 30
0.0
 11
225.0
 21
-575.0
 31
25.0
 12
225.0
 22
-675.0
 32
25.0
 13
225.0
 23
-675.0
 33
0.0
  0
3DFACE
  5
1DE
100
AcDbEntity
  8
àÍî 
370
               5
  6
Continuous
 62
               7
100
AcDbFace
 10
125.0
 20
-575.0
 30
0.0
 11
125.0
 21
-575.0
 31
25.0
 12
225.0
 22
-575.0
 32
25.0
 13
225.0
 23
-575.0
 33
0.0
  0
3DFACE
  5
1DF
100
AcDbEntity
  8
àÍî 
370
               5
  6
Continuous
 62
               7
100
AcDbFace
 10
-50.0
 20
-575.0
 30
25.0
 11
50.0
 21
-575.0
 31
25.0
 12
50.0
 22
-675.0
 32
25.0
 13
-50.0
 23
-675.0
 33
25.0
  0
3DFACE
  5
1E0
100
AcDbEntity
  8
àÍî 
370
               5
  6
Continuous
 62
               7
100
AcDbFace
 10
-50.0
 20
-575.0
 30
0.0
 11
50.0
 21
-575.0
 31
0.0
 12
50.0
 22
-675.0
 32
0.0
 13
-50.0
 23
-675.0
 33
0.0
  0
3DFACE
  5
1E1
100
AcDbEntity
  8
àÍî 
370
               5
  6
Continuous
 62
               7
100
AcDbFace
 10
-50.0
 20
-675.0
 30
0.0
 11
-50.0
 21
-675.0
 31
25.0
 12
-50.0
 22
-575.0
 32
25.0
 13
-50.0
 23
-575.0
 33
0.0
  0
3DFACE
  5
1E2
100
AcDbEntity
  8
àÍî 
370
               5
  6
Continuous
 62
               7
100
AcDbFace
 10
50.0
 20
-675.0
 30
0.0
 11
50.0
 21
-675.0
 31
25.0
 12
-50.0
 22
-675.0
 32
25.0
 13
-50.0
 23
-675.0
 33
0.0
  0
3DFACE
  5
1E3
100
AcDbEntity
  8
àÍî 
370
               5
  6
Continuous
 62
               7
100
AcDbFace
 10
50.0
 20
-575.0
 30
0.0
 11
50.0
 21
-575.0
 31
25.0
 12
50.0
 22
-675.0
 32
25.0
 13
50.0
 23
-675.0
 33
0.0
  0
3DFACE
  5
1E4
100
AcDbEntity
  8
àÍî 
370
               5
  6
Continuous
 62
               7
100
AcDbFace
 10
-50.0
 20
-575.0
 30
0.0
 11
-50.0
 21
-575.0
 31
25.0
 12
50.0
 22
-575.0
 32
25.0
 13
50.0
 23
-575.0
 33
0.0
  0
3DFACE
  5
1E5
100
AcDbEntity
  8
àÍî 
370
               5
  6
Continuous
 62
               7
100
AcDbFace
 10
275.0
 20
-450.0
 30
25.0
 11
375.0
 21
-450.0
 31
25.0
 12
375.0
 22
-550.0
 32
25.0
 13
275.0
 23
-550.0
 33
25.0
  0
3DFACE
  5
1E6
100
AcDbEntity
  8
àÍî 
370
               5
  6
Continuous
 62
               7
100
AcDbFace
 10
275.0
 20
-450.0
 30
0.0
 11
375.0
 21
-450.0
 31
0.0
 12
375.0
 22
-550.0
 32
0.0
 13
275.0
 23
-550.0
 33
0.0
  0
3DFACE
  5
1E7
100
AcDbEntity
  8
àÍî 
370
               5
  6
Continuous
 62
               7
100
AcDbFace
 10
275.0
 20
-550.0
 30
0.0
 11
275.0
 21
-550.0
 31
25.0
 12
275.0
 22
-450.0
 32
25.0
 13
275.0
 23
-450.0
 33
0.0
  0
3DFACE
  5
1E8
100
AcDbEntity
  8
àÍî 
370
               5
  6
Continuous
 62
               7
100
AcDbFace
 10
375.0
 20
-550.0
 30
0.0
 11
375.0
 21
-550.0
 31
25.0
 12
275.0
 22
-550.0
 32
25.0
 13
275.0
 23
-550.0
 33
0.0
  0
3DFACE
  5
1E9
100
AcDbEntity
  8
àÍî 
370
               5
  6
Continuous
 62
               7
100
AcDbFace
 10
375.0
 20
-450.0
 30
0.0
 11
375.0
 21
-450.0
 31
25.0
 12
375.0
 22
-550.0
 32
25.0
 13
375.0
 23
-550.0
 33
0.0
  0
3DFACE
  5
1EA
100
AcDbEntity
  8
àÍî 
370
               5
  6
Continuous
 62
               7
100
AcDbFace
 10
275.0
 20
-450.0
 30
0.0
 11
275.0
 21
-450.0
 31
25.0
 12
375.0
 22
-450.0
 32
25.0
 13
375.0
 23
-450.0
 33
0.0
  0
3DFACE
  5
1EB
100
AcDbEntity
  8
àÍî 
370
               5
  6
Continuous
 62
               7
100
AcDbFace
 10
-375.0
 20
-450.0
 30
25.0
 11
-275.0
 21
-450.0
 31
25.0
 12
-275.0
 22
-550.0
 32
25.0
 13
-375.0
 23
-550.0
 33
25.0
  0
3DFACE
  5
1EC
100
AcDbEntity
  8
àÍî 
370
               5
  6
Continuous
 62
               7
100
AcDbFace
 10
-375.0
 20
-450.0
 30
0.0
 11
-275.0
 21
-450.0
 31
0.0
 12
-275.0
 22
-550.0
 32
0.0
 13
-375.0
 23
-550.0
 33
0.0
  0
3DFACE
  5
1ED
100
AcDbEntity
  8
àÍî 
370
               5
  6
Continuous
 62
               7
100
AcDbFace
 10
-375.0
 20
-550.0
 30
0.0
 11
-375.0
 21
-550.0
 31
25.0
 12
-375.0
 22
-450.0
 32
25.0
 13
-375.0
 23
-450.0
 33
0.0
  0
3DFACE
  5
1EE
100
AcDbEntity
  8
àÍî 
370
               5
  6
Continuous
 62
               7
100
AcDbFace
 10
-275.0
 20
-550.0
 30
0.0
 11
-275.0
 21
-550.0
 31
25.0
 12
-375.0
 22
-550.0
 32
25.0
 13
-375.0
 23
-550.0
 33
0.0
  0
3DFACE
  5
1EF
100
AcDbEntity
  8
àÍî 
370
               5
  6
Continuous
 62
               7
100
AcDbFace
 10
-275.0
 20
-450.0
 30
0.0
 11
-275.0
 21
-450.0
 31
25.0
 12
-275.0
 22
-550.0
 32
25.0
 13
-275.0
 23
-550.0
 33
0.0
  0
3DFACE
  5
1F0
100
AcDbEntity
  8
àÍî 
370
               5
  6
Continuous
 62
               7
100
AcDbFace
 10
-375.0
 20
-450.0
 30
0.0
 11
-375.0
 21
-450.0
 31
25.0
 12
-275.0
 22
-450.0
 32
25.0
 13
-275.0
 23
-450.0
 33
0.0
  0
3DFACE
  5
1F1
100
AcDbEntity
  8
àÍî 
370
               5
  6
Continuous
 62
               7
100
AcDbFace
 10
-200.0
 20
-450.0
 30
25.0
 11
-100.0
 21
-450.0
 31
25.0
 12
-100.0
 22
-550.0
 32
25.0
 13
-200.0
 23
-550.0
 33
25.0
  0
3DFACE
  5
1F2
100
AcDbEntity
  8
àÍî 
370
               5
  6
Continuous
 62
               7
100
AcDbFace
 10
-200.0
 20
-450.0
 30
0.0
 11
-100.0
 21
-450.0
 31
0.0
 12
-100.0
 22
-550.0
 32
0.0
 13
-200.0
 23
-550.0
 33
0.0
  0
3DFACE
  5
1F3
100
AcDbEntity
  8
àÍî 
370
               5
  6
Continuous
 62
               7
100
AcDbFace
 10
-200.0
 20
-550.0
 30
0.0
 11
-200.0
 21
-550.0
 31
25.0
 12
-200.0
 22
-450.0
 32
25.0
 13
-200.0
 23
-450.0
 33
0.0
  0
3DFACE
  5
1F4
100
AcDbEntity
  8
àÍî 
370
               5
  6
Continuous
 62
               7
100
AcDbFace
 10
-100.0
 20
-550.0
 30
0.0
 11
-100.0
 21
-550.0
 31
25.0
 12
-200.0
 22
-550.0
 32
25.0
 13
-200.0
 23
-550.0
 33
0.0
  0
3DFACE
  5
1F5
100
AcDbEntity
  8
àÍî 
370
               5
  6
Continuous
 62
               7
100
AcDbFace
 10
-100.0
 20
-450.0
 30
0.0
 11
-100.0
 21
-450.0
 31
25.0
 12
-100.0
 22
-550.0
 32
25.0
 13
-100.0
 23
-550.0
 33
0.0
  0
3DFACE
  5
1F6
100
AcDbEntity
  8
àÍî 
370
               5
  6
Continuous
 62
               7
100
AcDbFace
 10
-200.0
 20
-450.0
 30
0.0
 11
-200.0
 21
-450.0
 31
25.0
 12
-100.0
 22
-450.0
 32
25.0
 13
-100.0
 23
-450.0
 33
0.0
  0
3DFACE
  5
1F7
100
AcDbEntity
  8
àÍî 
370
               5
  6
Continuous
 62
               7
100
AcDbFace
 10
125.0
 20
-450.0
 30
25.0
 11
225.0
 21
-450.0
 31
25.0
 12
225.0
 22
-550.0
 32
25.0
 13
125.0
 23
-550.0
 33
25.0
  0
3DFACE
  5
1F8
100
AcDbEntity
  8
àÍî 
370
               5
  6
Continuous
 62
               7
100
AcDbFace
 10
125.0
 20
-450.0
 30
0.0
 11
225.0
 21
-450.0
 31
0.0
 12
225.0
 22
-550.0
 32
0.0
 13
125.0
 23
-550.0
 33
0.0
  0
3DFACE
  5
1F9
100
AcDbEntity
  8
àÍî 
370
               5
  6
Continuous
 62
               7
100
AcDbFace
 10
125.0
 20
-550.0
 30
0.0
 11
125.0
 21
-550.0
 31
25.0
 12
125.0
 22
-450.0
 32
25.0
 13
125.0
 23
-450.0
 33
0.0
  0
3DFACE
  5
1FA
100
AcDbEntity
  8
àÍî 
370
               5
  6
Continuous
 62
               7
100
AcDbFace
 10
225.0
 20
-550.0
 30
0.0
 11
225.0
 21
-550.0
 31
25.0
 12
125.0
 22
-550.0
 32
25.0
 13
125.0
 23
-550.0
 33
0.0
  0
3DFACE
  5
1FB
100
AcDbEntity
  8
àÍî 
370
               5
  6
Continuous
 62
               7
100
AcDbFace
 10
225.0
 20
-450.0
 30
0.0
 11
225.0
 21
-450.0
 31
25.0
 12
225.0
 22
-550.0
 32
25.0
 13
225.0
 23
-550.0
 33
0.0
  0
3DFACE
  5
1FC
100
AcDbEntity
  8
àÍî 
370
               5
  6
Continuous
 62
               7
100
AcDbFace
 10
125.0
 20
-450.0
 30
0.0
 11
125.0
 21
-450.0
 31
25.0
 12
225.0
 22
-450.0
 32
25.0
 13
225.0
 23
-450.0
 33
0.0
  0
3DFACE
  5
1FD
100
AcDbEntity
  8
àÍî 
370
               5
  6
Continuous
 62
               7
100
AcDbFace
 10
-50.0
 20
-450.0
 30
25.0
 11
50.0
 21
-450.0
 31
25.0
 12
50.0
 22
-550.0
 32
25.0
 13
-50.0
 23
-550.0
 33
25.0
  0
3DFACE
  5
1FE
100
AcDbEntity
  8
àÍî 
370
               5
  6
Continuous
 62
               7
100
AcDbFace
 10
-50.0
 20
-450.0
 30
0.0
 11
50.0
 21
-450.0
 31
0.0
 12
50.0
 22
-550.0
 32
0.0
 13
-50.0
 23
-550.0
 33
0.0
  0
3DFACE
  5
1FF
100
AcDbEntity
  8
àÍî 
370
               5
  6
Continuous
 62
               7
100
AcDbFace
 10
-50.0
 20
-550.0
 30
0.0
 11
-50.0
 21
-550.0
 31
25.0
 12
-50.0
 22
-450.0
 32
25.0
 13
-50.0
 23
-450.0
 33
0.0
  0
3DFACE
  5
200
100
AcDbEntity
  8
àÍî 
370
               5
  6
Continuous
 62
               7
100
AcDbFace
 10
50.0
 20
-550.0
 30
0.0
 11
50.0
 21
-550.0
 31
25.0
 12
-50.0
 22
-550.0
 32
25.0
 13
-50.0
 23
-550.0
 33
0.0
  0
3DFACE
  5
201
100
AcDbEntity
  8
àÍî 
370
               5
  6
Continuous
 62
               7
100
AcDbFace
 10
50.0
 20
-450.0
 30
0.0
 11
50.0
 21
-450.0
 31
25.0
 12
50.0
 22
-550.0
 32
25.0
 13
50.0
 23
-550.0
 33
0.0
  0
3DFACE
  5
202
100
AcDbEntity
  8
àÍî 
370
               5
  6
Continuous
 62
               7
100
AcDbFace
 10
-50.0
 20
-450.0
 30
0.0
 11
-50.0
 21
-450.0
 31
25.0
 12
50.0
 22
-450.0
 32
25.0
 13
50.0
 23
-450.0
 33
0.0
  0
3DFACE
  5
203
100
AcDbEntity
  8
àÍî 
370
               5
  6
Continuous
 62
               7
100
AcDbFace
 10
275.0
 20
-325.0
 30
25.0
 11
375.0
 21
-325.0
 31
25.0
 12
375.0
 22
-425.0
 32
25.0
 13
275.0
 23
-425.0
 33
25.0
  0
3DFACE
  5
204
100
AcDbEntity
  8
àÍî 
370
               5
  6
Continuous
 62
               7
100
AcDbFace
 10
275.0
 20
-325.0
 30
0.0
 11
375.0
 21
-325.0
 31
0.0
 12
375.0
 22
-425.0
 32
0.0
 13
275.0
 23
-425.0
 33
0.0
  0
3DFACE
  5
205
100
AcDbEntity
  8
àÍî 
370
               5
  6
Continuous
 62
               7
100
AcDbFace
 10
275.0
 20
-425.0
 30
0.0
 11
275.0
 21
-425.0
 31
25.0
 12
275.0
 22
-325.0
 32
25.0
 13
275.0
 23
-325.0
 33
0.0
  0
3DFACE
  5
206
100
AcDbEntity
  8
àÍî 
370
               5
  6
Continuous
 62
               7
100
AcDbFace
 10
375.0
 20
-425.0
 30
0.0
 11
375.0
 21
-425.0
 31
25.0
 12
275.0
 22
-425.0
 32
25.0
 13
275.0
 23
-425.0
 33
0.0
  0
3DFACE
  5
207
100
AcDbEntity
  8
àÍî 
370
               5
  6
Continuous
 62
               7
100
AcDbFace
 10
375.0
 20
-325.0
 30
0.0
 11
375.0
 21
-325.0
 31
25.0
 12
375.0
 22
-425.0
 32
25.0
 13
375.0
 23
-425.0
 33
0.0
  0
3DFACE
  5
208
100
AcDbEntity
  8
àÍî 
370
               5
  6
Continuous
 62
               7
100
AcDbFace
 10
275.0
 20
-325.0
 30
0.0
 11
275.0
 21
-325.0
 31
25.0
 12
375.0
 22
-325.0
 32
25.0
 13
375.0
 23
-325.0
 33
0.0
  0
3DFACE
  5
209
100
AcDbEntity
  8
àÍî 
370
               5
  6
Continuous
 62
               7
100
AcDbFace
 10
-375.0
 20
-325.0
 30
25.0
 11
-275.0
 21
-325.0
 31
25.0
 12
-275.0
 22
-425.0
 32
25.0
 13
-375.0
 23
-425.0
 33
25.0
  0
3DFACE
  5
20A
100
AcDbEntity
  8
àÍî 
370
               5
  6
Continuous
 62
               7
100
AcDbFace
 10
-375.0
 20
-325.0
 30
0.0
 11
-275.0
 21
-325.0
 31
0.0
 12
-275.0
 22
-425.0
 32
0.0
 13
-375.0
 23
-425.0
 33
0.0
  0
3DFACE
  5
20B
100
AcDbEntity
  8
àÍî 
370
               5
  6
Continuous
 62
               7
100
AcDbFace
 10
-375.0
 20
-425.0
 30
0.0
 11
-375.0
 21
-425.0
 31
25.0
 12
-375.0
 22
-325.0
 32
25.0
 13
-375.0
 23
-325.0
 33
0.0
  0
3DFACE
  5
20C
100
AcDbEntity
  8
àÍî 
370
               5
  6
Continuous
 62
               7
100
AcDbFace
 10
-275.0
 20
-425.0
 30
0.0
 11
-275.0
 21
-425.0
 31
25.0
 12
-375.0
 22
-425.0
 32
25.0
 13
-375.0
 23
-425.0
 33
0.0
  0
3DFACE
  5
20D
100
AcDbEntity
  8
àÍî 
370
               5
  6
Continuous
 62
               7
100
AcDbFace
 10
-275.0
 20
-325.0
 30
0.0
 11
-275.0
 21
-325.0
 31
25.0
 12
-275.0
 22
-425.0
 32
25.0
 13
-275.0
 23
-425.0
 33
0.0
  0
3DFACE
  5
20E
100
AcDbEntity
  8
àÍî 
370
               5
  6
Continuous
 62
               7
100
AcDbFace
 10
-375.0
 20
-325.0
 30
0.0
 11
-375.0
 21
-325.0
 31
25.0
 12
-275.0
 22
-325.0
 32
25.0
 13
-275.0
 23
-325.0
 33
0.0
  0
3DFACE
  5
20F
100
AcDbEntity
  8
àÍî 
370
               5
  6
Continuous
 62
               7
100
AcDbFace
 10
-200.0
 20
-325.0
 30
25.0
 11
-100.0
 21
-325.0
 31
25.0
 12
-100.0
 22
-425.0
 32
25.0
 13
-200.0
 23
-425.0
 33
25.0
  0
3DFACE
  5
210
100
AcDbEntity
  8
àÍî 
370
               5
  6
Continuous
 62
               7
100
AcDbFace
 10
-200.0
 20
-325.0
 30
0.0
 11
-100.0
 21
-325.0
 31
0.0
 12
-100.0
 22
-425.0
 32
0.0
 13
-200.0
 23
-425.0
 33
0.0
  0
3DFACE
  5
211
100
AcDbEntity
  8
àÍî 
370
               5
  6
Continuous
 62
               7
100
AcDbFace
 10
-200.0
 20
-425.0
 30
0.0
 11
-200.0
 21
-425.0
 31
25.0
 12
-200.0
 22
-325.0
 32
25.0
 13
-200.0
 23
-325.0
 33
0.0
  0
3DFACE
  5
212
100
AcDbEntity
  8
àÍî 
370
               5
  6
Continuous
 62
               7
100
AcDbFace
 10
-100.0
 20
-425.0
 30
0.0
 11
-100.0
 21
-425.0
 31
25.0
 12
-200.0
 22
-425.0
 32
25.0
 13
-200.0
 23
-425.0
 33
0.0
  0
3DFACE
  5
213
100
AcDbEntity
  8
àÍî 
370
               5
  6
Continuous
 62
               7
100
AcDbFace
 10
-100.0
 20
-325.0
 30
0.0
 11
-100.0
 21
-325.0
 31
25.0
 12
-100.0
 22
-425.0
 32
25.0
 13
-100.0
 23
-425.0
 33
0.0
  0
3DFACE
  5
214
100
AcDbEntity
  8
àÍî 
370
               5
  6
Continuous
 62
               7
100
AcDbFace
 10
-200.0
 20
-325.0
 30
0.0
 11
-200.0
 21
-325.0
 31
25.0
 12
-100.0
 22
-325.0
 32
25.0
 13
-100.0
 23
-325.0
 33
0.0
  0
3DFACE
  5
215
100
AcDbEntity
  8
àÍî 
370
               5
  6
Continuous
 62
               7
100
AcDbFace
 10
125.0
 20
-325.0
 30
25.0
 11
225.0
 21
-325.0
 31
25.0
 12
225.0
 22
-425.0
 32
25.0
 13
125.0
 23
-425.0
 33
25.0
  0
3DFACE
  5
216
100
AcDbEntity
  8
àÍî 
370
               5
  6
Continuous
 62
               7
100
AcDbFace
 10
125.0
 20
-325.0
 30
0.0
 11
225.0
 21
-325.0
 31
0.0
 12
225.0
 22
-425.0
 32
0.0
 13
125.0
 23
-425.0
 33
0.0
  0
3DFACE
  5
217
100
AcDbEntity
  8
àÍî 
370
               5
  6
Continuous
 62
               7
100
AcDbFace
 10
125.0
 20
-425.0
 30
0.0
 11
125.0
 21
-425.0
 31
25.0
 12
125.0
 22
-325.0
 32
25.0
 13
125.0
 23
-325.0
 33
0.0
  0
3DFACE
  5
218
100
AcDbEntity
  8
àÍî 
370
               5
  6
Continuous
 62
               7
100
AcDbFace
 10
225.0
 20
-425.0
 30
0.0
 11
225.0
 21
-425.0
 31
25.0
 12
125.0
 22
-425.0
 32
25.0
 13
125.0
 23
-425.0
 33
0.0
  0
3DFACE
  5
219
100
AcDbEntity
  8
àÍî 
370
               5
  6
Continuous
 62
               7
100
AcDbFace
 10
225.0
 20
-325.0
 30
0.0
 11
225.0
 21
-325.0
 31
25.0
 12
225.0
 22
-425.0
 32
25.0
 13
225.0
 23
-425.0
 33
0.0
  0
3DFACE
  5
21A
100
AcDbEntity
  8
àÍî 
370
               5
  6
Continuous
 62
               7
100
AcDbFace
 10
125.0
 20
-325.0
 30
0.0
 11
125.0
 21
-325.0
 31
25.0
 12
225.0
 22
-325.0
 32
25.0
 13
225.0
 23
-325.0
 33
0.0
  0
3DFACE
  5
21B
100
AcDbEntity
  8
àÍî 
370
               5
  6
Continuous
 62
               7
100
AcDbFace
 10
-50.0
 20
-325.0
 30
25.0
 11
50.0
 21
-325.0
 31
25.0
 12
50.0
 22
-425.0
 32
25.0
 13
-50.0
 23
-425.0
 33
25.0
  0
3DFACE
  5
21C
100
AcDbEntity
  8
àÍî 
370
               5
  6
Continuous
 62
               7
100
AcDbFace
 10
-50.0
 20
-325.0
 30
0.0
 11
50.0
 21
-325.0
 31
0.0
 12
50.0
 22
-425.0
 32
0.0
 13
-50.0
 23
-425.0
 33
0.0
  0
3DFACE
  5
21D
100
AcDbEntity
  8
àÍî 
370
               5
  6
Continuous
 62
               7
100
AcDbFace
 10
-50.0
 20
-425.0
 30
0.0
 11
-50.0
 21
-425.0
 31
25.0
 12
-50.0
 22
-325.0
 32
25.0
 13
-50.0
 23
-325.0
 33
0.0
  0
3DFACE
  5
21E
100
AcDbEntity
  8
àÍî 
370
               5
  6
Continuous
 62
               7
100
AcDbFace
 10
50.0
 20
-425.0
 30
0.0
 11
50.0
 21
-425.0
 31
25.0
 12
-50.0
 22
-425.0
 32
25.0
 13
-50.0
 23
-425.0
 33
0.0
  0
3DFACE
  5
21F
100
AcDbEntity
  8
àÍî 
370
               5
  6
Continuous
 62
               7
100
AcDbFace
 10
50.0
 20
-325.0
 30
0.0
 11
50.0
 21
-325.0
 31
25.0
 12
50.0
 22
-425.0
 32
25.0
 13
50.0
 23
-425.0
 33
0.0
  0
3DFACE
  5
220
100
AcDbEntity
  8
àÍî 
370
               5
  6
Continuous
 62
               7
100
AcDbFace
 10
-50.0
 20
-325.0
 30
0.0
 11
-50.0
 21
-325.0
 31
25.0
 12
50.0
 22
-325.0
 32
25.0
 13
50.0
 23
-325.0
 33
0.0
  0
3DFACE
  5
221
100
AcDbEntity
  8
àÍî 
370
               5
  6
Continuous
 62
               7
100
AcDbFace
 10
-200.0
 20
675.0
 30
25.0
 11
-100.0
 21
675.0
 31
25.0
 12
-100.0
 22
575.0
 32
25.0
 13
-200.0
 23
575.0
 33
25.0
  0
3DFACE
  5
222
100
AcDbEntity
  8
àÍî 
370
               5
  6
Continuous
 62
               7
100
AcDbFace
 10
-200.0
 20
675.0
 30
0.0
 11
-100.0
 21
675.0
 31
0.0
 12
-100.0
 22
575.0
 32
0.0
 13
-200.0
 23
575.0
 33
0.0
  0
3DFACE
  5
223
100
AcDbEntity
  8
àÍî 
370
               5
  6
Continuous
 62
               7
100
AcDbFace
 10
-200.0
 20
575.0
 30
0.0
 11
-200.0
 21
575.0
 31
25.0
 12
-200.0
 22
675.0
 32
25.0
 13
-200.0
 23
675.0
 33
0.0
  0
3DFACE
  5
224
100
AcDbEntity
  8
àÍî 
370
               5
  6
Continuous
 62
               7
100
AcDbFace
 10
-100.0
 20
575.0
 30
0.0
 11
-100.0
 21
575.0
 31
25.0
 12
-200.0
 22
575.0
 32
25.0
 13
-200.0
 23
575.0
 33
0.0
  0
3DFACE
  5
225
100
AcDbEntity
  8
àÍî 
370
               5
  6
Continuous
 62
               7
100
AcDbFace
 10
-100.0
 20
675.0
 30
0.0
 11
-100.0
 21
675.0
 31
25.0
 12
-100.0
 22
575.0
 32
25.0
 13
-100.0
 23
575.0
 33
0.0
  0
3DFACE
  5
226
100
AcDbEntity
  8
àÍî 
370
               5
  6
Continuous
 62
               7
100
AcDbFace
 10
-200.0
 20
675.0
 30
0.0
 11
-200.0
 21
675.0
 31
25.0
 12
-100.0
 22
675.0
 32
25.0
 13
-100.0
 23
675.0
 33
0.0
  0
3DFACE
  5
227
100
AcDbEntity
  8
àÍî 
370
               5
  6
Continuous
 62
               7
100
AcDbFace
 10
125.0
 20
675.0
 30
25.0
 11
225.0
 21
675.0
 31
25.0
 12
225.0
 22
575.0
 32
25.0
 13
125.0
 23
575.0
 33
25.0
  0
3DFACE
  5
228
100
AcDbEntity
  8
àÍî 
370
               5
  6
Continuous
 62
               7
100
AcDbFace
 10
125.0
 20
675.0
 30
0.0
 11
225.0
 21
675.0
 31
0.0
 12
225.0
 22
575.0
 32
0.0
 13
125.0
 23
575.0
 33
0.0
  0
3DFACE
  5
229
100
AcDbEntity
  8
àÍî 
370
               5
  6
Continuous
 62
               7
100
AcDbFace
 10
125.0
 20
575.0
 30
0.0
 11
125.0
 21
575.0
 31
25.0
 12
125.0
 22
675.0
 32
25.0
 13
125.0
 23
675.0
 33
0.0
  0
3DFACE
  5
22A
100
AcDbEntity
  8
àÍî 
370
               5
  6
Continuous
 62
               7
100
AcDbFace
 10
225.0
 20
575.0
 30
0.0
 11
225.0
 21
575.0
 31
25.0
 12
125.0
 22
575.0
 32
25.0
 13
125.0
 23
575.0
 33
0.0
  0
3DFACE
  5
22B
100
AcDbEntity
  8
àÍî 
370
               5
  6
Continuous
 62
               7
100
AcDbFace
 10
225.0
 20
675.0
 30
0.0
 11
225.0
 21
675.0
 31
25.0
 12
225.0
 22
575.0
 32
25.0
 13
225.0
 23
575.0
 33
0.0
  0
3DFACE
  5
22C
100
AcDbEntity
  8
àÍî 
370
               5
  6
Continuous
 62
               7
100
AcDbFace
 10
125.0
 20
675.0
 30
0.0
 11
125.0
 21
675.0
 31
25.0
 12
225.0
 22
675.0
 32
25.0
 13
225.0
 23
675.0
 33
0.0
  0
3DFACE
  5
22D
100
AcDbEntity
  8
àÍî 
370
               5
  6
Continuous
 62
               7
100
AcDbFace
 10
-50.0
 20
675.0
 30
25.0
 11
50.0
 21
675.0
 31
25.0
 12
50.0
 22
575.0
 32
25.0
 13
-50.0
 23
575.0
 33
25.0
  0
3DFACE
  5
22E
100
AcDbEntity
  8
àÍî 
370
               5
  6
Continuous
 62
               7
100
AcDbFace
 10
-50.0
 20
675.0
 30
0.0
 11
50.0
 21
675.0
 31
0.0
 12
50.0
 22
575.0
 32
0.0
 13
-50.0
 23
575.0
 33
0.0
  0
3DFACE
  5
22F
100
AcDbEntity
  8
àÍî 
370
               5
  6
Continuous
 62
               7
100
AcDbFace
 10
-50.0
 20
575.0
 30
0.0
 11
-50.0
 21
575.0
 31
25.0
 12
-50.0
 22
675.0
 32
25.0
 13
-50.0
 23
675.0
 33
0.0
  0
3DFACE
  5
230
100
AcDbEntity
  8
àÍî 
370
               5
  6
Continuous
 62
               7
100
AcDbFace
 10
50.0
 20
575.0
 30
0.0
 11
50.0
 21
575.0
 31
25.0
 12
-50.0
 22
575.0
 32
25.0
 13
-50.0
 23
575.0
 33
0.0
  0
3DFACE
  5
231
100
AcDbEntity
  8
àÍî 
370
               5
  6
Continuous
 62
               7
100
AcDbFace
 10
50.0
 20
675.0
 30
0.0
 11
50.0
 21
675.0
 31
25.0
 12
50.0
 22
575.0
 32
25.0
 13
50.0
 23
575.0
 33
0.0
  0
3DFACE
  5
232
100
AcDbEntity
  8
àÍî 
370
               5
  6
Continuous
 62
               7
100
AcDbFace
 10
-50.0
 20
675.0
 30
0.0
 11
-50.0
 21
675.0
 31
25.0
 12
50.0
 22
675.0
 32
25.0
 13
50.0
 23
675.0
 33
0.0
  0
3DFACE
  5
233
100
AcDbEntity
  8
àÍî 
370
               5
  6
Continuous
 62
               7
100
AcDbFace
 10
275.0
 20
550.0
 30
25.0
 11
375.0
 21
550.0
 31
25.0
 12
375.0
 22
450.0
 32
25.0
 13
275.0
 23
450.0
 33
25.0
  0
3DFACE
  5
234
100
AcDbEntity
  8
àÍî 
370
               5
  6
Continuous
 62
               7
100
AcDbFace
 10
275.0
 20
550.0
 30
0.0
 11
375.0
 21
550.0
 31
0.0
 12
375.0
 22
450.0
 32
0.0
 13
275.0
 23
450.0
 33
0.0
  0
3DFACE
  5
235
100
AcDbEntity
  8
àÍî 
370
               5
  6
Continuous
 62
               7
100
AcDbFace
 10
275.0
 20
450.0
 30
0.0
 11
275.0
 21
450.0
 31
25.0
 12
275.0
 22
550.0
 32
25.0
 13
275.0
 23
550.0
 33
0.0
  0
3DFACE
  5
236
100
AcDbEntity
  8
àÍî 
370
               5
  6
Continuous
 62
               7
100
AcDbFace
 10
375.0
 20
450.0
 30
0.0
 11
375.0
 21
450.0
 31
25.0
 12
275.0
 22
450.0
 32
25.0
 13
275.0
 23
450.0
 33
0.0
  0
3DFACE
  5
237
100
AcDbEntity
  8
àÍî 
370
               5
  6
Continuous
 62
               7
100
AcDbFace
 10
375.0
 20
550.0
 30
0.0
 11
375.0
 21
550.0
 31
25.0
 12
375.0
 22
450.0
 32
25.0
 13
375.0
 23
450.0
 33
0.0
  0
3DFACE
  5
238
100
AcDbEntity
  8
àÍî 
370
               5
  6
Continuous
 62
               7
100
AcDbFace
 10
275.0
 20
550.0
 30
0.0
 11
275.0
 21
550.0
 31
25.0
 12
375.0
 22
550.0
 32
25.0
 13
375.0
 23
550.0
 33
0.0
  0
3DFACE
  5
239
100
AcDbEntity
  8
àÍî 
370
               5
  6
Continuous
 62
               7
100
AcDbFace
 10
-375.0
 20
550.0
 30
25.0
 11
-275.0
 21
550.0
 31
25.0
 12
-275.0
 22
450.0
 32
25.0
 13
-375.0
 23
450.0
 33
25.0
  0
3DFACE
  5
23A
100
AcDbEntity
  8
àÍî 
370
               5
  6
Continuous
 62
               7
100
AcDbFace
 10
-375.0
 20
550.0
 30
0.0
 11
-275.0
 21
550.0
 31
0.0
 12
-275.0
 22
450.0
 32
0.0
 13
-375.0
 23
450.0
 33
0.0
  0
3DFACE
  5
23B
100
AcDbEntity
  8
àÍî 
370
               5
  6
Continuous
 62
               7
100
AcDbFace
 10
-375.0
 20
450.0
 30
0.0
 11
-375.0
 21
450.0
 31
25.0
 12
-375.0
 22
550.0
 32
25.0
 13
-375.0
 23
550.0
 33
0.0
  0
3DFACE
  5
23C
100
AcDbEntity
  8
àÍî 
370
               5
  6
Continuous
 62
               7
100
AcDbFace
 10
-275.0
 20
450.0
 30
0.0
 11
-275.0
 21
450.0
 31
25.0
 12
-375.0
 22
450.0
 32
25.0
 13
-375.0
 23
450.0
 33
0.0
  0
3DFACE
  5
23D
100
AcDbEntity
  8
àÍî 
370
               5
  6
Continuous
 62
               7
100
AcDbFace
 10
-275.0
 20
550.0
 30
0.0
 11
-275.0
 21
550.0
 31
25.0
 12
-275.0
 22
450.0
 32
25.0
 13
-275.0
 23
450.0
 33
0.0
  0
3DFACE
  5
23E
100
AcDbEntity
  8
àÍî 
370
               5
  6
Continuous
 62
               7
100
AcDbFace
 10
-375.0
 20
550.0
 30
0.0
 11
-375.0
 21
550.0
 31
25.0
 12
-275.0
 22
550.0
 32
25.0
 13
-275.0
 23
550.0
 33
0.0
  0
3DFACE
  5
23F
100
AcDbEntity
  8
àÍî 
370
               5
  6
Continuous
 62
               7
100
AcDbFace
 10
-200.0
 20
550.0
 30
25.0
 11
-100.0
 21
550.0
 31
25.0
 12
-100.0
 22
450.0
 32
25.0
 13
-200.0
 23
450.0
 33
25.0
  0
3DFACE
  5
240
100
AcDbEntity
  8
àÍî 
370
               5
  6
Continuous
 62
               7
100
AcDbFace
 10
-200.0
 20
550.0
 30
0.0
 11
-100.0
 21
550.0
 31
0.0
 12
-100.0
 22
450.0
 32
0.0
 13
-200.0
 23
450.0
 33
0.0
  0
3DFACE
  5
241
100
AcDbEntity
  8
àÍî 
370
               5
  6
Continuous
 62
               7
100
AcDbFace
 10
-200.0
 20
450.0
 30
0.0
 11
-200.0
 21
450.0
 31
25.0
 12
-200.0
 22
550.0
 32
25.0
 13
-200.0
 23
550.0
 33
0.0
  0
3DFACE
  5
242
100
AcDbEntity
  8
àÍî 
370
               5
  6
Continuous
 62
               7
100
AcDbFace
 10
-100.0
 20
450.0
 30
0.0
 11
-100.0
 21
450.0
 31
25.0
 12
-200.0
 22
450.0
 32
25.0
 13
-200.0
 23
450.0
 33
0.0
  0
3DFACE
  5
243
100
AcDbEntity
  8
àÍî 
370
               5
  6
Continuous
 62
               7
100
AcDbFace
 10
-100.0
 20
550.0
 30
0.0
 11
-100.0
 21
550.0
 31
25.0
 12
-100.0
 22
450.0
 32
25.0
 13
-100.0
 23
450.0
 33
0.0
  0
3DFACE
  5
244
100
AcDbEntity
  8
àÍî 
370
               5
  6
Continuous
 62
               7
100
AcDbFace
 10
-200.0
 20
550.0
 30
0.0
 11
-200.0
 21
550.0
 31
25.0
 12
-100.0
 22
550.0
 32
25.0
 13
-100.0
 23
550.0
 33
0.0
  0
3DFACE
  5
245
100
AcDbEntity
  8
àÍî 
370
               5
  6
Continuous
 62
               7
100
AcDbFace
 10
125.0
 20
550.0
 30
25.0
 11
225.0
 21
550.0
 31
25.0
 12
225.0
 22
450.0
 32
25.0
 13
125.0
 23
450.0
 33
25.0
  0
3DFACE
  5
246
100
AcDbEntity
  8
àÍî 
370
               5
  6
Continuous
 62
               7
100
AcDbFace
 10
125.0
 20
550.0
 30
0.0
 11
225.0
 21
550.0
 31
0.0
 12
225.0
 22
450.0
 32
0.0
 13
125.0
 23
450.0
 33
0.0
  0
3DFACE
  5
247
100
AcDbEntity
  8
àÍî 
370
               5
  6
Continuous
 62
               7
100
AcDbFace
 10
125.0
 20
450.0
 30
0.0
 11
125.0
 21
450.0
 31
25.0
 12
125.0
 22
550.0
 32
25.0
 13
125.0
 23
550.0
 33
0.0
  0
3DFACE
  5
248
100
AcDbEntity
  8
àÍî 
370
               5
  6
Continuous
 62
               7
100
AcDbFace
 10
225.0
 20
450.0
 30
0.0
 11
225.0
 21
450.0
 31
25.0
 12
125.0
 22
450.0
 32
25.0
 13
125.0
 23
450.0
 33
0.0
  0
3DFACE
  5
249
100
AcDbEntity
  8
àÍî 
370
               5
  6
Continuous
 62
               7
100
AcDbFace
 10
225.0
 20
550.0
 30
0.0
 11
225.0
 21
550.0
 31
25.0
 12
225.0
 22
450.0
 32
25.0
 13
225.0
 23
450.0
 33
0.0
  0
3DFACE
  5
24A
100
AcDbEntity
  8
àÍî 
370
               5
  6
Continuous
 62
               7
100
AcDbFace
 10
125.0
 20
550.0
 30
0.0
 11
125.0
 21
550.0
 31
25.0
 12
225.0
 22
550.0
 32
25.0
 13
225.0
 23
550.0
 33
0.0
  0
3DFACE
  5
24B
100
AcDbEntity
  8
àÍî 
370
               5
  6
Continuous
 62
               7
100
AcDbFace
 10
-50.0
 20
550.0
 30
25.0
 11
50.0
 21
550.0
 31
25.0
 12
50.0
 22
450.0
 32
25.0
 13
-50.0
 23
450.0
 33
25.0
  0
3DFACE
  5
24C
100
AcDbEntity
  8
àÍî 
370
               5
  6
Continuous
 62
               7
100
AcDbFace
 10
-50.0
 20
550.0
 30
0.0
 11
50.0
 21
550.0
 31
0.0
 12
50.0
 22
450.0
 32
0.0
 13
-50.0
 23
450.0
 33
0.0
  0
3DFACE
  5
24D
100
AcDbEntity
  8
àÍî 
370
               5
  6
Continuous
 62
               7
100
AcDbFace
 10
-50.0
 20
450.0
 30
0.0
 11
-50.0
 21
450.0
 31
25.0
 12
-50.0
 22
550.0
 32
25.0
 13
-50.0
 23
550.0
 33
0.0
  0
3DFACE
  5
24E
100
AcDbEntity
  8
àÍî 
370
               5
  6
Continuous
 62
               7
100
AcDbFace
 10
50.0
 20
450.0
 30
0.0
 11
50.0
 21
450.0
 31
25.0
 12
-50.0
 22
450.0
 32
25.0
 13
-50.0
 23
450.0
 33
0.0
  0
3DFACE
  5
24F
100
AcDbEntity
  8
àÍî 
370
               5
  6
Continuous
 62
               7
100
AcDbFace
 10
50.0
 20
550.0
 30
0.0
 11
50.0
 21
550.0
 31
25.0
 12
50.0
 22
450.0
 32
25.0
 13
50.0
 23
450.0
 33
0.0
  0
3DFACE
  5
250
100
AcDbEntity
  8
àÍî 
370
               5
  6
Continuous
 62
               7
100
AcDbFace
 10
-50.0
 20
550.0
 30
0.0
 11
-50.0
 21
550.0
 31
25.0
 12
50.0
 22
550.0
 32
25.0
 13
50.0
 23
550.0
 33
0.0
  0
3DFACE
  5
251
100
AcDbEntity
  8
àÍî 
370
               5
  6
Continuous
 62
               7
100
AcDbFace
 10
275.0
 20
425.0
 30
25.0
 11
375.0
 21
425.0
 31
25.0
 12
375.0
 22
325.0
 32
25.0
 13
275.0
 23
325.0
 33
25.0
  0
3DFACE
  5
252
100
AcDbEntity
  8
àÍî 
370
               5
  6
Continuous
 62
               7
100
AcDbFace
 10
275.0
 20
425.0
 30
0.0
 11
375.0
 21
425.0
 31
0.0
 12
375.0
 22
325.0
 32
0.0
 13
275.0
 23
325.0
 33
0.0
  0
3DFACE
  5
253
100
AcDbEntity
  8
àÍî 
370
               5
  6
Continuous
 62
               7
100
AcDbFace
 10
275.0
 20
325.0
 30
0.0
 11
275.0
 21
325.0
 31
25.0
 12
275.0
 22
425.0
 32
25.0
 13
275.0
 23
425.0
 33
0.0
  0
3DFACE
  5
254
100
AcDbEntity
  8
àÍî 
370
               5
  6
Continuous
 62
               7
100
AcDbFace
 10
375.0
 20
325.0
 30
0.0
 11
375.0
 21
325.0
 31
25.0
 12
275.0
 22
325.0
 32
25.0
 13
275.0
 23
325.0
 33
0.0
  0
3DFACE
  5
255
100
AcDbEntity
  8
àÍî 
370
               5
  6
Continuous
 62
               7
100
AcDbFace
 10
375.0
 20
425.0
 30
0.0
 11
375.0
 21
425.0
 31
25.0
 12
375.0
 22
325.0
 32
25.0
 13
375.0
 23
325.0
 33
0.0
  0
3DFACE
  5
256
100
AcDbEntity
  8
àÍî 
370
               5
  6
Continuous
 62
               7
100
AcDbFace
 10
275.0
 20
425.0
 30
0.0
 11
275.0
 21
425.0
 31
25.0
 12
375.0
 22
425.0
 32
25.0
 13
375.0
 23
425.0
 33
0.0
  0
3DFACE
  5
257
100
AcDbEntity
  8
àÍî 
370
               5
  6
Continuous
 62
               7
100
AcDbFace
 10
-375.0
 20
425.0
 30
25.0
 11
-275.0
 21
425.0
 31
25.0
 12
-275.0
 22
325.0
 32
25.0
 13
-375.0
 23
325.0
 33
25.0
  0
3DFACE
  5
258
100
AcDbEntity
  8
àÍî 
370
               5
  6
Continuous
 62
               7
100
AcDbFace
 10
-375.0
 20
425.0
 30
0.0
 11
-275.0
 21
425.0
 31
0.0
 12
-275.0
 22
325.0
 32
0.0
 13
-375.0
 23
325.0
 33
0.0
  0
3DFACE
  5
259
100
AcDbEntity
  8
àÍî 
370
               5
  6
Continuous
 62
               7
100
AcDbFace
 10
-375.0
 20
325.0
 30
0.0
 11
-375.0
 21
325.0
 31
25.0
 12
-375.0
 22
425.0
 32
25.0
 13
-375.0
 23
425.0
 33
0.0
  0
3DFACE
  5
25A
100
AcDbEntity
  8
àÍî 
370
               5
  6
Continuous
 62
               7
100
AcDbFace
 10
-275.0
 20
325.0
 30
0.0
 11
-275.0
 21
325.0
 31
25.0
 12
-375.0
 22
325.0
 32
25.0
 13
-375.0
 23
325.0
 33
0.0
  0
3DFACE
  5
25B
100
AcDbEntity
  8
àÍî 
370
               5
  6
Continuous
 62
               7
100
AcDbFace
 10
-275.0
 20
425.0
 30
0.0
 11
-275.0
 21
425.0
 31
25.0
 12
-275.0
 22
325.0
 32
25.0
 13
-275.0
 23
325.0
 33
0.0
  0
3DFACE
  5
25C
100
AcDbEntity
  8
àÍî 
370
               5
  6
Continuous
 62
               7
100
AcDbFace
 10
-375.0
 20
425.0
 30
0.0
 11
-375.0
 21
425.0
 31
25.0
 12
-275.0
 22
425.0
 32
25.0
 13
-275.0
 23
425.0
 33
0.0
  0
3DFACE
  5
25D
100
AcDbEntity
  8
àÍî 
370
               5
  6
Continuous
 62
               7
100
AcDbFace
 10
-200.0
 20
425.0
 30
25.0
 11
-100.0
 21
425.0
 31
25.0
 12
-100.0
 22
325.0
 32
25.0
 13
-200.0
 23
325.0
 33
25.0
  0
3DFACE
  5
25E
100
AcDbEntity
  8
àÍî 
370
               5
  6
Continuous
 62
               7
100
AcDbFace
 10
-200.0
 20
425.0
 30
0.0
 11
-100.0
 21
425.0
 31
0.0
 12
-100.0
 22
325.0
 32
0.0
 13
-200.0
 23
325.0
 33
0.0
  0
3DFACE
  5
25F
100
AcDbEntity
  8
àÍî 
370
               5
  6
Continuous
 62
               7
100
AcDbFace
 10
-200.0
 20
325.0
 30
0.0
 11
-200.0
 21
325.0
 31
25.0
 12
-200.0
 22
425.0
 32
25.0
 13
-200.0
 23
425.0
 33
0.0
  0
3DFACE
  5
260
100
AcDbEntity
  8
àÍî 
370
               5
  6
Continuous
 62
               7
100
AcDbFace
 10
-100.0
 20
325.0
 30
0.0
 11
-100.0
 21
325.0
 31
25.0
 12
-200.0
 22
325.0
 32
25.0
 13
-200.0
 23
325.0
 33
0.0
  0
3DFACE
  5
261
100
AcDbEntity
  8
àÍî 
370
               5
  6
Continuous
 62
               7
100
AcDbFace
 10
-100.0
 20
425.0
 30
0.0
 11
-100.0
 21
425.0
 31
25.0
 12
-100.0
 22
325.0
 32
25.0
 13
-100.0
 23
325.0
 33
0.0
  0
3DFACE
  5
262
100
AcDbEntity
  8
àÍî 
370
               5
  6
Continuous
 62
               7
100
AcDbFace
 10
-200.0
 20
425.0
 30
0.0
 11
-200.0
 21
425.0
 31
25.0
 12
-100.0
 22
425.0
 32
25.0
 13
-100.0
 23
425.0
 33
0.0
  0
3DFACE
  5
263
100
AcDbEntity
  8
àÍî 
370
               5
  6
Continuous
 62
               7
100
AcDbFace
 10
125.0
 20
425.0
 30
25.0
 11
225.0
 21
425.0
 31
25.0
 12
225.0
 22
325.0
 32
25.0
 13
125.0
 23
325.0
 33
25.0
  0
3DFACE
  5
264
100
AcDbEntity
  8
àÍî 
370
               5
  6
Continuous
 62
               7
100
AcDbFace
 10
125.0
 20
425.0
 30
0.0
 11
225.0
 21
425.0
 31
0.0
 12
225.0
 22
325.0
 32
0.0
 13
125.0
 23
325.0
 33
0.0
  0
3DFACE
  5
265
100
AcDbEntity
  8
àÍî 
370
               5
  6
Continuous
 62
               7
100
AcDbFace
 10
125.0
 20
325.0
 30
0.0
 11
125.0
 21
325.0
 31
25.0
 12
125.0
 22
425.0
 32
25.0
 13
125.0
 23
425.0
 33
0.0
  0
3DFACE
  5
266
100
AcDbEntity
  8
àÍî 
370
               5
  6
Continuous
 62
               7
100
AcDbFace
 10
225.0
 20
325.0
 30
0.0
 11
225.0
 21
325.0
 31
25.0
 12
125.0
 22
325.0
 32
25.0
 13
125.0
 23
325.0
 33
0.0
  0
3DFACE
  5
267
100
AcDbEntity
  8
àÍî 
370
               5
  6
Continuous
 62
               7
100
AcDbFace
 10
225.0
 20
425.0
 30
0.0
 11
225.0
 21
425.0
 31
25.0
 12
225.0
 22
325.0
 32
25.0
 13
225.0
 23
325.0
 33
0.0
  0
3DFACE
  5
268
100
AcDbEntity
  8
àÍî 
370
               5
  6
Continuous
 62
               7
100
AcDbFace
 10
125.0
 20
425.0
 30
0.0
 11
125.0
 21
425.0
 31
25.0
 12
225.0
 22
425.0
 32
25.0
 13
225.0
 23
425.0
 33
0.0
  0
3DFACE
  5
269
100
AcDbEntity
  8
àÍî 
370
               5
  6
Continuous
 62
               7
100
AcDbFace
 10
-50.0
 20
425.0
 30
25.0
 11
50.0
 21
425.0
 31
25.0
 12
50.0
 22
325.0
 32
25.0
 13
-50.0
 23
325.0
 33
25.0
  0
3DFACE
  5
26A
100
AcDbEntity
  8
àÍî 
370
               5
  6
Continuous
 62
               7
100
AcDbFace
 10
-50.0
 20
425.0
 30
0.0
 11
50.0
 21
425.0
 31
0.0
 12
50.0
 22
325.0
 32
0.0
 13
-50.0
 23
325.0
 33
0.0
  0
3DFACE
  5
26B
100
AcDbEntity
  8
àÍî 
370
               5
  6
Continuous
 62
               7
100
AcDbFace
 10
-50.0
 20
325.0
 30
0.0
 11
-50.0
 21
325.0
 31
25.0
 12
-50.0
 22
425.0
 32
25.0
 13
-50.0
 23
425.0
 33
0.0
  0
3DFACE
  5
26C
100
AcDbEntity
  8
àÍî 
370
               5
  6
Continuous
 62
               7
100
AcDbFace
 10
50.0
 20
325.0
 30
0.0
 11
50.0
 21
325.0
 31
25.0
 12
-50.0
 22
325.0
 32
25.0
 13
-50.0
 23
325.0
 33
0.0
  0
3DFACE
  5
26D
100
AcDbEntity
  8
àÍî 
370
               5
  6
Continuous
 62
               7
100
AcDbFace
 10
50.0
 20
425.0
 30
0.0
 11
50.0
 21
425.0
 31
25.0
 12
50.0
 22
325.0
 32
25.0
 13
50.0
 23
325.0
 33
0.0
  0
3DFACE
  5
26E
100
AcDbEntity
  8
àÍî 
370
               5
  6
Continuous
 62
               7
100
AcDbFace
 10
-50.0
 20
425.0
 30
0.0
 11
-50.0
 21
425.0
 31
25.0
 12
50.0
 22
425.0
 32
25.0
 13
50.0
 23
425.0
 33
0.0
  0
3DFACE
  5
26F
100
AcDbEntity
  8
àÍî 
370
               5
  6
Continuous
 62
               7
100
AcDbFace
 10
275.0
 20
-325.0
 30
25.0
 11
375.0
 21
-325.0
 31
25.0
 12
375.0
 22
-425.0
 32
25.0
 13
275.0
 23
-425.0
 33
25.0
  0
3DFACE
  5
270
100
AcDbEntity
  8
àÍî 
370
               5
  6
Continuous
 62
               7
100
AcDbFace
 10
275.0
 20
-325.0
 30
0.0
 11
375.0
 21
-325.0
 31
0.0
 12
375.0
 22
-425.0
 32
0.0
 13
275.0
 23
-425.0
 33
0.0
  0
3DFACE
  5
271
100
AcDbEntity
  8
àÍî 
370
               5
  6
Continuous
 62
               7
100
AcDbFace
 10
275.0
 20
-425.0
 30
0.0
 11
275.0
 21
-425.0
 31
25.0
 12
275.0
 22
-325.0
 32
25.0
 13
275.0
 23
-325.0
 33
0.0
  0
3DFACE
  5
272
100
AcDbEntity
  8
àÍî 
370
               5
  6
Continuous
 62
               7
100
AcDbFace
 10
375.0
 20
-425.0
 30
0.0
 11
375.0
 21
-425.0
 31
25.0
 12
275.0
 22
-425.0
 32
25.0
 13
275.0
 23
-425.0
 33
0.0
  0
3DFACE
  5
273
100
AcDbEntity
  8
àÍî 
370
               5
  6
Continuous
 62
               7
100
AcDbFace
 10
375.0
 20
-325.0
 30
0.0
 11
375.0
 21
-325.0
 31
25.0
 12
375.0
 22
-425.0
 32
25.0
 13
375.0
 23
-425.0
 33
0.0
  0
3DFACE
  5
274
100
AcDbEntity
  8
àÍî 
370
               5
  6
Continuous
 62
               7
100
AcDbFace
 10
275.0
 20
-325.0
 30
0.0
 11
275.0
 21
-325.0
 31
25.0
 12
375.0
 22
-325.0
 32
25.0
 13
375.0
 23
-325.0
 33
0.0
  0
3DFACE
  5
275
100
AcDbEntity
  8
àÍî 
370
               5
  6
Continuous
 62
               7
100
AcDbFace
 10
-375.0
 20
-325.0
 30
25.0
 11
-275.0
 21
-325.0
 31
25.0
 12
-275.0
 22
-425.0
 32
25.0
 13
-375.0
 23
-425.0
 33
25.0
  0
3DFACE
  5
276
100
AcDbEntity
  8
àÍî 
370
               5
  6
Continuous
 62
               7
100
AcDbFace
 10
-375.0
 20
-325.0
 30
0.0
 11
-275.0
 21
-325.0
 31
0.0
 12
-275.0
 22
-425.0
 32
0.0
 13
-375.0
 23
-425.0
 33
0.0
  0
3DFACE
  5
277
100
AcDbEntity
  8
àÍî 
370
               5
  6
Continuous
 62
               7
100
AcDbFace
 10
-375.0
 20
-425.0
 30
0.0
 11
-375.0
 21
-425.0
 31
25.0
 12
-375.0
 22
-325.0
 32
25.0
 13
-375.0
 23
-325.0
 33
0.0
  0
3DFACE
  5
278
100
AcDbEntity
  8
àÍî 
370
               5
  6
Continuous
 62
               7
100
AcDbFace
 10
-275.0
 20
-425.0
 30
0.0
 11
-275.0
 21
-425.0
 31
25.0
 12
-375.0
 22
-425.0
 32
25.0
 13
-375.0
 23
-425.0
 33
0.0
  0
3DFACE
  5
279
100
AcDbEntity
  8
àÍî 
370
               5
  6
Continuous
 62
               7
100
AcDbFace
 10
-275.0
 20
-325.0
 30
0.0
 11
-275.0
 21
-325.0
 31
25.0
 12
-275.0
 22
-425.0
 32
25.0
 13
-275.0
 23
-425.0
 33
0.0
  0
3DFACE
  5
27A
100
AcDbEntity
  8
àÍî 
370
               5
  6
Continuous
 62
               7
100
AcDbFace
 10
-375.0
 20
-325.0
 30
0.0
 11
-375.0
 21
-325.0
 31
25.0
 12
-275.0
 22
-325.0
 32
25.0
 13
-275.0
 23
-325.0
 33
0.0
  0
3DFACE
  5
27B
100
AcDbEntity
  8
àÍî 
370
               5
  6
Continuous
 62
               7
100
AcDbFace
 10
-200.0
 20
-325.0
 30
25.0
 11
-100.0
 21
-325.0
 31
25.0
 12
-100.0
 22
-425.0
 32
25.0
 13
-200.0
 23
-425.0
 33
25.0
  0
3DFACE
  5
27C
100
AcDbEntity
  8
àÍî 
370
               5
  6
Continuous
 62
               7
100
AcDbFace
 10
-200.0
 20
-325.0
 30
0.0
 11
-100.0
 21
-325.0
 31
0.0
 12
-100.0
 22
-425.0
 32
0.0
 13
-200.0
 23
-425.0
 33
0.0
  0
3DFACE
  5
27D
100
AcDbEntity
  8
àÍî 
370
               5
  6
Continuous
 62
               7
100
AcDbFace
 10
-200.0
 20
-425.0
 30
0.0
 11
-200.0
 21
-425.0
 31
25.0
 12
-200.0
 22
-325.0
 32
25.0
 13
-200.0
 23
-325.0
 33
0.0
  0
3DFACE
  5
27E
100
AcDbEntity
  8
àÍî 
370
               5
  6
Continuous
 62
               7
100
AcDbFace
 10
-100.0
 20
-425.0
 30
0.0
 11
-100.0
 21
-425.0
 31
25.0
 12
-200.0
 22
-425.0
 32
25.0
 13
-200.0
 23
-425.0
 33
0.0
  0
3DFACE
  5
27F
100
AcDbEntity
  8
àÍî 
370
               5
  6
Continuous
 62
               7
100
AcDbFace
 10
-100.0
 20
-325.0
 30
0.0
 11
-100.0
 21
-325.0
 31
25.0
 12
-100.0
 22
-425.0
 32
25.0
 13
-100.0
 23
-425.0
 33
0.0
  0
3DFACE
  5
280
100
AcDbEntity
  8
àÍî 
370
               5
  6
Continuous
 62
               7
100
AcDbFace
 10
-200.0
 20
-325.0
 30
0.0
 11
-200.0
 21
-325.0
 31
25.0
 12
-100.0
 22
-325.0
 32
25.0
 13
-100.0
 23
-325.0
 33
0.0
  0
3DFACE
  5
281
100
AcDbEntity
  8
àÍî 
370
               5
  6
Continuous
 62
               7
100
AcDbFace
 10
125.0
 20
-325.0
 30
25.0
 11
225.0
 21
-325.0
 31
25.0
 12
225.0
 22
-425.0
 32
25.0
 13
125.0
 23
-425.0
 33
25.0
  0
3DFACE
  5
282
100
AcDbEntity
  8
àÍî 
370
               5
  6
Continuous
 62
               7
100
AcDbFace
 10
125.0
 20
-325.0
 30
0.0
 11
225.0
 21
-325.0
 31
0.0
 12
225.0
 22
-425.0
 32
0.0
 13
125.0
 23
-425.0
 33
0.0
  0
3DFACE
  5
283
100
AcDbEntity
  8
àÍî 
370
               5
  6
Continuous
 62
               7
100
AcDbFace
 10
125.0
 20
-425.0
 30
0.0
 11
125.0
 21
-425.0
 31
25.0
 12
125.0
 22
-325.0
 32
25.0
 13
125.0
 23
-325.0
 33
0.0
  0
3DFACE
  5
284
100
AcDbEntity
  8
àÍî 
370
               5
  6
Continuous
 62
               7
100
AcDbFace
 10
225.0
 20
-425.0
 30
0.0
 11
225.0
 21
-425.0
 31
25.0
 12
125.0
 22
-425.0
 32
25.0
 13
125.0
 23
-425.0
 33
0.0
  0
3DFACE
  5
285
100
AcDbEntity
  8
àÍî 
370
               5
  6
Continuous
 62
               7
100
AcDbFace
 10
225.0
 20
-325.0
 30
0.0
 11
225.0
 21
-325.0
 31
25.0
 12
225.0
 22
-425.0
 32
25.0
 13
225.0
 23
-425.0
 33
0.0
  0
3DFACE
  5
286
100
AcDbEntity
  8
àÍî 
370
               5
  6
Continuous
 62
               7
100
AcDbFace
 10
125.0
 20
-325.0
 30
0.0
 11
125.0
 21
-325.0
 31
25.0
 12
225.0
 22
-325.0
 32
25.0
 13
225.0
 23
-325.0
 33
0.0
  0
3DFACE
  5
287
100
AcDbEntity
  8
àÍî 
370
               5
  6
Continuous
 62
               7
100
AcDbFace
 10
-50.0
 20
-325.0
 30
25.0
 11
50.0
 21
-325.0
 31
25.0
 12
50.0
 22
-425.0
 32
25.0
 13
-50.0
 23
-425.0
 33
25.0
  0
3DFACE
  5
288
100
AcDbEntity
  8
àÍî 
370
               5
  6
Continuous
 62
               7
100
AcDbFace
 10
-50.0
 20
-325.0
 30
0.0
 11
50.0
 21
-325.0
 31
0.0
 12
50.0
 22
-425.0
 32
0.0
 13
-50.0
 23
-425.0
 33
0.0
  0
3DFACE
  5
289
100
AcDbEntity
  8
àÍî 
370
               5
  6
Continuous
 62
               7
100
AcDbFace
 10
-50.0
 20
-425.0
 30
0.0
 11
-50.0
 21
-425.0
 31
25.0
 12
-50.0
 22
-325.0
 32
25.0
 13
-50.0
 23
-325.0
 33
0.0
  0
3DFACE
  5
28A
100
AcDbEntity
  8
àÍî 
370
               5
  6
Continuous
 62
               7
100
AcDbFace
 10
50.0
 20
-425.0
 30
0.0
 11
50.0
 21
-425.0
 31
25.0
 12
-50.0
 22
-425.0
 32
25.0
 13
-50.0
 23
-425.0
 33
0.0
  0
3DFACE
  5
28B
100
AcDbEntity
  8
àÍî 
370
               5
  6
Continuous
 62
               7
100
AcDbFace
 10
50.0
 20
-325.0
 30
0.0
 11
50.0
 21
-325.0
 31
25.0
 12
50.0
 22
-425.0
 32
25.0
 13
50.0
 23
-425.0
 33
0.0
  0
3DFACE
  5
28C
100
AcDbEntity
  8
àÍî 
370
               5
  6
Continuous
 62
               7
100
AcDbFace
 10
-50.0
 20
-325.0
 30
0.0
 11
-50.0
 21
-325.0
 31
25.0
 12
50.0
 22
-325.0
 32
25.0
 13
50.0
 23
-325.0
 33
0.0
  0
3DFACE
  5
28D
100
AcDbEntity
  8
àÍî 
370
               5
  6
Continuous
 62
               7
100
AcDbFace
 10
275.0
 20
-200.0
 30
25.0
 11
375.0
 21
-200.0
 31
25.0
 12
375.0
 22
-300.0
 32
25.0
 13
275.0
 23
-300.0
 33
25.0
  0
3DFACE
  5
28E
100
AcDbEntity
  8
àÍî 
370
               5
  6
Continuous
 62
               7
100
AcDbFace
 10
275.0
 20
-200.0
 30
0.0
 11
375.0
 21
-200.0
 31
0.0
 12
375.0
 22
-300.0
 32
0.0
 13
275.0
 23
-300.0
 33
0.0
  0
3DFACE
  5
28F
100
AcDbEntity
  8
àÍî 
370
               5
  6
Continuous
 62
               7
100
AcDbFace
 10
275.0
 20
-300.0
 30
0.0
 11
275.0
 21
-300.0
 31
25.0
 12
275.0
 22
-200.0
 32
25.0
 13
275.0
 23
-200.0
 33
0.0
  0
3DFACE
  5
290
100
AcDbEntity
  8
àÍî 
370
               5
  6
Continuous
 62
               7
100
AcDbFace
 10
375.0
 20
-300.0
 30
0.0
 11
375.0
 21
-300.0
 31
25.0
 12
275.0
 22
-300.0
 32
25.0
 13
275.0
 23
-300.0
 33
0.0
  0
3DFACE
  5
291
100
AcDbEntity
  8
àÍî 
370
               5
  6
Continuous
 62
               7
100
AcDbFace
 10
375.0
 20
-200.0
 30
0.0
 11
375.0
 21
-200.0
 31
25.0
 12
375.0
 22
-300.0
 32
25.0
 13
375.0
 23
-300.0
 33
0.0
  0
3DFACE
  5
292
100
AcDbEntity
  8
àÍî 
370
               5
  6
Continuous
 62
               7
100
AcDbFace
 10
275.0
 20
-200.0
 30
0.0
 11
275.0
 21
-200.0
 31
25.0
 12
375.0
 22
-200.0
 32
25.0
 13
375.0
 23
-200.0
 33
0.0
  0
3DFACE
  5
293
100
AcDbEntity
  8
àÍî 
370
               5
  6
Continuous
 62
               7
100
AcDbFace
 10
-375.0
 20
-200.0
 30
25.0
 11
-275.0
 21
-200.0
 31
25.0
 12
-275.0
 22
-300.0
 32
25.0
 13
-375.0
 23
-300.0
 33
25.0
  0
3DFACE
  5
294
100
AcDbEntity
  8
àÍî 
370
               5
  6
Continuous
 62
               7
100
AcDbFace
 10
-375.0
 20
-200.0
 30
0.0
 11
-275.0
 21
-200.0
 31
0.0
 12
-275.0
 22
-300.0
 32
0.0
 13
-375.0
 23
-300.0
 33
0.0
  0
3DFACE
  5
295
100
AcDbEntity
  8
àÍî 
370
               5
  6
Continuous
 62
               7
100
AcDbFace
 10
-375.0
 20
-300.0
 30
0.0
 11
-375.0
 21
-300.0
 31
25.0
 12
-375.0
 22
-200.0
 32
25.0
 13
-375.0
 23
-200.0
 33
0.0
  0
3DFACE
  5
296
100
AcDbEntity
  8
àÍî 
370
               5
  6
Continuous
 62
               7
100
AcDbFace
 10
-275.0
 20
-300.0
 30
0.0
 11
-275.0
 21
-300.0
 31
25.0
 12
-375.0
 22
-300.0
 32
25.0
 13
-375.0
 23
-300.0
 33
0.0
  0
3DFACE
  5
297
100
AcDbEntity
  8
àÍî 
370
               5
  6
Continuous
 62
               7
100
AcDbFace
 10
-275.0
 20
-200.0
 30
0.0
 11
-275.0
 21
-200.0
 31
25.0
 12
-275.0
 22
-300.0
 32
25.0
 13
-275.0
 23
-300.0
 33
0.0
  0
3DFACE
  5
298
100
AcDbEntity
  8
àÍî 
370
               5
  6
Continuous
 62
               7
100
AcDbFace
 10
-375.0
 20
-200.0
 30
0.0
 11
-375.0
 21
-200.0
 31
25.0
 12
-275.0
 22
-200.0
 32
25.0
 13
-275.0
 23
-200.0
 33
0.0
  0
3DFACE
  5
299
100
AcDbEntity
  8
àÍî 
370
               5
  6
Continuous
 62
               7
100
AcDbFace
 10
-200.0
 20
-200.0
 30
25.0
 11
-100.0
 21
-200.0
 31
25.0
 12
-100.0
 22
-300.0
 32
25.0
 13
-200.0
 23
-300.0
 33
25.0
  0
3DFACE
  5
29A
100
AcDbEntity
  8
àÍî 
370
               5
  6
Continuous
 62
               7
100
AcDbFace
 10
-200.0
 20
-200.0
 30
0.0
 11
-100.0
 21
-200.0
 31
0.0
 12
-100.0
 22
-300.0
 32
0.0
 13
-200.0
 23
-300.0
 33
0.0
  0
3DFACE
  5
29B
100
AcDbEntity
  8
àÍî 
370
               5
  6
Continuous
 62
               7
100
AcDbFace
 10
-200.0
 20
-300.0
 30
0.0
 11
-200.0
 21
-300.0
 31
25.0
 12
-200.0
 22
-200.0
 32
25.0
 13
-200.0
 23
-200.0
 33
0.0
  0
3DFACE
  5
29C
100
AcDbEntity
  8
àÍî 
370
               5
  6
Continuous
 62
               7
100
AcDbFace
 10
-100.0
 20
-300.0
 30
0.0
 11
-100.0
 21
-300.0
 31
25.0
 12
-200.0
 22
-300.0
 32
25.0
 13
-200.0
 23
-300.0
 33
0.0
  0
3DFACE
  5
29D
100
AcDbEntity
  8
àÍî 
370
               5
  6
Continuous
 62
               7
100
AcDbFace
 10
-100.0
 20
-200.0
 30
0.0
 11
-100.0
 21
-200.0
 31
25.0
 12
-100.0
 22
-300.0
 32
25.0
 13
-100.0
 23
-300.0
 33
0.0
  0
3DFACE
  5
29E
100
AcDbEntity
  8
àÍî 
370
               5
  6
Continuous
 62
               7
100
AcDbFace
 10
-200.0
 20
-200.0
 30
0.0
 11
-200.0
 21
-200.0
 31
25.0
 12
-100.0
 22
-200.0
 32
25.0
 13
-100.0
 23
-200.0
 33
0.0
  0
3DFACE
  5
29F
100
AcDbEntity
  8
àÍî 
370
               5
  6
Continuous
 62
               7
100
AcDbFace
 10
125.0
 20
-200.0
 30
25.0
 11
225.0
 21
-200.0
 31
25.0
 12
225.0
 22
-300.0
 32
25.0
 13
125.0
 23
-300.0
 33
25.0
  0
3DFACE
  5
2A0
100
AcDbEntity
  8
àÍî 
370
               5
  6
Continuous
 62
               7
100
AcDbFace
 10
125.0
 20
-200.0
 30
0.0
 11
225.0
 21
-200.0
 31
0.0
 12
225.0
 22
-300.0
 32
0.0
 13
125.0
 23
-300.0
 33
0.0
  0
3DFACE
  5
2A1
100
AcDbEntity
  8
àÍî 
370
               5
  6
Continuous
 62
               7
100
AcDbFace
 10
125.0
 20
-300.0
 30
0.0
 11
125.0
 21
-300.0
 31
25.0
 12
125.0
 22
-200.0
 32
25.0
 13
125.0
 23
-200.0
 33
0.0
  0
3DFACE
  5
2A2
100
AcDbEntity
  8
àÍî 
370
               5
  6
Continuous
 62
               7
100
AcDbFace
 10
225.0
 20
-300.0
 30
0.0
 11
225.0
 21
-300.0
 31
25.0
 12
125.0
 22
-300.0
 32
25.0
 13
125.0
 23
-300.0
 33
0.0
  0
3DFACE
  5
2A3
100
AcDbEntity
  8
àÍî 
370
               5
  6
Continuous
 62
               7
100
AcDbFace
 10
225.0
 20
-200.0
 30
0.0
 11
225.0
 21
-200.0
 31
25.0
 12
225.0
 22
-300.0
 32
25.0
 13
225.0
 23
-300.0
 33
0.0
  0
3DFACE
  5
2A4
100
AcDbEntity
  8
àÍî 
370
               5
  6
Continuous
 62
               7
100
AcDbFace
 10
125.0
 20
-200.0
 30
0.0
 11
125.0
 21
-200.0
 31
25.0
 12
225.0
 22
-200.0
 32
25.0
 13
225.0
 23
-200.0
 33
0.0
  0
3DFACE
  5
2A5
100
AcDbEntity
  8
àÍî 
370
               5
  6
Continuous
 62
               7
100
AcDbFace
 10
-50.0
 20
-200.0
 30
25.0
 11
50.0
 21
-200.0
 31
25.0
 12
50.0
 22
-300.0
 32
25.0
 13
-50.0
 23
-300.0
 33
25.0
  0
3DFACE
  5
2A6
100
AcDbEntity
  8
àÍî 
370
               5
  6
Continuous
 62
               7
100
AcDbFace
 10
-50.0
 20
-200.0
 30
0.0
 11
50.0
 21
-200.0
 31
0.0
 12
50.0
 22
-300.0
 32
0.0
 13
-50.0
 23
-300.0
 33
0.0
  0
3DFACE
  5
2A7
100
AcDbEntity
  8
àÍî 
370
               5
  6
Continuous
 62
               7
100
AcDbFace
 10
-50.0
 20
-300.0
 30
0.0
 11
-50.0
 21
-300.0
 31
25.0
 12
-50.0
 22
-200.0
 32
25.0
 13
-50.0
 23
-200.0
 33
0.0
  0
3DFACE
  5
2A8
100
AcDbEntity
  8
àÍî 
370
               5
  6
Continuous
 62
               7
100
AcDbFace
 10
50.0
 20
-300.0
 30
0.0
 11
50.0
 21
-300.0
 31
25.0
 12
-50.0
 22
-300.0
 32
25.0
 13
-50.0
 23
-300.0
 33
0.0
  0
3DFACE
  5
2A9
100
AcDbEntity
  8
àÍî 
370
               5
  6
Continuous
 62
               7
100
AcDbFace
 10
50.0
 20
-200.0
 30
0.0
 11
50.0
 21
-200.0
 31
25.0
 12
50.0
 22
-300.0
 32
25.0
 13
50.0
 23
-300.0
 33
0.0
  0
3DFACE
  5
2AA
100
AcDbEntity
  8
àÍî 
370
               5
  6
Continuous
 62
               7
100
AcDbFace
 10
-50.0
 20
-200.0
 30
0.0
 11
-50.0
 21
-200.0
 31
25.0
 12
50.0
 22
-200.0
 32
25.0
 13
50.0
 23
-200.0
 33
0.0
  0
3DFACE
  5
2AB
100
AcDbEntity
  8
àÍî 
370
               5
  6
Continuous
 62
               7
100
AcDbFace
 10
275.0
 20
425.0
 30
25.0
 11
375.0
 21
425.0
 31
25.0
 12
375.0
 22
325.0
 32
25.0
 13
275.0
 23
325.0
 33
25.0
  0
3DFACE
  5
2AC
100
AcDbEntity
  8
àÍî 
370
               5
  6
Continuous
 62
               7
100
AcDbFace
 10
275.0
 20
425.0
 30
0.0
 11
375.0
 21
425.0
 31
0.0
 12
375.0
 22
325.0
 32
0.0
 13
275.0
 23
325.0
 33
0.0
  0
3DFACE
  5
2AD
100
AcDbEntity
  8
àÍî 
370
               5
  6
Continuous
 62
               7
100
AcDbFace
 10
275.0
 20
325.0
 30
0.0
 11
275.0
 21
325.0
 31
25.0
 12
275.0
 22
425.0
 32
25.0
 13
275.0
 23
425.0
 33
0.0
  0
3DFACE
  5
2AE
100
AcDbEntity
  8
àÍî 
370
               5
  6
Continuous
 62
               7
100
AcDbFace
 10
375.0
 20
325.0
 30
0.0
 11
375.0
 21
325.0
 31
25.0
 12
275.0
 22
325.0
 32
25.0
 13
275.0
 23
325.0
 33
0.0
  0
3DFACE
  5
2AF
100
AcDbEntity
  8
àÍî 
370
               5
  6
Continuous
 62
               7
100
AcDbFace
 10
375.0
 20
425.0
 30
0.0
 11
375.0
 21
425.0
 31
25.0
 12
375.0
 22
325.0
 32
25.0
 13
375.0
 23
325.0
 33
0.0
  0
3DFACE
  5
2B0
100
AcDbEntity
  8
àÍî 
370
               5
  6
Continuous
 62
               7
100
AcDbFace
 10
275.0
 20
425.0
 30
0.0
 11
275.0
 21
425.0
 31
25.0
 12
375.0
 22
425.0
 32
25.0
 13
375.0
 23
425.0
 33
0.0
  0
3DFACE
  5
2B1
100
AcDbEntity
  8
àÍî 
370
               5
  6
Continuous
 62
               7
100
AcDbFace
 10
-375.0
 20
425.0
 30
25.0
 11
-275.0
 21
425.0
 31
25.0
 12
-275.0
 22
325.0
 32
25.0
 13
-375.0
 23
325.0
 33
25.0
  0
3DFACE
  5
2B2
100
AcDbEntity
  8
àÍî 
370
               5
  6
Continuous
 62
               7
100
AcDbFace
 10
-375.0
 20
425.0
 30
0.0
 11
-275.0
 21
425.0
 31
0.0
 12
-275.0
 22
325.0
 32
0.0
 13
-375.0
 23
325.0
 33
0.0
  0
3DFACE
  5
2B3
100
AcDbEntity
  8
àÍî 
370
               5
  6
Continuous
 62
               7
100
AcDbFace
 10
-375.0
 20
325.0
 30
0.0
 11
-375.0
 21
325.0
 31
25.0
 12
-375.0
 22
425.0
 32
25.0
 13
-375.0
 23
425.0
 33
0.0
  0
3DFACE
  5
2B4
100
AcDbEntity
  8
àÍî 
370
               5
  6
Continuous
 62
               7
100
AcDbFace
 10
-275.0
 20
325.0
 30
0.0
 11
-275.0
 21
325.0
 31
25.0
 12
-375.0
 22
325.0
 32
25.0
 13
-375.0
 23
325.0
 33
0.0
  0
3DFACE
  5
2B5
100
AcDbEntity
  8
àÍî 
370
               5
  6
Continuous
 62
               7
100
AcDbFace
 10
-275.0
 20
425.0
 30
0.0
 11
-275.0
 21
425.0
 31
25.0
 12
-275.0
 22
325.0
 32
25.0
 13
-275.0
 23
325.0
 33
0.0
  0
3DFACE
  5
2B6
100
AcDbEntity
  8
àÍî 
370
               5
  6
Continuous
 62
               7
100
AcDbFace
 10
-375.0
 20
425.0
 30
0.0
 11
-375.0
 21
425.0
 31
25.0
 12
-275.0
 22
425.0
 32
25.0
 13
-275.0
 23
425.0
 33
0.0
  0
3DFACE
  5
2B7
100
AcDbEntity
  8
àÍî 
370
               5
  6
Continuous
 62
               7
100
AcDbFace
 10
-200.0
 20
425.0
 30
25.0
 11
-100.0
 21
425.0
 31
25.0
 12
-100.0
 22
325.0
 32
25.0
 13
-200.0
 23
325.0
 33
25.0
  0
3DFACE
  5
2B8
100
AcDbEntity
  8
àÍî 
370
               5
  6
Continuous
 62
               7
100
AcDbFace
 10
-200.0
 20
425.0
 30
0.0
 11
-100.0
 21
425.0
 31
0.0
 12
-100.0
 22
325.0
 32
0.0
 13
-200.0
 23
325.0
 33
0.0
  0
3DFACE
  5
2B9
100
AcDbEntity
  8
àÍî 
370
               5
  6
Continuous
 62
               7
100
AcDbFace
 10
-200.0
 20
325.0
 30
0.0
 11
-200.0
 21
325.0
 31
25.0
 12
-200.0
 22
425.0
 32
25.0
 13
-200.0
 23
425.0
 33
0.0
  0
3DFACE
  5
2BA
100
AcDbEntity
  8
àÍî 
370
               5
  6
Continuous
 62
               7
100
AcDbFace
 10
-100.0
 20
325.0
 30
0.0
 11
-100.0
 21
325.0
 31
25.0
 12
-200.0
 22
325.0
 32
25.0
 13
-200.0
 23
325.0
 33
0.0
  0
3DFACE
  5
2BB
100
AcDbEntity
  8
àÍî 
370
               5
  6
Continuous
 62
               7
100
AcDbFace
 10
-100.0
 20
425.0
 30
0.0
 11
-100.0
 21
425.0
 31
25.0
 12
-100.0
 22
325.0
 32
25.0
 13
-100.0
 23
325.0
 33
0.0
  0
3DFACE
  5
2BC
100
AcDbEntity
  8
àÍî 
370
               5
  6
Continuous
 62
               7
100
AcDbFace
 10
-200.0
 20
425.0
 30
0.0
 11
-200.0
 21
425.0
 31
25.0
 12
-100.0
 22
425.0
 32
25.0
 13
-100.0
 23
425.0
 33
0.0
  0
3DFACE
  5
2BD
100
AcDbEntity
  8
àÍî 
370
               5
  6
Continuous
 62
               7
100
AcDbFace
 10
125.0
 20
425.0
 30
25.0
 11
225.0
 21
425.0
 31
25.0
 12
225.0
 22
325.0
 32
25.0
 13
125.0
 23
325.0
 33
25.0
  0
3DFACE
  5
2BE
100
AcDbEntity
  8
àÍî 
370
               5
  6
Continuous
 62
               7
100
AcDbFace
 10
125.0
 20
425.0
 30
0.0
 11
225.0
 21
425.0
 31
0.0
 12
225.0
 22
325.0
 32
0.0
 13
125.0
 23
325.0
 33
0.0
  0
3DFACE
  5
2BF
100
AcDbEntity
  8
àÍî 
370
               5
  6
Continuous
 62
               7
100
AcDbFace
 10
125.0
 20
325.0
 30
0.0
 11
125.0
 21
325.0
 31
25.0
 12
125.0
 22
425.0
 32
25.0
 13
125.0
 23
425.0
 33
0.0
  0
3DFACE
  5
2C0
100
AcDbEntity
  8
àÍî 
370
               5
  6
Continuous
 62
               7
100
AcDbFace
 10
225.0
 20
325.0
 30
0.0
 11
225.0
 21
325.0
 31
25.0
 12
125.0
 22
325.0
 32
25.0
 13
125.0
 23
325.0
 33
0.0
  0
3DFACE
  5
2C1
100
AcDbEntity
  8
àÍî 
370
               5
  6
Continuous
 62
               7
100
AcDbFace
 10
225.0
 20
425.0
 30
0.0
 11
225.0
 21
425.0
 31
25.0
 12
225.0
 22
325.0
 32
25.0
 13
225.0
 23
325.0
 33
0.0
  0
3DFACE
  5
2C2
100
AcDbEntity
  8
àÍî 
370
               5
  6
Continuous
 62
               7
100
AcDbFace
 10
125.0
 20
425.0
 30
0.0
 11
125.0
 21
425.0
 31
25.0
 12
225.0
 22
425.0
 32
25.0
 13
225.0
 23
425.0
 33
0.0
  0
3DFACE
  5
2C3
100
AcDbEntity
  8
àÍî 
370
               5
  6
Continuous
 62
               7
100
AcDbFace
 10
-50.0
 20
425.0
 30
25.0
 11
50.0
 21
425.0
 31
25.0
 12
50.0
 22
325.0
 32
25.0
 13
-50.0
 23
325.0
 33
25.0
  0
3DFACE
  5
2C4
100
AcDbEntity
  8
àÍî 
370
               5
  6
Continuous
 62
               7
100
AcDbFace
 10
-50.0
 20
425.0
 30
0.0
 11
50.0
 21
425.0
 31
0.0
 12
50.0
 22
325.0
 32
0.0
 13
-50.0
 23
325.0
 33
0.0
  0
3DFACE
  5
2C5
100
AcDbEntity
  8
àÍî 
370
               5
  6
Continuous
 62
               7
100
AcDbFace
 10
-50.0
 20
325.0
 30
0.0
 11
-50.0
 21
325.0
 31
25.0
 12
-50.0
 22
425.0
 32
25.0
 13
-50.0
 23
425.0
 33
0.0
  0
3DFACE
  5
2C6
100
AcDbEntity
  8
àÍî 
370
               5
  6
Continuous
 62
               7
100
AcDbFace
 10
50.0
 20
325.0
 30
0.0
 11
50.0
 21
325.0
 31
25.0
 12
-50.0
 22
325.0
 32
25.0
 13
-50.0
 23
325.0
 33
0.0
  0
3DFACE
  5
2C7
100
AcDbEntity
  8
àÍî 
370
               5
  6
Continuous
 62
               7
100
AcDbFace
 10
50.0
 20
425.0
 30
0.0
 11
50.0
 21
425.0
 31
25.0
 12
50.0
 22
325.0
 32
25.0
 13
50.0
 23
325.0
 33
0.0
  0
3DFACE
  5
2C8
100
AcDbEntity
  8
àÍî 
370
               5
  6
Continuous
 62
               7
100
AcDbFace
 10
-50.0
 20
425.0
 30
0.0
 11
-50.0
 21
425.0
 31
25.0
 12
50.0
 22
425.0
 32
25.0
 13
50.0
 23
425.0
 33
0.0
  0
3DFACE
  5
2C9
100
AcDbEntity
  8
àÍî 
370
               5
  6
Continuous
 62
               7
100
AcDbFace
 10
275.0
 20
300.0
 30
25.0
 11
375.0
 21
300.0
 31
25.0
 12
375.0
 22
200.0
 32
25.0
 13
275.0
 23
200.0
 33
25.0
  0
3DFACE
  5
2CA
100
AcDbEntity
  8
àÍî 
370
               5
  6
Continuous
 62
               7
100
AcDbFace
 10
275.0
 20
300.0
 30
0.0
 11
375.0
 21
300.0
 31
0.0
 12
375.0
 22
200.0
 32
0.0
 13
275.0
 23
200.0
 33
0.0
  0
3DFACE
  5
2CB
100
AcDbEntity
  8
àÍî 
370
               5
  6
Continuous
 62
               7
100
AcDbFace
 10
275.0
 20
200.0
 30
0.0
 11
275.0
 21
200.0
 31
25.0
 12
275.0
 22
300.0
 32
25.0
 13
275.0
 23
300.0
 33
0.0
  0
3DFACE
  5
2CC
100
AcDbEntity
  8
àÍî 
370
               5
  6
Continuous
 62
               7
100
AcDbFace
 10
375.0
 20
200.0
 30
0.0
 11
375.0
 21
200.0
 31
25.0
 12
275.0
 22
200.0
 32
25.0
 13
275.0
 23
200.0
 33
0.0
  0
3DFACE
  5
2CD
100
AcDbEntity
  8
àÍî 
370
               5
  6
Continuous
 62
               7
100
AcDbFace
 10
375.0
 20
300.0
 30
0.0
 11
375.0
 21
300.0
 31
25.0
 12
375.0
 22
200.0
 32
25.0
 13
375.0
 23
200.0
 33
0.0
  0
3DFACE
  5
2CE
100
AcDbEntity
  8
àÍî 
370
               5
  6
Continuous
 62
               7
100
AcDbFace
 10
275.0
 20
300.0
 30
0.0
 11
275.0
 21
300.0
 31
25.0
 12
375.0
 22
300.0
 32
25.0
 13
375.0
 23
300.0
 33
0.0
  0
3DFACE
  5
2CF
100
AcDbEntity
  8
àÍî 
370
               5
  6
Continuous
 62
               7
100
AcDbFace
 10
-375.0
 20
300.0
 30
25.0
 11
-275.0
 21
300.0
 31
25.0
 12
-275.0
 22
200.0
 32
25.0
 13
-375.0
 23
200.0
 33
25.0
  0
3DFACE
  5
2D0
100
AcDbEntity
  8
àÍî 
370
               5
  6
Continuous
 62
               7
100
AcDbFace
 10
-375.0
 20
300.0
 30
0.0
 11
-275.0
 21
300.0
 31
0.0
 12
-275.0
 22
200.0
 32
0.0
 13
-375.0
 23
200.0
 33
0.0
  0
3DFACE
  5
2D1
100
AcDbEntity
  8
àÍî 
370
               5
  6
Continuous
 62
               7
100
AcDbFace
 10
-375.0
 20
200.0
 30
0.0
 11
-375.0
 21
200.0
 31
25.0
 12
-375.0
 22
300.0
 32
25.0
 13
-375.0
 23
300.0
 33
0.0
  0
3DFACE
  5
2D2
100
AcDbEntity
  8
àÍî 
370
               5
  6
Continuous
 62
               7
100
AcDbFace
 10
-275.0
 20
200.0
 30
0.0
 11
-275.0
 21
200.0
 31
25.0
 12
-375.0
 22
200.0
 32
25.0
 13
-375.0
 23
200.0
 33
0.0
  0
3DFACE
  5
2D3
100
AcDbEntity
  8
àÍî 
370
               5
  6
Continuous
 62
               7
100
AcDbFace
 10
-275.0
 20
300.0
 30
0.0
 11
-275.0
 21
300.0
 31
25.0
 12
-275.0
 22
200.0
 32
25.0
 13
-275.0
 23
200.0
 33
0.0
  0
3DFACE
  5
2D4
100
AcDbEntity
  8
àÍî 
370
               5
  6
Continuous
 62
               7
100
AcDbFace
 10
-375.0
 20
300.0
 30
0.0
 11
-375.0
 21
300.0
 31
25.0
 12
-275.0
 22
300.0
 32
25.0
 13
-275.0
 23
300.0
 33
0.0
  0
3DFACE
  5
2D5
100
AcDbEntity
  8
àÍî 
370
               5
  6
Continuous
 62
               7
100
AcDbFace
 10
-200.0
 20
300.0
 30
25.0
 11
-100.0
 21
300.0
 31
25.0
 12
-100.0
 22
200.0
 32
25.0
 13
-200.0
 23
200.0
 33
25.0
  0
3DFACE
  5
2D6
100
AcDbEntity
  8
àÍî 
370
               5
  6
Continuous
 62
               7
100
AcDbFace
 10
-200.0
 20
300.0
 30
0.0
 11
-100.0
 21
300.0
 31
0.0
 12
-100.0
 22
200.0
 32
0.0
 13
-200.0
 23
200.0
 33
0.0
  0
3DFACE
  5
2D7
100
AcDbEntity
  8
àÍî 
370
               5
  6
Continuous
 62
               7
100
AcDbFace
 10
-200.0
 20
200.0
 30
0.0
 11
-200.0
 21
200.0
 31
25.0
 12
-200.0
 22
300.0
 32
25.0
 13
-200.0
 23
300.0
 33
0.0
  0
3DFACE
  5
2D8
100
AcDbEntity
  8
àÍî 
370
               5
  6
Continuous
 62
               7
100
AcDbFace
 10
-100.0
 20
200.0
 30
0.0
 11
-100.0
 21
200.0
 31
25.0
 12
-200.0
 22
200.0
 32
25.0
 13
-200.0
 23
200.0
 33
0.0
  0
3DFACE
  5
2D9
100
AcDbEntity
  8
àÍî 
370
               5
  6
Continuous
 62
               7
100
AcDbFace
 10
-100.0
 20
300.0
 30
0.0
 11
-100.0
 21
300.0
 31
25.0
 12
-100.0
 22
200.0
 32
25.0
 13
-100.0
 23
200.0
 33
0.0
  0
3DFACE
  5
2DA
100
AcDbEntity
  8
àÍî 
370
               5
  6
Continuous
 62
               7
100
AcDbFace
 10
-200.0
 20
300.0
 30
0.0
 11
-200.0
 21
300.0
 31
25.0
 12
-100.0
 22
300.0
 32
25.0
 13
-100.0
 23
300.0
 33
0.0
  0
3DFACE
  5
2DB
100
AcDbEntity
  8
àÍî 
370
               5
  6
Continuous
 62
               7
100
AcDbFace
 10
125.0
 20
300.0
 30
25.0
 11
225.0
 21
300.0
 31
25.0
 12
225.0
 22
200.0
 32
25.0
 13
125.0
 23
200.0
 33
25.0
  0
3DFACE
  5
2DC
100
AcDbEntity
  8
àÍî 
370
               5
  6
Continuous
 62
               7
100
AcDbFace
 10
125.0
 20
300.0
 30
0.0
 11
225.0
 21
300.0
 31
0.0
 12
225.0
 22
200.0
 32
0.0
 13
125.0
 23
200.0
 33
0.0
  0
3DFACE
  5
2DD
100
AcDbEntity
  8
àÍî 
370
               5
  6
Continuous
 62
               7
100
AcDbFace
 10
125.0
 20
200.0
 30
0.0
 11
125.0
 21
200.0
 31
25.0
 12
125.0
 22
300.0
 32
25.0
 13
125.0
 23
300.0
 33
0.0
  0
3DFACE
  5
2DE
100
AcDbEntity
  8
àÍî 
370
               5
  6
Continuous
 62
               7
100
AcDbFace
 10
225.0
 20
200.0
 30
0.0
 11
225.0
 21
200.0
 31
25.0
 12
125.0
 22
200.0
 32
25.0
 13
125.0
 23
200.0
 33
0.0
  0
3DFACE
  5
2DF
100
AcDbEntity
  8
àÍî 
370
               5
  6
Continuous
 62
               7
100
AcDbFace
 10
225.0
 20
300.0
 30
0.0
 11
225.0
 21
300.0
 31
25.0
 12
225.0
 22
200.0
 32
25.0
 13
225.0
 23
200.0
 33
0.0
  0
3DFACE
  5
2E0
100
AcDbEntity
  8
àÍî 
370
               5
  6
Continuous
 62
               7
100
AcDbFace
 10
125.0
 20
300.0
 30
0.0
 11
125.0
 21
300.0
 31
25.0
 12
225.0
 22
300.0
 32
25.0
 13
225.0
 23
300.0
 33
0.0
  0
3DFACE
  5
2E1
100
AcDbEntity
  8
àÍî 
370
               5
  6
Continuous
 62
               7
100
AcDbFace
 10
-50.0
 20
300.0
 30
25.0
 11
50.0
 21
300.0
 31
25.0
 12
50.0
 22
200.0
 32
25.0
 13
-50.0
 23
200.0
 33
25.0
  0
3DFACE
  5
2E2
100
AcDbEntity
  8
àÍî 
370
               5
  6
Continuous
 62
               7
100
AcDbFace
 10
-50.0
 20
300.0
 30
0.0
 11
50.0
 21
300.0
 31
0.0
 12
50.0
 22
200.0
 32
0.0
 13
-50.0
 23
200.0
 33
0.0
  0
3DFACE
  5
2E3
100
AcDbEntity
  8
àÍî 
370
               5
  6
Continuous
 62
               7
100
AcDbFace
 10
-50.0
 20
200.0
 30
0.0
 11
-50.0
 21
200.0
 31
25.0
 12
-50.0
 22
300.0
 32
25.0
 13
-50.0
 23
300.0
 33
0.0
  0
3DFACE
  5
2E4
100
AcDbEntity
  8
àÍî 
370
               5
  6
Continuous
 62
               7
100
AcDbFace
 10
50.0
 20
200.0
 30
0.0
 11
50.0
 21
200.0
 31
25.0
 12
-50.0
 22
200.0
 32
25.0
 13
-50.0
 23
200.0
 33
0.0
  0
3DFACE
  5
2E5
100
AcDbEntity
  8
àÍî 
370
               5
  6
Continuous
 62
               7
100
AcDbFace
 10
50.0
 20
300.0
 30
0.0
 11
50.0
 21
300.0
 31
25.0
 12
50.0
 22
200.0
 32
25.0
 13
50.0
 23
200.0
 33
0.0
  0
3DFACE
  5
2E6
100
AcDbEntity
  8
àÍî 
370
               5
  6
Continuous
 62
               7
100
AcDbFace
 10
-50.0
 20
300.0
 30
0.0
 11
-50.0
 21
300.0
 31
25.0
 12
50.0
 22
300.0
 32
25.0
 13
50.0
 23
300.0
 33
0.0
  0
3DFACE
  5
2E7
100
AcDbEntity
  8
àÍî 
370
               5
  6
Continuous
 62
               7
100
AcDbFace
 10
275.0
 20
50.0
 30
25.0
 11
375.0
 21
50.0
 31
25.0
 12
375.0
 22
-50.0
 32
25.0
 13
275.0
 23
-50.0
 33
25.0
  0
3DFACE
  5
2E8
100
AcDbEntity
  8
àÍî 
370
               5
  6
Continuous
 62
               7
100
AcDbFace
 10
275.0
 20
50.0
 30
0.0
 11
375.0
 21
50.0
 31
0.0
 12
375.0
 22
-50.0
 32
0.0
 13
275.0
 23
-50.0
 33
0.0
  0
3DFACE
  5
2E9
100
AcDbEntity
  8
àÍî 
370
               5
  6
Continuous
 62
               7
100
AcDbFace
 10
275.0
 20
-50.0
 30
0.0
 11
275.0
 21
-50.0
 31
25.0
 12
275.0
 22
50.0
 32
25.0
 13
275.0
 23
50.0
 33
0.0
  0
3DFACE
  5
2EA
100
AcDbEntity
  8
àÍî 
370
               5
  6
Continuous
 62
               7
100
AcDbFace
 10
375.0
 20
-50.0
 30
0.0
 11
375.0
 21
-50.0
 31
25.0
 12
275.0
 22
-50.0
 32
25.0
 13
275.0
 23
-50.0
 33
0.0
  0
3DFACE
  5
2EB
100
AcDbEntity
  8
àÍî 
370
               5
  6
Continuous
 62
               7
100
AcDbFace
 10
375.0
 20
50.0
 30
0.0
 11
375.0
 21
50.0
 31
25.0
 12
375.0
 22
-50.0
 32
25.0
 13
375.0
 23
-50.0
 33
0.0
  0
3DFACE
  5
2EC
100
AcDbEntity
  8
àÍî 
370
               5
  6
Continuous
 62
               7
100
AcDbFace
 10
275.0
 20
50.0
 30
0.0
 11
275.0
 21
50.0
 31
25.0
 12
375.0
 22
50.0
 32
25.0
 13
375.0
 23
50.0
 33
0.0
  0
3DFACE
  5
2ED
100
AcDbEntity
  8
àÍî 
370
               5
  6
Continuous
 62
               7
100
AcDbFace
 10
-375.0
 20
50.0
 30
25.0
 11
-275.0
 21
50.0
 31
25.0
 12
-275.0
 22
-50.0
 32
25.0
 13
-375.0
 23
-50.0
 33
25.0
  0
3DFACE
  5
2EE
100
AcDbEntity
  8
àÍî 
370
               5
  6
Continuous
 62
               7
100
AcDbFace
 10
-375.0
 20
50.0
 30
0.0
 11
-275.0
 21
50.0
 31
0.0
 12
-275.0
 22
-50.0
 32
0.0
 13
-375.0
 23
-50.0
 33
0.0
  0
3DFACE
  5
2EF
100
AcDbEntity
  8
àÍî 
370
               5
  6
Continuous
 62
               7
100
AcDbFace
 10
-375.0
 20
-50.0
 30
0.0
 11
-375.0
 21
-50.0
 31
25.0
 12
-375.0
 22
50.0
 32
25.0
 13
-375.0
 23
50.0
 33
0.0
  0
3DFACE
  5
2F0
100
AcDbEntity
  8
àÍî 
370
               5
  6
Continuous
 62
               7
100
AcDbFace
 10
-275.0
 20
-50.0
 30
0.0
 11
-275.0
 21
-50.0
 31
25.0
 12
-375.0
 22
-50.0
 32
25.0
 13
-375.0
 23
-50.0
 33
0.0
  0
3DFACE
  5
2F1
100
AcDbEntity
  8
àÍî 
370
               5
  6
Continuous
 62
               7
100
AcDbFace
 10
-275.0
 20
50.0
 30
0.0
 11
-275.0
 21
50.0
 31
25.0
 12
-275.0
 22
-50.0
 32
25.0
 13
-275.0
 23
-50.0
 33
0.0
  0
3DFACE
  5
2F2
100
AcDbEntity
  8
àÍî 
370
               5
  6
Continuous
 62
               7
100
AcDbFace
 10
-375.0
 20
50.0
 30
0.0
 11
-375.0
 21
50.0
 31
25.0
 12
-275.0
 22
50.0
 32
25.0
 13
-275.0
 23
50.0
 33
0.0
  0
3DFACE
  5
2F3
100
AcDbEntity
  8
àÍî 
370
               5
  6
Continuous
 62
               7
100
AcDbFace
 10
-200.0
 20
50.0
 30
25.0
 11
-100.0
 21
50.0
 31
25.0
 12
-100.0
 22
-50.0
 32
25.0
 13
-200.0
 23
-50.0
 33
25.0
  0
3DFACE
  5
2F4
100
AcDbEntity
  8
àÍî 
370
               5
  6
Continuous
 62
               7
100
AcDbFace
 10
-200.0
 20
50.0
 30
0.0
 11
-100.0
 21
50.0
 31
0.0
 12
-100.0
 22
-50.0
 32
0.0
 13
-200.0
 23
-50.0
 33
0.0
  0
3DFACE
  5
2F5
100
AcDbEntity
  8
àÍî 
370
               5
  6
Continuous
 62
               7
100
AcDbFace
 10
-200.0
 20
-50.0
 30
0.0
 11
-200.0
 21
-50.0
 31
25.0
 12
-200.0
 22
50.0
 32
25.0
 13
-200.0
 23
50.0
 33
0.0
  0
3DFACE
  5
2F6
100
AcDbEntity
  8
àÍî 
370
               5
  6
Continuous
 62
               7
100
AcDbFace
 10
-100.0
 20
-50.0
 30
0.0
 11
-100.0
 21
-50.0
 31
25.0
 12
-200.0
 22
-50.0
 32
25.0
 13
-200.0
 23
-50.0
 33
0.0
  0
3DFACE
  5
2F7
100
AcDbEntity
  8
àÍî 
370
               5
  6
Continuous
 62
               7
100
AcDbFace
 10
-100.0
 20
50.0
 30
0.0
 11
-100.0
 21
50.0
 31
25.0
 12
-100.0
 22
-50.0
 32
25.0
 13
-100.0
 23
-50.0
 33
0.0
  0
3DFACE
  5
2F8
100
AcDbEntity
  8
àÍî 
370
               5
  6
Continuous
 62
               7
100
AcDbFace
 10
-200.0
 20
50.0
 30
0.0
 11
-200.0
 21
50.0
 31
25.0
 12
-100.0
 22
50.0
 32
25.0
 13
-100.0
 23
50.0
 33
0.0
  0
3DFACE
  5
2F9
100
AcDbEntity
  8
àÍî 
370
               5
  6
Continuous
 62
               7
100
AcDbFace
 10
125.0
 20
50.0
 30
25.0
 11
225.0
 21
50.0
 31
25.0
 12
225.0
 22
-50.0
 32
25.0
 13
125.0
 23
-50.0
 33
25.0
  0
3DFACE
  5
2FA
100
AcDbEntity
  8
àÍî 
370
               5
  6
Continuous
 62
               7
100
AcDbFace
 10
125.0
 20
50.0
 30
0.0
 11
225.0
 21
50.0
 31
0.0
 12
225.0
 22
-50.0
 32
0.0
 13
125.0
 23
-50.0
 33
0.0
  0
3DFACE
  5
2FB
100
AcDbEntity
  8
àÍî 
370
               5
  6
Continuous
 62
               7
100
AcDbFace
 10
125.0
 20
-50.0
 30
0.0
 11
125.0
 21
-50.0
 31
25.0
 12
125.0
 22
50.0
 32
25.0
 13
125.0
 23
50.0
 33
0.0
  0
3DFACE
  5
2FC
100
AcDbEntity
  8
àÍî 
370
               5
  6
Continuous
 62
               7
100
AcDbFace
 10
225.0
 20
-50.0
 30
0.0
 11
225.0
 21
-50.0
 31
25.0
 12
125.0
 22
-50.0
 32
25.0
 13
125.0
 23
-50.0
 33
0.0
  0
3DFACE
  5
2FD
100
AcDbEntity
  8
àÍî 
370
               5
  6
Continuous
 62
               7
100
AcDbFace
 10
225.0
 20
50.0
 30
0.0
 11
225.0
 21
50.0
 31
25.0
 12
225.0
 22
-50.0
 32
25.0
 13
225.0
 23
-50.0
 33
0.0
  0
3DFACE
  5
2FE
100
AcDbEntity
  8
àÍî 
370
               5
  6
Continuous
 62
               7
100
AcDbFace
 10
125.0
 20
50.0
 30
0.0
 11
125.0
 21
50.0
 31
25.0
 12
225.0
 22
50.0
 32
25.0
 13
225.0
 23
50.0
 33
0.0
  0
3DFACE
  5
2FF
100
AcDbEntity
  8
àÍî 
370
               5
  6
Continuous
 62
               7
100
AcDbFace
 10
275.0
 20
-75.0
 30
25.0
 11
375.0
 21
-75.0
 31
25.0
 12
375.0
 22
-175.0
 32
25.0
 13
275.0
 23
-175.0
 33
25.0
  0
3DFACE
  5
300
100
AcDbEntity
  8
àÍî 
370
               5
  6
Continuous
 62
               7
100
AcDbFace
 10
275.0
 20
-75.0
 30
0.0
 11
375.0
 21
-75.0
 31
0.0
 12
375.0
 22
-175.0
 32
0.0
 13
275.0
 23
-175.0
 33
0.0
  0
3DFACE
  5
301
100
AcDbEntity
  8
àÍî 
370
               5
  6
Continuous
 62
               7
100
AcDbFace
 10
275.0
 20
-175.0
 30
0.0
 11
275.0
 21
-175.0
 31
25.0
 12
275.0
 22
-75.0
 32
25.0
 13
275.0
 23
-75.0
 33
0.0
  0
3DFACE
  5
302
100
AcDbEntity
  8
àÍî 
370
               5
  6
Continuous
 62
               7
100
AcDbFace
 10
375.0
 20
-175.0
 30
0.0
 11
375.0
 21
-175.0
 31
25.0
 12
275.0
 22
-175.0
 32
25.0
 13
275.0
 23
-175.0
 33
0.0
  0
3DFACE
  5
303
100
AcDbEntity
  8
àÍî 
370
               5
  6
Continuous
 62
               7
100
AcDbFace
 10
375.0
 20
-75.0
 30
0.0
 11
375.0
 21
-75.0
 31
25.0
 12
375.0
 22
-175.0
 32
25.0
 13
375.0
 23
-175.0
 33
0.0
  0
3DFACE
  5
304
100
AcDbEntity
  8
àÍî 
370
               5
  6
Continuous
 62
               7
100
AcDbFace
 10
275.0
 20
-75.0
 30
0.0
 11
275.0
 21
-75.0
 31
25.0
 12
375.0
 22
-75.0
 32
25.0
 13
375.0
 23
-75.0
 33
0.0
  0
3DFACE
  5
305
100
AcDbEntity
  8
àÍî 
370
               5
  6
Continuous
 62
               7
100
AcDbFace
 10
-375.0
 20
-75.0
 30
25.0
 11
-275.0
 21
-75.0
 31
25.0
 12
-275.0
 22
-175.0
 32
25.0
 13
-375.0
 23
-175.0
 33
25.0
  0
3DFACE
  5
306
100
AcDbEntity
  8
àÍî 
370
               5
  6
Continuous
 62
               7
100
AcDbFace
 10
-375.0
 20
-75.0
 30
0.0
 11
-275.0
 21
-75.0
 31
0.0
 12
-275.0
 22
-175.0
 32
0.0
 13
-375.0
 23
-175.0
 33
0.0
  0
3DFACE
  5
307
100
AcDbEntity
  8
àÍî 
370
               5
  6
Continuous
 62
               7
100
AcDbFace
 10
-375.0
 20
-175.0
 30
0.0
 11
-375.0
 21
-175.0
 31
25.0
 12
-375.0
 22
-75.0
 32
25.0
 13
-375.0
 23
-75.0
 33
0.0
  0
3DFACE
  5
308
100
AcDbEntity
  8
àÍî 
370
               5
  6
Continuous
 62
               7
100
AcDbFace
 10
-275.0
 20
-175.0
 30
0.0
 11
-275.0
 21
-175.0
 31
25.0
 12
-375.0
 22
-175.0
 32
25.0
 13
-375.0
 23
-175.0
 33
0.0
  0
3DFACE
  5
309
100
AcDbEntity
  8
àÍî 
370
               5
  6
Continuous
 62
               7
100
AcDbFace
 10
-275.0
 20
-75.0
 30
0.0
 11
-275.0
 21
-75.0
 31
25.0
 12
-275.0
 22
-175.0
 32
25.0
 13
-275.0
 23
-175.0
 33
0.0
  0
3DFACE
  5
30A
100
AcDbEntity
  8
àÍî 
370
               5
  6
Continuous
 62
               7
100
AcDbFace
 10
-375.0
 20
-75.0
 30
0.0
 11
-375.0
 21
-75.0
 31
25.0
 12
-275.0
 22
-75.0
 32
25.0
 13
-275.0
 23
-75.0
 33
0.0
  0
3DFACE
  5
30B
100
AcDbEntity
  8
àÍî 
370
               5
  6
Continuous
 62
               7
100
AcDbFace
 10
-200.0
 20
-75.0
 30
25.0
 11
-100.0
 21
-75.0
 31
25.0
 12
-100.0
 22
-175.0
 32
25.0
 13
-200.0
 23
-175.0
 33
25.0
  0
3DFACE
  5
30C
100
AcDbEntity
  8
àÍî 
370
               5
  6
Continuous
 62
               7
100
AcDbFace
 10
-200.0
 20
-75.0
 30
0.0
 11
-100.0
 21
-75.0
 31
0.0
 12
-100.0
 22
-175.0
 32
0.0
 13
-200.0
 23
-175.0
 33
0.0
  0
3DFACE
  5
30D
100
AcDbEntity
  8
àÍî 
370
               5
  6
Continuous
 62
               7
100
AcDbFace
 10
-200.0
 20
-175.0
 30
0.0
 11
-200.0
 21
-175.0
 31
25.0
 12
-200.0
 22
-75.0
 32
25.0
 13
-200.0
 23
-75.0
 33
0.0
  0
3DFACE
  5
30E
100
AcDbEntity
  8
àÍî 
370
               5
  6
Continuous
 62
               7
100
AcDbFace
 10
-100.0
 20
-175.0
 30
0.0
 11
-100.0
 21
-175.0
 31
25.0
 12
-200.0
 22
-175.0
 32
25.0
 13
-200.0
 23
-175.0
 33
0.0
  0
3DFACE
  5
30F
100
AcDbEntity
  8
àÍî 
370
               5
  6
Continuous
 62
               7
100
AcDbFace
 10
-100.0
 20
-75.0
 30
0.0
 11
-100.0
 21
-75.0
 31
25.0
 12
-100.0
 22
-175.0
 32
25.0
 13
-100.0
 23
-175.0
 33
0.0
  0
3DFACE
  5
310
100
AcDbEntity
  8
àÍî 
370
               5
  6
Continuous
 62
               7
100
AcDbFace
 10
-200.0
 20
-75.0
 30
0.0
 11
-200.0
 21
-75.0
 31
25.0
 12
-100.0
 22
-75.0
 32
25.0
 13
-100.0
 23
-75.0
 33
0.0
  0
3DFACE
  5
311
100
AcDbEntity
  8
àÍî 
370
               5
  6
Continuous
 62
               7
100
AcDbFace
 10
125.0
 20
-75.0
 30
25.0
 11
225.0
 21
-75.0
 31
25.0
 12
225.0
 22
-175.0
 32
25.0
 13
125.0
 23
-175.0
 33
25.0
  0
3DFACE
  5
312
100
AcDbEntity
  8
àÍî 
370
               5
  6
Continuous
 62
               7
100
AcDbFace
 10
125.0
 20
-75.0
 30
0.0
 11
225.0
 21
-75.0
 31
0.0
 12
225.0
 22
-175.0
 32
0.0
 13
125.0
 23
-175.0
 33
0.0
  0
3DFACE
  5
313
100
AcDbEntity
  8
àÍî 
370
               5
  6
Continuous
 62
               7
100
AcDbFace
 10
125.0
 20
-175.0
 30
0.0
 11
125.0
 21
-175.0
 31
25.0
 12
125.0
 22
-75.0
 32
25.0
 13
125.0
 23
-75.0
 33
0.0
  0
3DFACE
  5
314
100
AcDbEntity
  8
àÍî 
370
               5
  6
Continuous
 62
               7
100
AcDbFace
 10
225.0
 20
-175.0
 30
0.0
 11
225.0
 21
-175.0
 31
25.0
 12
125.0
 22
-175.0
 32
25.0
 13
125.0
 23
-175.0
 33
0.0
  0
3DFACE
  5
315
100
AcDbEntity
  8
àÍî 
370
               5
  6
Continuous
 62
               7
100
AcDbFace
 10
225.0
 20
-75.0
 30
0.0
 11
225.0
 21
-75.0
 31
25.0
 12
225.0
 22
-175.0
 32
25.0
 13
225.0
 23
-175.0
 33
0.0
  0
3DFACE
  5
316
100
AcDbEntity
  8
àÍî 
370
               5
  6
Continuous
 62
               7
100
AcDbFace
 10
125.0
 20
-75.0
 30
0.0
 11
125.0
 21
-75.0
 31
25.0
 12
225.0
 22
-75.0
 32
25.0
 13
225.0
 23
-75.0
 33
0.0
  0
3DFACE
  5
317
100
AcDbEntity
  8
àÍî 
370
               5
  6
Continuous
 62
               7
100
AcDbFace
 10
-50.0
 20
-75.0
 30
25.0
 11
50.0
 21
-75.0
 31
25.0
 12
50.0
 22
-175.0
 32
25.0
 13
-50.0
 23
-175.0
 33
25.0
  0
3DFACE
  5
318
100
AcDbEntity
  8
àÍî 
370
               5
  6
Continuous
 62
               7
100
AcDbFace
 10
-50.0
 20
-75.0
 30
0.0
 11
50.0
 21
-75.0
 31
0.0
 12
50.0
 22
-175.0
 32
0.0
 13
-50.0
 23
-175.0
 33
0.0
  0
3DFACE
  5
319
100
AcDbEntity
  8
àÍî 
370
               5
  6
Continuous
 62
               7
100
AcDbFace
 10
-50.0
 20
-175.0
 30
0.0
 11
-50.0
 21
-175.0
 31
25.0
 12
-50.0
 22
-75.0
 32
25.0
 13
-50.0
 23
-75.0
 33
0.0
  0
3DFACE
  5
31A
100
AcDbEntity
  8
àÍî 
370
               5
  6
Continuous
 62
               7
100
AcDbFace
 10
50.0
 20
-175.0
 30
0.0
 11
50.0
 21
-175.0
 31
25.0
 12
-50.0
 22
-175.0
 32
25.0
 13
-50.0
 23
-175.0
 33
0.0
  0
3DFACE
  5
31B
100
AcDbEntity
  8
àÍî 
370
               5
  6
Continuous
 62
               7
100
AcDbFace
 10
50.0
 20
-75.0
 30
0.0
 11
50.0
 21
-75.0
 31
25.0
 12
50.0
 22
-175.0
 32
25.0
 13
50.0
 23
-175.0
 33
0.0
  0
3DFACE
  5
31C
100
AcDbEntity
  8
àÍî 
370
               5
  6
Continuous
 62
               7
100
AcDbFace
 10
-50.0
 20
-75.0
 30
0.0
 11
-50.0
 21
-75.0
 31
25.0
 12
50.0
 22
-75.0
 32
25.0
 13
50.0
 23
-75.0
 33
0.0
  0
3DFACE
  5
31D
100
AcDbEntity
  8
àÍî 
370
               5
  6
Continuous
 62
               7
100
AcDbFace
 10
275.0
 20
175.0
 30
25.0
 11
375.0
 21
175.0
 31
25.0
 12
375.0
 22
75.0
 32
25.0
 13
275.0
 23
75.0
 33
25.0
  0
3DFACE
  5
31E
100
AcDbEntity
  8
àÍî 
370
               5
  6
Continuous
 62
               7
100
AcDbFace
 10
275.0
 20
175.0
 30
0.0
 11
375.0
 21
175.0
 31
0.0
 12
375.0
 22
75.0
 32
0.0
 13
275.0
 23
75.0
 33
0.0
  0
3DFACE
  5
31F
100
AcDbEntity
  8
àÍî 
370
               5
  6
Continuous
 62
               7
100
AcDbFace
 10
275.0
 20
75.0
 30
0.0
 11
275.0
 21
75.0
 31
25.0
 12
275.0
 22
175.0
 32
25.0
 13
275.0
 23
175.0
 33
0.0
  0
3DFACE
  5
320
100
AcDbEntity
  8
àÍî 
370
               5
  6
Continuous
 62
               7
100
AcDbFace
 10
375.0
 20
75.0
 30
0.0
 11
375.0
 21
75.0
 31
25.0
 12
275.0
 22
75.0
 32
25.0
 13
275.0
 23
75.0
 33
0.0
  0
3DFACE
  5
321
100
AcDbEntity
  8
àÍî 
370
               5
  6
Continuous
 62
               7
100
AcDbFace
 10
375.0
 20
175.0
 30
0.0
 11
375.0
 21
175.0
 31
25.0
 12
375.0
 22
75.0
 32
25.0
 13
375.0
 23
75.0
 33
0.0
  0
3DFACE
  5
322
100
AcDbEntity
  8
àÍî 
370
               5
  6
Continuous
 62
               7
100
AcDbFace
 10
275.0
 20
175.0
 30
0.0
 11
275.0
 21
175.0
 31
25.0
 12
375.0
 22
175.0
 32
25.0
 13
375.0
 23
175.0
 33
0.0
  0
3DFACE
  5
323
100
AcDbEntity
  8
àÍî 
370
               5
  6
Continuous
 62
               7
100
AcDbFace
 10
-375.0
 20
175.0
 30
25.0
 11
-275.0
 21
175.0
 31
25.0
 12
-275.0
 22
75.0
 32
25.0
 13
-375.0
 23
75.0
 33
25.0
  0
3DFACE
  5
324
100
AcDbEntity
  8
àÍî 
370
               5
  6
Continuous
 62
               7
100
AcDbFace
 10
-375.0
 20
175.0
 30
0.0
 11
-275.0
 21
175.0
 31
0.0
 12
-275.0
 22
75.0
 32
0.0
 13
-375.0
 23
75.0
 33
0.0
  0
3DFACE
  5
325
100
AcDbEntity
  8
àÍî 
370
               5
  6
Continuous
 62
               7
100
AcDbFace
 10
-375.0
 20
75.0
 30
0.0
 11
-375.0
 21
75.0
 31
25.0
 12
-375.0
 22
175.0
 32
25.0
 13
-375.0
 23
175.0
 33
0.0
  0
3DFACE
  5
326
100
AcDbEntity
  8
àÍî 
370
               5
  6
Continuous
 62
               7
100
AcDbFace
 10
-275.0
 20
75.0
 30
0.0
 11
-275.0
 21
75.0
 31
25.0
 12
-375.0
 22
75.0
 32
25.0
 13
-375.0
 23
75.0
 33
0.0
  0
3DFACE
  5
327
100
AcDbEntity
  8
àÍî 
370
               5
  6
Continuous
 62
               7
100
AcDbFace
 10
-275.0
 20
175.0
 30
0.0
 11
-275.0
 21
175.0
 31
25.0
 12
-275.0
 22
75.0
 32
25.0
 13
-275.0
 23
75.0
 33
0.0
  0
3DFACE
  5
328
100
AcDbEntity
  8
àÍî 
370
               5
  6
Continuous
 62
               7
100
AcDbFace
 10
-375.0
 20
175.0
 30
0.0
 11
-375.0
 21
175.0
 31
25.0
 12
-275.0
 22
175.0
 32
25.0
 13
-275.0
 23
175.0
 33
0.0
  0
3DFACE
  5
329
100
AcDbEntity
  8
àÍî 
370
               5
  6
Continuous
 62
               7
100
AcDbFace
 10
-200.0
 20
175.0
 30
25.0
 11
-100.0
 21
175.0
 31
25.0
 12
-100.0
 22
75.0
 32
25.0
 13
-200.0
 23
75.0
 33
25.0
  0
3DFACE
  5
32A
100
AcDbEntity
  8
àÍî 
370
               5
  6
Continuous
 62
               7
100
AcDbFace
 10
-200.0
 20
175.0
 30
0.0
 11
-100.0
 21
175.0
 31
0.0
 12
-100.0
 22
75.0
 32
0.0
 13
-200.0
 23
75.0
 33
0.0
  0
3DFACE
  5
32B
100
AcDbEntity
  8
àÍî 
370
               5
  6
Continuous
 62
               7
100
AcDbFace
 10
-200.0
 20
75.0
 30
0.0
 11
-200.0
 21
75.0
 31
25.0
 12
-200.0
 22
175.0
 32
25.0
 13
-200.0
 23
175.0
 33
0.0
  0
3DFACE
  5
32C
100
AcDbEntity
  8
àÍî 
370
               5
  6
Continuous
 62
               7
100
AcDbFace
 10
-100.0
 20
75.0
 30
0.0
 11
-100.0
 21
75.0
 31
25.0
 12
-200.0
 22
75.0
 32
25.0
 13
-200.0
 23
75.0
 33
0.0
  0
3DFACE
  5
32D
100
AcDbEntity
  8
àÍî 
370
               5
  6
Continuous
 62
               7
100
AcDbFace
 10
-100.0
 20
175.0
 30
0.0
 11
-100.0
 21
175.0
 31
25.0
 12
-100.0
 22
75.0
 32
25.0
 13
-100.0
 23
75.0
 33
0.0
  0
3DFACE
  5
32E
100
AcDbEntity
  8
àÍî 
370
               5
  6
Continuous
 62
               7
100
AcDbFace
 10
-200.0
 20
175.0
 30
0.0
 11
-200.0
 21
175.0
 31
25.0
 12
-100.0
 22
175.0
 32
25.0
 13
-100.0
 23
175.0
 33
0.0
  0
3DFACE
  5
32F
100
AcDbEntity
  8
àÍî 
370
               5
  6
Continuous
 62
               7
100
AcDbFace
 10
125.0
 20
175.0
 30
25.0
 11
225.0
 21
175.0
 31
25.0
 12
225.0
 22
75.0
 32
25.0
 13
125.0
 23
75.0
 33
25.0
  0
3DFACE
  5
330
100
AcDbEntity
  8
àÍî 
370
               5
  6
Continuous
 62
               7
100
AcDbFace
 10
125.0
 20
175.0
 30
0.0
 11
225.0
 21
175.0
 31
0.0
 12
225.0
 22
75.0
 32
0.0
 13
125.0
 23
75.0
 33
0.0
  0
3DFACE
  5
331
100
AcDbEntity
  8
àÍî 
370
               5
  6
Continuous
 62
               7
100
AcDbFace
 10
125.0
 20
75.0
 30
0.0
 11
125.0
 21
75.0
 31
25.0
 12
125.0
 22
175.0
 32
25.0
 13
125.0
 23
175.0
 33
0.0
  0
3DFACE
  5
332
100
AcDbEntity
  8
àÍî 
370
               5
  6
Continuous
 62
               7
100
AcDbFace
 10
225.0
 20
75.0
 30
0.0
 11
225.0
 21
75.0
 31
25.0
 12
125.0
 22
75.0
 32
25.0
 13
125.0
 23
75.0
 33
0.0
  0
3DFACE
  5
333
100
AcDbEntity
  8
àÍî 
370
               5
  6
Continuous
 62
               7
100
AcDbFace
 10
225.0
 20
175.0
 30
0.0
 11
225.0
 21
175.0
 31
25.0
 12
225.0
 22
75.0
 32
25.0
 13
225.0
 23
75.0
 33
0.0
  0
3DFACE
  5
334
100
AcDbEntity
  8
àÍî 
370
               5
  6
Continuous
 62
               7
100
AcDbFace
 10
125.0
 20
175.0
 30
0.0
 11
125.0
 21
175.0
 31
25.0
 12
225.0
 22
175.0
 32
25.0
 13
225.0
 23
175.0
 33
0.0
  0
3DFACE
  5
335
100
AcDbEntity
  8
àÍî 
370
               5
  6
Continuous
 62
               7
100
AcDbFace
 10
-50.0
 20
175.0
 30
25.0
 11
50.0
 21
175.0
 31
25.0
 12
50.0
 22
75.0
 32
25.0
 13
-50.0
 23
75.0
 33
25.0
  0
3DFACE
  5
336
100
AcDbEntity
  8
àÍî 
370
               5
  6
Continuous
 62
               7
100
AcDbFace
 10
-50.0
 20
175.0
 30
0.0
 11
50.0
 21
175.0
 31
0.0
 12
50.0
 22
75.0
 32
0.0
 13
-50.0
 23
75.0
 33
0.0
  0
3DFACE
  5
337
100
AcDbEntity
  8
àÍî 
370
               5
  6
Continuous
 62
               7
100
AcDbFace
 10
-50.0
 20
75.0
 30
0.0
 11
-50.0
 21
75.0
 31
25.0
 12
-50.0
 22
175.0
 32
25.0
 13
-50.0
 23
175.0
 33
0.0
  0
3DFACE
  5
338
100
AcDbEntity
  8
àÍî 
370
               5
  6
Continuous
 62
               7
100
AcDbFace
 10
50.0
 20
75.0
 30
0.0
 11
50.0
 21
75.0
 31
25.0
 12
-50.0
 22
75.0
 32
25.0
 13
-50.0
 23
75.0
 33
0.0
  0
3DFACE
  5
339
100
AcDbEntity
  8
àÍî 
370
               5
  6
Continuous
 62
               7
100
AcDbFace
 10
50.0
 20
175.0
 30
0.0
 11
50.0
 21
175.0
 31
25.0
 12
50.0
 22
75.0
 32
25.0
 13
50.0
 23
75.0
 33
0.0
  0
3DFACE
  5
33A
100
AcDbEntity
  8
àÍî 
370
               5
  6
Continuous
 62
               7
100
AcDbFace
 10
-50.0
 20
175.0
 30
0.0
 11
-50.0
 21
175.0
 31
25.0
 12
50.0
 22
175.0
 32
25.0
 13
50.0
 23
175.0
 33
0.0
  0
3DFACE
  5
33B
100
AcDbEntity
  8
àÍî 
370
               5
  6
Continuous
 62
               7
100
AcDbFace
 10
-31.25
 20
31.25
 30
250.0
 11
31.25
 21
31.25
 31
250.0
 12
31.25
 22
-31.25
 32
250.0
 13
-31.25
 23
-31.25
 33
250.0
  0
3DFACE
  5
33C
100
AcDbEntity
  8
àÍî 
370
               5
  6
Continuous
 62
               7
100
AcDbFace
 10
-31.25
 20
31.25
 30
0.0
 11
31.25
 21
31.25
 31
0.0
 12
31.25
 22
-31.25
 32
0.0
 13
-31.25
 23
-31.25
 33
0.0
  0
3DFACE
  5
33D
100
AcDbEntity
  8
àÍî 
370
               5
  6
Continuous
 62
               7
100
AcDbFace
 10
-31.25
 20
-31.25
 30
0.0
 11
-31.25
 21
-31.25
 31
250.0
 12
-31.25
 22
31.25
 32
250.0
 13
-31.25
 23
31.25
 33
0.0
  0
3DFACE
  5
33E
100
AcDbEntity
  8
àÍî 
370
               5
  6
Continuous
 62
               7
100
AcDbFace
 10
31.25
 20
-31.25
 30
0.0
 11
31.25
 21
-31.25
 31
250.0
 12
-31.25
 22
-31.25
 32
250.0
 13
-31.25
 23
-31.25
 33
0.0
  0
3DFACE
  5
33F
100
AcDbEntity
  8
àÍî 
370
               5
  6
Continuous
 62
               7
100
AcDbFace
 10
31.25
 20
31.25
 30
0.0
 11
31.25
 21
31.25
 31
250.0
 12
31.25
 22
-31.25
 32
250.0
 13
31.25
 23
-31.25
 33
0.0
  0
3DFACE
  5
340
100
AcDbEntity
  8
àÍî 
370
               5
  6
Continuous
 62
               7
100
AcDbFace
 10
-31.25
 20
31.25
 30
0.0
 11
-31.25
 21
31.25
 31
250.0
 12
31.25
 22
31.25
 32
250.0
 13
31.25
 23
31.25
 33
0.0
  0
ENDSEC
  0
SECTION
  2
OBJECTS
  0
DICTIONARY
  5
19
100
AcDbDictionary
280
               0
281
               1
  3
ACAD_GROUP
350
1A
  3
ACAD_MLINESTYLE
350
1B
  3
ACAD_LAYOUT
350
1E
  3
ACAD_PLOTSETTINGS
350
22
  3
ACAD_PLOTSTYLENAME
350
1F
  0
DICTIONARY
  5
1A
102
{ACAD_REACTORS
330
19
102
}
100
AcDbDictionary
280
               0
281
               1
  0
DICTIONARY
  5
1B
102
{ACAD_REACTORS
330
19
102
}
100
AcDbDictionary
280
               0
281
               1
  3
Standard
350
1C
  0
MLINESTYLE
  5
1C
102
{ACAD_REACTORS
330
1B
102
}
100
AcDbMlineStyle
  2
Standard
 70
               0
  3

 62
               0
 51
90.0
 52
90.0
 71
               2
 49
0.5
 62
             256
  6
BYLAYER
 49
-0.5
 62
             256
  6
BYLAYER
  0
ACDBDICTIONARYWDFLT
  5
1F
102
{ACAD_REACTORS
330
19
102
}
100
AcDbDictionary
281
               1
  3
Normal
350
1D
100
AcDbDictionaryWithDefault
340
1D
  0
ACDBPLACEHOLDER
  5
1D
102
{ACAD_REACTORS
330
1F
102
}
  0
LAYOUT
  5
20
102
{ACAD_REACTORS
330
1E
102
}
100
AcDbPlotSettings
  1

  2

  4

  6

 40
0.0
 41
0.0
 42
0.0
 43
0.0
 44
0.0
 45
0.0
 46
0.0
 47
0.0
 48
0.0
 49
0.0
140
0.0
141
0.0
142
1.0
143
1.0
 70
            1024
 72
               0
 73
               0
 74
               0
  7

 75
               0
147
1.0
148
0.0
149
0.0
100
AcDbLayout
  1
Model
 70
               0
 71
               0
 10
0.0
 20
0.0
 11
0.0
 21
0.0
 12
0.0
 22
0.0
 32
0.0
 14
0.0
 24
0.0
 34
0.0
 15
0.0
 25
0.0
 35
0.0
146
0.0
 13
0.0
 23
0.0
 33
0.0
 16
0.0
 26
0.0
 36
0.0
 17
0.0
 27
0.0
 37
0.0
 76
               0
330
A
331
0
345
0
346
0
  0
LAYOUT
  5
21
102
{ACAD_REACTORS
330
1E
102
}
100
AcDbPlotSettings
  1

  2

  4

  6

 40
0.0
 41
0.0
 42
0.0
 43
0.0
 44
0.0
 45
0.0
 46
0.0
 47
0.0
 48
0.0
 49
0.0
140
0.0
141
0.0
142
1.0
143
1.0
 70
               0
 72
               0
 73
               0
 74
               0
  7

 75
               0
147
1.0
148
0.0
149
0.0
100
AcDbLayout
  1
Layout1
 70
               0
 71
               0
 10
0.0
 20
0.0
 11
0.0
 21
0.0
 12
0.0
 22
0.0
 32
0.0
 14
0.0
 24
0.0
 34
0.0
 15
0.0
 25
0.0
 35
0.0
146
0.0
 13
0.0
 23
0.0
 33
0.0
 16
0.0
 26
0.0
 36
0.0
 17
0.0
 27
0.0
 37
0.0
 76
               0
330
B
331
0
345
0
346
0
  0
DICTIONARY
  5
1E
102
{ACAD_REACTORS
330
19
102
}
100
AcDbDictionary
280
               0
281
               1
  3
Layout1
350
21
  3
Model
350
20
  0
DICTIONARY
  5
22
102
{ACAD_REACTORS
330
19
102
}
100
AcDbDictionary
280
               0
281
               1
  0
ENDSEC
  0
EOF
